<svg xmlns="http://www.w3.org/2000/svg" viewBox="0 0 800 500" font-family="Inter, system-ui, sans-serif">
  <defs>
    <linearGradient id="bg" x1="0" y1="0" x2="0" y2="1">
      <stop offset="0%" stop-color="#1a1a2e"/>
      <stop offset="100%" stop-color="#16213e"/>
    </linearGradient>
    <filter id="glow">
      <feGaussianBlur stdDeviation="3" result="blur"/>
      <feMerge><feMergeNode in="blur"/><feMergeNode in="SourceGraphic"/></feMerge>
    </filter>
    <filter id="softGlow">
      <feGaussianBlur stdDeviation="2" result="blur"/>
      <feMerge><feMergeNode in="blur"/><feMergeNode in="SourceGraphic"/></feMerge>
    </filter>
  </defs>

  <rect width="800" height="500" fill="url(#bg)" rx="8"/>

  <g stroke="#ffffff" stroke-opacity="0.04" stroke-width="1">
    <line x1="80" y1="60" x2="80" y2="420"/><line x1="200" y1="60" x2="200" y2="420"/>
    <line x1="320" y1="60" x2="320" y2="420"/><line x1="440" y1="60" x2="440" y2="420"/>
    <line x1="560" y1="60" x2="560" y2="420"/><line x1="680" y1="60" x2="680" y2="420"/>
    <line x1="60" y1="100" x2="760" y2="100"/><line x1="60" y1="180" x2="760" y2="180"/>
    <line x1="60" y1="260" x2="760" y2="260"/><line x1="60" y1="340" x2="760" y2="340"/>
  </g>

  <text x="400" y="30" text-anchor="middle" fill="#e0e0e0" font-size="16" font-weight="600">Dynamic RSI Strategy</text>
  <text x="400" y="48" text-anchor="middle" fill="#888" font-size="11">tradegrub.finance</text>

  <!-- Candlesticks - upper area (y 80-240) -->
  <line x1="95" y1="175" x2="95" y2="215" stroke="#ef5350" stroke-width="1"/>
  <rect x="91" y="182" width="8" height="22" fill="#ef5350" rx="1"/>
  <line x1="120" y1="168" x2="120" y2="210" stroke="#ef5350" stroke-width="1"/>
  <rect x="116" y="175" width="8" height="25" fill="#ef5350" rx="1"/>
  <line x1="145" y1="160" x2="145" y2="200" stroke="#26a69a" stroke-width="1"/>
  <rect x="141" y="170" width="8" height="20" fill="#26a69a" rx="1"/>
  <line x1="170" y1="155" x2="170" y2="195" stroke="#26a69a" stroke-width="1"/>
  <rect x="166" y="162" width="8" height="22" fill="#26a69a" rx="1"/>
  <line x1="195" y1="148" x2="195" y2="188" stroke="#26a69a" stroke-width="1"/>
  <rect x="191" y="155" width="8" height="22" fill="#26a69a" rx="1"/>
  <line x1="220" y1="140" x2="220" y2="178" stroke="#26a69a" stroke-width="1"/>
  <rect x="216" y="148" width="8" height="20" fill="#26a69a" rx="1"/>
  <line x1="245" y1="132" x2="245" y2="170" stroke="#26a69a" stroke-width="1"/>
  <rect x="241" y="140" width="8" height="20" fill="#26a69a" rx="1"/>
  <line x1="270" y1="125" x2="270" y2="162" stroke="#26a69a" stroke-width="1"/>
  <rect x="266" y="132" width="8" height="20" fill="#26a69a" rx="1"/>
  <line x1="295" y1="118" x2="295" y2="155" stroke="#26a69a" stroke-width="1"/>
  <rect x="291" y="125" width="8" height="20" fill="#26a69a" rx="1"/>
  <line x1="320" y1="112" x2="320" y2="150" stroke="#ef5350" stroke-width="1"/>
  <rect x="316" y="118" width="8" height="22" fill="#ef5350" rx="1"/>
  <line x1="345" y1="108" x2="345" y2="148" stroke="#ef5350" stroke-width="1"/>
  <rect x="341" y="115" width="8" height="22" fill="#ef5350" rx="1"/>
  <line x1="370" y1="105" x2="370" y2="145" stroke="#ef5350" stroke-width="1"/>
  <rect x="366" y="112" width="8" height="25" fill="#ef5350" rx="1"/>
  <line x1="395" y1="110" x2="395" y2="150" stroke="#ef5350" stroke-width="1"/>
  <rect x="391" y="118" width="8" height="22" fill="#ef5350" rx="1"/>
  <line x1="420" y1="115" x2="420" y2="158" stroke="#ef5350" stroke-width="1"/>
  <rect x="416" y="125" width="8" height="25" fill="#ef5350" rx="1"/>
  <line x1="445" y1="125" x2="445" y2="168" stroke="#ef5350" stroke-width="1"/>
  <rect x="441" y="135" width="8" height="25" fill="#ef5350" rx="1"/>
  <line x1="470" y1="135" x2="470" y2="178" stroke="#ef5350" stroke-width="1"/>
  <rect x="466" y="145" width="8" height="25" fill="#ef5350" rx="1"/>
  <line x1="495" y1="148" x2="495" y2="190" stroke="#ef5350" stroke-width="1"/>
  <rect x="491" y="158" width="8" height="22" fill="#ef5350" rx="1"/>
  <line x1="520" y1="158" x2="520" y2="198" stroke="#ef5350" stroke-width="1"/>
  <rect x="516" y="165" width="8" height="22" fill="#ef5350" rx="1"/>
  <line x1="545" y1="162" x2="545" y2="200" stroke="#26a69a" stroke-width="1"/>
  <rect x="541" y="168" width="8" height="22" fill="#26a69a" rx="1"/>
  <line x1="570" y1="155" x2="570" y2="195" stroke="#26a69a" stroke-width="1"/>
  <rect x="566" y="162" width="8" height="22" fill="#26a69a" rx="1"/>
  <line x1="595" y1="148" x2="595" y2="188" stroke="#26a69a" stroke-width="1"/>
  <rect x="591" y="155" width="8" height="22" fill="#26a69a" rx="1"/>
  <line x1="620" y1="140" x2="620" y2="180" stroke="#26a69a" stroke-width="1"/>
  <rect x="616" y="148" width="8" height="22" fill="#26a69a" rx="1"/>
  <line x1="645" y1="135" x2="645" y2="175" stroke="#26a69a" stroke-width="1"/>
  <rect x="641" y="142" width="8" height="22" fill="#26a69a" rx="1"/>
  <line x1="670" y1="130" x2="670" y2="168" stroke="#26a69a" stroke-width="1"/>
  <rect x="666" y="138" width="8" height="20" fill="#26a69a" rx="1"/>
  <line x1="695" y1="125" x2="695" y2="165" stroke="#26a69a" stroke-width="1"/>
  <rect x="691" y="132" width="8" height="22" fill="#26a69a" rx="1"/>
  <line x1="720" y1="128" x2="720" y2="168" stroke="#ef5350" stroke-width="1"/>
  <rect x="716" y="135" width="8" height="22" fill="#ef5350" rx="1"/>

  <!-- RSI sub-panel separator -->
  <line x1="60" y1="250" x2="760" y2="250" stroke="#ffffff" stroke-opacity="0.08" stroke-width="1"/>
  <text x="68" y="265" fill="#888" font-size="9">RSI</text>

  <!-- Dynamic overbought band (dashed, narrows then widens) -->
  <path d="M80,278 Q160,275 240,272 Q320,268 400,265 Q440,268 480,272 Q520,275 560,270 Q600,268 640,272 Q680,278 730,280" fill="none" stroke="#ff9800" stroke-width="1.5" stroke-dasharray="6,3" opacity="0.7"/>
  <text x="735" y="283" fill="#ff9800" font-size="8">OB</text>

  <!-- Dynamic oversold band (dashed, narrows then widens) -->
  <path d="M80,348 Q160,352 240,355 Q320,358 400,362 Q440,358 480,355 Q520,352 560,358 Q600,362 640,355 Q680,348 730,345" fill="none" stroke="#42a5f5" stroke-width="1.5" stroke-dasharray="6,3" opacity="0.7"/>
  <text x="735" y="348" fill="#42a5f5" font-size="8">OS</text>

  <!-- RSI line (purple) -->
  <path d="M80,320 Q100,325 120,332 Q140,340 160,350 Q180,358 200,362 Q220,358 240,348 Q260,335 280,318 Q300,302 320,288 Q340,275 360,268 Q380,270 400,278 Q420,290 440,305 Q460,320 480,335 Q500,348 520,358 Q540,362 560,355 Q580,340 600,322 Q620,305 640,290 Q660,280 680,272 Q700,278 720,288" fill="none" stroke="#ab47bc" stroke-width="2.5" opacity="0.9"/>
  <text x="725" y="291" fill="#ab47bc" font-size="9">RSI(14)</text>

  <!-- BUY signal - RSI crosses below oversold at x=200 -->
  <circle cx="200" cy="362" r="8" fill="none" stroke="#00e676" stroke-width="2" filter="url(#glow)"/>
  <g filter="url(#softGlow)">
    <polygon points="198,380 208,380 203,393" fill="#00e676"/>
  </g>
  <rect x="212" y="376" width="65" height="22" rx="4" fill="#00e676" fill-opacity="0.15" stroke="#00e676" stroke-width="1" stroke-opacity="0.4"/>
  <text x="244" y="391" text-anchor="middle" fill="#00e676" font-size="11" font-weight="600">BUY</text>
  <text x="203" y="356" text-anchor="middle" fill="#00e676" font-size="8">Oversold</text>

  <!-- EXIT signal - RSI crosses above overbought at x=360 -->
  <circle cx="360" cy="268" r="8" fill="none" stroke="#ef5350" stroke-width="2" filter="url(#glow)"/>
  <g filter="url(#softGlow)">
    <polygon points="358,255 368,255 363,242" fill="#ef5350"/>
  </g>
  <rect x="372" y="238" width="65" height="22" rx="4" fill="#ef5350" fill-opacity="0.15" stroke="#ef5350" stroke-width="1" stroke-opacity="0.4"/>
  <text x="404" y="253" text-anchor="middle" fill="#ef5350" font-size="11" font-weight="600">EXIT</text>
  <text x="363" y="285" text-anchor="middle" fill="#ef5350" font-size="8">Overbought</text>

  <!-- Second BUY signal at x=540 -->
  <circle cx="540" cy="362" r="8" fill="none" stroke="#00e676" stroke-width="2" filter="url(#glow)"/>
  <g filter="url(#softGlow)">
    <polygon points="538,380 548,380 543,393" fill="#00e676"/>
  </g>
  <rect x="552" y="376" width="65" height="22" rx="4" fill="#00e676" fill-opacity="0.15" stroke="#00e676" stroke-width="1" stroke-opacity="0.4"/>
  <text x="584" y="391" text-anchor="middle" fill="#00e676" font-size="11" font-weight="600">BUY</text>

  <!-- Second EXIT signal at x=680 -->
  <circle cx="680" cy="272" r="8" fill="none" stroke="#ef5350" stroke-width="2" filter="url(#glow)"/>
  <g filter="url(#softGlow)">
    <polygon points="678,259 688,259 683,246" fill="#ef5350"/>
  </g>
  <rect x="692" y="242" width="45" height="22" rx="4" fill="#ef5350" fill-opacity="0.15" stroke="#ef5350" stroke-width="1" stroke-opacity="0.4"/>
  <text x="714" y="257" text-anchor="middle" fill="#ef5350" font-size="11" font-weight="600">EXIT</text>

  <!-- Volume bars -->
  <g opacity="0.4">
    <rect x="91" y="400" width="8" height="15" fill="#ef5350" rx="1"/>
    <rect x="116" y="397" width="8" height="18" fill="#ef5350" rx="1"/>
    <rect x="141" y="400" width="8" height="15" fill="#26a69a" rx="1"/>
    <rect x="166" y="398" width="8" height="17" fill="#26a69a" rx="1"/>
    <rect x="191" y="395" width="8" height="20" fill="#26a69a" rx="1"/>
    <rect x="216" y="393" width="8" height="22" fill="#26a69a" rx="1"/>
    <rect x="241" y="390" width="8" height="25" fill="#26a69a" rx="1"/>
    <rect x="266" y="393" width="8" height="22" fill="#26a69a" rx="1"/>
    <rect x="291" y="395" width="8" height="20" fill="#26a69a" rx="1"/>
    <rect x="316" y="400" width="8" height="15" fill="#ef5350" rx="1"/>
    <rect x="341" y="398" width="8" height="17" fill="#ef5350" rx="1"/>
    <rect x="366" y="395" width="8" height="20" fill="#ef5350" rx="1"/>
    <rect x="391" y="397" width="8" height="18" fill="#ef5350" rx="1"/>
    <rect x="416" y="400" width="8" height="15" fill="#ef5350" rx="1"/>
    <rect x="441" y="398" width="8" height="17" fill="#ef5350" rx="1"/>
    <rect x="466" y="395" width="8" height="20" fill="#ef5350" rx="1"/>
    <rect x="491" y="397" width="8" height="18" fill="#ef5350" rx="1"/>
    <rect x="516" y="400" width="8" height="15" fill="#ef5350" rx="1"/>
    <rect x="541" y="393" width="8" height="22" fill="#26a69a" rx="1"/>
    <rect x="566" y="395" width="8" height="20" fill="#26a69a" rx="1"/>
    <rect x="591" y="397" width="8" height="18" fill="#26a69a" rx="1"/>
    <rect x="616" y="395" width="8" height="20" fill="#26a69a" rx="1"/>
    <rect x="641" y="393" width="8" height="22" fill="#26a69a" rx="1"/>
    <rect x="666" y="390" width="8" height="25" fill="#26a69a" rx="1"/>
    <rect x="691" y="395" width="8" height="20" fill="#26a69a" rx="1"/>
    <rect x="716" y="398" width="8" height="17" fill="#ef5350" rx="1"/>
  </g>

  <!-- Legend -->
  <g transform="translate(60, 445)">
    <rect width="680" height="40" rx="4" fill="#ffffff" fill-opacity="0.03"/>
    <circle cx="20" cy="20" r="4" fill="#ab47bc"/>
    <text x="30" y="24" fill="#999" font-size="9">RSI (14)</text>
    <circle cx="110" cy="20" r="4" fill="#ff9800"/>
    <text x="120" y="24" fill="#999" font-size="9">Overbought Zone</text>
    <circle cx="240" cy="20" r="4" fill="#42a5f5"/>
    <text x="250" y="24" fill="#999" font-size="9">Oversold Zone</text>
    <circle cx="370" cy="20" r="4" fill="#00e676"/>
    <text x="380" y="24" fill="#999" font-size="9">Buy Signal</text>
    <circle cx="470" cy="20" r="4" fill="#ef5350"/>
    <text x="480" y="24" fill="#999" font-size="9">Exit Signal</text>
  </g>
</svg>