<svg xmlns="http://www.w3.org/2000/svg" viewBox="0 0 800 500">
  <defs>
  <linearGradient id="bg" x1="0" y1="0" x2="0" y2="1">
    <stop offset="0%" stop-color="#1a1a2e"/>
    <stop offset="100%" stop-color="#16213e"/>
  </linearGradient>
  <filter id="glow">
    <feGaussianBlur stdDeviation="2.5" result="blur"/>
    <feMerge><feMergeNode in="blur"/><feMergeNode in="SourceGraphic"/></feMerge>
  </filter>
  </defs>
  <rect width="800" height="500" fill="url(#bg)" rx="8"/>
  <g stroke="white" stroke-opacity="0.04" stroke-width="0.5">
  <line x1="0" y1="100" x2="800" y2="100"/><line x1="0" y1="200" x2="800" y2="200"/>
  <line x1="0" y1="300" x2="800" y2="300"/><line x1="0" y1="400" x2="800" y2="400"/>
  <line x1="100" y1="0" x2="100" y2="500"/><line x1="200" y1="0" x2="200" y2="500"/>
  <line x1="300" y1="0" x2="300" y2="500"/><line x1="400" y1="0" x2="400" y2="500"/>
  <line x1="500" y1="0" x2="500" y2="500"/><line x1="600" y1="0" x2="600" y2="500"/>
  <line x1="700" y1="0" x2="700" y2="500"/>
  </g>
  <text x="400" y="32" text-anchor="middle" font-family="Arial" font-size="17" fill="#e0e0e0" font-weight="bold">Attention State Classifier</text>
  <text x="400" y="48" text-anchor="middle" font-family="Arial" font-size="11" fill="#888">tradegrub.finance</text>
  <g transform="translate(60,65)">
  <text x="-8" y="18" text-anchor="end" font-family="monospace" font-size="8" fill="#555">H1</text>
  <text x="-8" y="55" text-anchor="end" font-family="monospace" font-size="8" fill="#555">H2</text>
  <text x="-8" y="92" text-anchor="end" font-family="monospace" font-size="8" fill="#555">H3</text>
  <text x="-8" y="129" text-anchor="end" font-family="monospace" font-size="8" fill="#555">H4</text>
  <text x="-8" y="166" text-anchor="end" font-family="monospace" font-size="8" fill="#555">H5</text>
  <text x="-8" y="203" text-anchor="end" font-family="monospace" font-size="8" fill="#555">H6</text>
  <text x="-8" y="240" text-anchor="end" font-family="monospace" font-size="8" fill="#555">H7</text>
  <text x="-8" y="277" text-anchor="end" font-family="monospace" font-size="8" fill="#555">H8</text>
  <text x="18" y="-4" text-anchor="middle" font-family="monospace" font-size="7" fill="#555">T1</text>
  <text x="55" y="-4" text-anchor="middle" font-family="monospace" font-size="7" fill="#555">T2</text>
  <text x="92" y="-4" text-anchor="middle" font-family="monospace" font-size="7" fill="#555">T3</text>
  <text x="129" y="-4" text-anchor="middle" font-family="monospace" font-size="7" fill="#555">T4</text>
  <text x="166" y="-4" text-anchor="middle" font-family="monospace" font-size="7" fill="#555">T5</text>
  <text x="203" y="-4" text-anchor="middle" font-family="monospace" font-size="7" fill="#555">T6</text>
  <text x="240" y="-4" text-anchor="middle" font-family="monospace" font-size="7" fill="#555">T7</text>
  <text x="277" y="-4" text-anchor="middle" font-family="monospace" font-size="7" fill="#555">T8</text>
  <text x="314" y="-4" text-anchor="middle" font-family="monospace" font-size="7" fill="#555">T9</text>
  <text x="351" y="-4" text-anchor="middle" font-family="monospace" font-size="7" fill="#555">T10</text>
  <text x="388" y="-4" text-anchor="middle" font-family="monospace" font-size="7" fill="#555">T11</text>
  <text x="425" y="-4" text-anchor="middle" font-family="monospace" font-size="7" fill="#555">T12</text>
  <rect x="0" y="3" width="33" height="30" rx="3" fill="#1b0a3a"/>
  <rect x="37" y="3" width="33" height="30" rx="3" fill="#2d1260"/>
  <rect x="74" y="3" width="33" height="30" rx="3" fill="#1b0a3a"/>
  <rect x="111" y="3" width="33" height="30" rx="3" fill="#3a1a7a"/>
  <rect x="148" y="3" width="33" height="30" rx="3" fill="#5a2d9e"/>
  <rect x="185" y="3" width="33" height="30" rx="3" fill="#7a3fb8"/>
  <rect x="222" y="3" width="33" height="30" rx="3" fill="#e8a030"/>
  <rect x="259" y="3" width="33" height="30" rx="3" fill="#f0c040"/>
  <rect x="296" y="3" width="33" height="30" rx="3" fill="#c87020"/>
  <rect x="333" y="3" width="33" height="30" rx="3" fill="#7a3fb8"/>
  <rect x="370" y="3" width="33" height="30" rx="3" fill="#3a1a7a"/>
  <rect x="407" y="3" width="33" height="30" rx="3" fill="#2d1260"/>
  <rect x="0" y="40" width="33" height="30" rx="3" fill="#2d1260"/>
  <rect x="37" y="40" width="33" height="30" rx="3" fill="#3a1a7a"/>
  <rect x="74" y="40" width="33" height="30" rx="3" fill="#5a2d9e"/>
  <rect x="111" y="40" width="33" height="30" rx="3" fill="#9050d0"/>
  <rect x="148" y="40" width="33" height="30" rx="3" fill="#c87020"/>
  <rect x="185" y="40" width="33" height="30" rx="3" fill="#f0c040"/>
  <rect x="222" y="40" width="33" height="30" rx="3" fill="#ffe060"/>
  <rect x="259" y="40" width="33" height="30" rx="3" fill="#f0c040"/>
  <rect x="296" y="40" width="33" height="30" rx="3" fill="#e8a030"/>
  <rect x="333" y="40" width="33" height="30" rx="3" fill="#9050d0"/>
  <rect x="370" y="40" width="33" height="30" rx="3" fill="#5a2d9e"/>
  <rect x="407" y="40" width="33" height="30" rx="3" fill="#3a1a7a"/>
  <rect x="0" y="77" width="33" height="30" rx="3" fill="#1b0a3a"/>
  <rect x="37" y="77" width="33" height="30" rx="3" fill="#1b0a3a"/>
  <rect x="74" y="77" width="33" height="30" rx="3" fill="#2d1260"/>
  <rect x="111" y="77" width="33" height="30" rx="3" fill="#3a1a7a"/>
  <rect x="148" y="77" width="33" height="30" rx="3" fill="#5a2d9e"/>
  <rect x="185" y="77" width="33" height="30" rx="3" fill="#7a3fb8"/>
  <rect x="222" y="77" width="33" height="30" rx="3" fill="#9050d0"/>
  <rect x="259" y="77" width="33" height="30" rx="3" fill="#7a3fb8"/>
  <rect x="296" y="77" width="33" height="30" rx="3" fill="#5a2d9e"/>
  <rect x="333" y="77" width="33" height="30" rx="3" fill="#3a1a7a"/>
  <rect x="370" y="77" width="33" height="30" rx="3" fill="#2d1260"/>
  <rect x="407" y="77" width="33" height="30" rx="3" fill="#1b0a3a"/>
  <rect x="0" y="114" width="33" height="30" rx="3" fill="#3a1a7a"/>
  <rect x="37" y="114" width="33" height="30" rx="3" fill="#5a2d9e"/>
  <rect x="74" y="114" width="33" height="30" rx="3" fill="#7a3fb8"/>
  <rect x="111" y="114" width="33" height="30" rx="3" fill="#c87020"/>
  <rect x="148" y="114" width="33" height="30" rx="3" fill="#e8a030"/>
  <rect x="185" y="114" width="33" height="30" rx="3" fill="#ffe060"/>
  <rect x="222" y="114" width="33" height="30" rx="3" fill="#f0c040"/>
  <rect x="259" y="114" width="33" height="30" rx="3" fill="#e8a030"/>
  <rect x="296" y="114" width="33" height="30" rx="3" fill="#c87020"/>
  <rect x="333" y="114" width="33" height="30" rx="3" fill="#7a3fb8"/>
  <rect x="370" y="114" width="33" height="30" rx="3" fill="#5a2d9e"/>
  <rect x="407" y="114" width="33" height="30" rx="3" fill="#3a1a7a"/>
  <rect x="0" y="151" width="33" height="30" rx="3" fill="#5a2d9e"/>
  <rect x="37" y="151" width="33" height="30" rx="3" fill="#9050d0"/>
  <rect x="74" y="151" width="33" height="30" rx="3" fill="#c87020"/>
  <rect x="111" y="151" width="33" height="30" rx="3" fill="#f0c040"/>
  <rect x="148" y="151" width="33" height="30" rx="3" fill="#ffe060"/>
  <rect x="185" y="151" width="33" height="30" rx="3" fill="#ffe060"/>
  <rect x="222" y="151" width="33" height="30" rx="3" fill="#f0c040"/>
  <rect x="259" y="151" width="33" height="30" rx="3" fill="#c87020"/>
  <rect x="296" y="151" width="33" height="30" rx="3" fill="#9050d0"/>
  <rect x="333" y="151" width="33" height="30" rx="3" fill="#5a2d9e"/>
  <rect x="370" y="151" width="33" height="30" rx="3" fill="#3a1a7a"/>
  <rect x="407" y="151" width="33" height="30" rx="3" fill="#2d1260"/>
  <rect x="0" y="188" width="33" height="30" rx="3" fill="#2d1260"/>
  <rect x="37" y="188" width="33" height="30" rx="3" fill="#3a1a7a"/>
  <rect x="74" y="188" width="33" height="30" rx="3" fill="#5a2d9e"/>
  <rect x="111" y="188" width="33" height="30" rx="3" fill="#7a3fb8"/>
  <rect x="148" y="188" width="33" height="30" rx="3" fill="#e8a030"/>
  <rect x="185" y="188" width="33" height="30" rx="3" fill="#f0c040"/>
  <rect x="222" y="188" width="33" height="30" rx="3" fill="#c87020"/>
  <rect x="259" y="188" width="33" height="30" rx="3" fill="#9050d0"/>
  <rect x="296" y="188" width="33" height="30" rx="3" fill="#5a2d9e"/>
  <rect x="333" y="188" width="33" height="30" rx="3" fill="#3a1a7a"/>
  <rect x="370" y="188" width="33" height="30" rx="3" fill="#2d1260"/>
  <rect x="407" y="188" width="33" height="30" rx="3" fill="#1b0a3a"/>
  <rect x="0" y="225" width="33" height="30" rx="3" fill="#1b0a3a"/>
  <rect x="37" y="225" width="33" height="30" rx="3" fill="#2d1260"/>
  <rect x="74" y="225" width="33" height="30" rx="3" fill="#3a1a7a"/>
  <rect x="111" y="225" width="33" height="30" rx="3" fill="#5a2d9e"/>
  <rect x="148" y="225" width="33" height="30" rx="3" fill="#7a3fb8"/>
  <rect x="185" y="225" width="33" height="30" rx="3" fill="#9050d0"/>
  <rect x="222" y="225" width="33" height="30" rx="3" fill="#7a3fb8"/>
  <rect x="259" y="225" width="33" height="30" rx="3" fill="#5a2d9e"/>
  <rect x="296" y="225" width="33" height="30" rx="3" fill="#3a1a7a"/>
  <rect x="333" y="225" width="33" height="30" rx="3" fill="#2d1260"/>
  <rect x="370" y="225" width="33" height="30" rx="3" fill="#1b0a3a"/>
  <rect x="407" y="225" width="33" height="30" rx="3" fill="#1b0a3a"/>
  <rect x="0" y="262" width="33" height="30" rx="3" fill="#1b0a3a"/>
  <rect x="37" y="262" width="33" height="30" rx="3" fill="#1b0a3a"/>
  <rect x="74" y="262" width="33" height="30" rx="3" fill="#2d1260"/>
  <rect x="111" y="262" width="33" height="30" rx="3" fill="#3a1a7a"/>
  <rect x="148" y="262" width="33" height="30" rx="3" fill="#5a2d9e"/>
  <rect x="185" y="262" width="33" height="30" rx="3" fill="#7a3fb8"/>
  <rect x="222" y="262" width="33" height="30" rx="3" fill="#5a2d9e"/>
  <rect x="259" y="262" width="33" height="30" rx="3" fill="#3a1a7a"/>
  <rect x="296" y="262" width="33" height="30" rx="3" fill="#2d1260"/>
  <rect x="333" y="262" width="33" height="30" rx="3" fill="#1b0a3a"/>
  <rect x="370" y="262" width="33" height="30" rx="3" fill="#1b0a3a"/>
  <rect x="407" y="262" width="33" height="30" rx="3" fill="#1b0a3a"/>
  </g>
  <g filter="url(#glow)">
  <polyline points="520,340 540,310 560,260 580,200 600,170 620,140 640,120 660,130 680,110 700,95 720,80 740,75" fill="none" stroke="#ffe060" stroke-width="2.5" stroke-linecap="round" stroke-linejoin="round"/>
  <circle cx="740" cy="75" r="4" fill="#ffe060"/>
  </g>
  <rect x="680" y="65" width="105" height="80" rx="4" fill="#00c853" opacity="0.08"/>
  <rect x="680" y="145" width="105" height="100" rx="4" fill="#ffd600" opacity="0.08"/>
  <rect x="680" y="245" width="105" height="110" rx="4" fill="#ff1744" opacity="0.08"/>
  <text x="760" y="108" text-anchor="middle" font-family="Arial" font-size="11" fill="#00c853" font-weight="bold">Bullish</text>
  <text x="760" y="200" text-anchor="middle" font-family="Arial" font-size="11" fill="#ffd600" font-weight="bold">Neutral</text>
  <text x="760" y="305" text-anchor="middle" font-family="Arial" font-size="11" fill="#ff1744" font-weight="bold">Bearish</text>
  <text x="630" y="385" text-anchor="middle" font-family="Arial" font-size="10" fill="#888">Classification Score</text>
  <text x="290" y="410" text-anchor="middle" font-family="Arial" font-size="10" fill="#666">Attention Heads x Time Steps</text>
  <g transform="translate(0,455)">
  <rect x="100" y="-10" width="600" height="30" rx="6" fill="white" opacity="0.03"/>
  <circle cx="140" cy="5" r="5" fill="#1b0a3a"/><text x="152" y="9" font-family="Arial" font-size="9" fill="#888">Low</text>
  <circle cx="220" cy="5" r="5" fill="#3a1a7a"/><text x="232" y="9" font-family="Arial" font-size="9" fill="#888">0.2</text>
  <circle cx="300" cy="5" r="5" fill="#7a3fb8"/><text x="312" y="9" font-family="Arial" font-size="9" fill="#888">0.4</text>
  <circle cx="380" cy="5" r="5" fill="#c87020"/><text x="392" y="9" font-family="Arial" font-size="9" fill="#888">0.6</text>
  <circle cx="460" cy="5" r="5" fill="#e8a030"/><text x="472" y="9" font-family="Arial" font-size="9" fill="#888">0.8</text>
  <circle cx="540" cy="5" r="5" fill="#f0c040"/><text x="552" y="9" font-family="Arial" font-size="9" fill="#888">0.9</text>
  <circle cx="620" cy="5" r="5" fill="#ffe060"/><text x="632" y="9" font-family="Arial" font-size="9" fill="#888">High</text>
  </g>
</svg>