<svg xmlns="http://www.w3.org/2000/svg" viewBox="0 0 800 500" font-family="Inter, system-ui, sans-serif">
  <defs>
    <linearGradient id="bg" x1="0" y1="0" x2="0" y2="1">
      <stop offset="0%" stop-color="#1a1a2e"/>
      <stop offset="100%" stop-color="#16213e"/>
    </linearGradient>
    <filter id="glow">
      <feGaussianBlur stdDeviation="3" result="blur"/>
      <feMerge><feMergeNode in="blur"/><feMergeNode in="SourceGraphic"/></feMerge>
    </filter>
  </defs>
  <rect width="800" height="500" fill="url(#bg)" rx="8"/>

  <!-- Grid lines -->
  <g stroke="#ffffff10" stroke-width="0.5">
    <line x1="80" y1="60" x2="80" y2="470"/>
    <line x1="220" y1="60" x2="220" y2="470"/>
    <line x1="360" y1="60" x2="360" y2="470"/>
    <line x1="500" y1="60" x2="500" y2="470"/>
    <line x1="640" y1="60" x2="640" y2="470"/>
    <line x1="780" y1="60" x2="780" y2="470"/>
    <line x1="60" y1="100" x2="780" y2="100"/>
    <line x1="60" y1="150" x2="780" y2="150"/>
    <line x1="60" y1="200" x2="780" y2="200"/>
    <line x1="60" y1="250" x2="780" y2="250"/>
    <line x1="60" y1="310" x2="780" y2="310"/>
    <line x1="60" y1="360" x2="780" y2="360"/>
    <line x1="60" y1="410" x2="780" y2="410"/>
  </g>

  <!-- Title -->
  <text x="400" y="28" text-anchor="middle" fill="#e0e0e0" font-size="16" font-weight="600" filter="url(#glow)">LightGBM Trend Classifier</text>
  <text x="400" y="48" text-anchor="middle" fill="#888" font-size="10">tradegrub.finance -- Gradient Boosted Trend Classification</text>

  <!-- Bullish background zone -->
  <rect x="100" y="60" width="200" height="220" fill="#26a69a" opacity="0.06" rx="2"/>
  <rect x="520" y="60" width="160" height="220" fill="#26a69a" opacity="0.06" rx="2"/>

  <!-- Bearish background zone -->
  <rect x="340" y="60" width="140" height="220" fill="#ef5350" opacity="0.06" rx="2"/>

  <!-- Candlesticks -->
  <g stroke-width="1.5">
    <!-- Uptrend candles -->
    <line x1="110" y1="195" x2="110" y2="155" stroke="#26a69a"/><rect x="106" y="165" width="8" height="20" fill="#26a69a" rx="1"/>
    <line x1="130" y1="185" x2="130" y2="140" stroke="#26a69a"/><rect x="126" y="150" width="8" height="22" fill="#26a69a" rx="1"/>
    <line x1="150" y1="175" x2="150" y2="125" stroke="#26a69a"/><rect x="146" y="135" width="8" height="25" fill="#26a69a" rx="1"/>
    <line x1="170" y1="165" x2="170" y2="110" stroke="#26a69a"/><rect x="166" y="120" width="8" height="28" fill="#26a69a" rx="1"/>
    <line x1="190" y1="155" x2="190" y2="100" stroke="#26a69a"/><rect x="186" y="108" width="8" height="30" fill="#26a69a" rx="1"/>
    <line x1="210" y1="145" x2="210" y2="92" stroke="#26a69a"/><rect x="206" y="100" width="8" height="26" fill="#26a69a" rx="1"/>
    <line x1="230" y1="140" x2="230" y2="88" stroke="#26a69a"/><rect x="226" y="95" width="8" height="28" fill="#26a69a" rx="1"/>
    <line x1="250" y1="135" x2="250" y2="90" stroke="#ef5350"/><rect x="246" y="95" width="8" height="22" fill="#ef5350" rx="1"/>
    <line x1="270" y1="130" x2="270" y2="95" stroke="#ef5350"/><rect x="266" y="98" width="8" height="18" fill="#ef5350" rx="1"/>
    <!-- Consolidation and downtrend -->
    <line x1="290" y1="125" x2="290" y2="100" stroke="#ef5350"/><rect x="286" y="105" width="8" height="12" fill="#ef5350" rx="1"/>
    <line x1="310" y1="130" x2="310" y2="108" stroke="#26a69a"/><rect x="306" y="112" width="8" height="10" fill="#26a69a" rx="1"/>
    <line x1="330" y1="140" x2="330" y2="115" stroke="#ef5350"/><rect x="326" y="118" width="8" height="14" fill="#ef5350" rx="1"/>
    <!-- Downtrend -->
    <line x1="350" y1="150" x2="350" y2="120" stroke="#ef5350"/><rect x="346" y="125" width="8" height="18" fill="#ef5350" rx="1"/>
    <line x1="370" y1="165" x2="370" y2="130" stroke="#ef5350"/><rect x="366" y="135" width="8" height="22" fill="#ef5350" rx="1"/>
    <line x1="390" y1="180" x2="390" y2="145" stroke="#ef5350"/><rect x="386" y="150" width="8" height="22" fill="#ef5350" rx="1"/>
    <line x1="410" y1="200" x2="410" y2="158" stroke="#ef5350"/><rect x="406" y="165" width="8" height="26" fill="#ef5350" rx="1"/>
    <line x1="430" y1="210" x2="430" y2="170" stroke="#ef5350"/><rect x="426" y="178" width="8" height="22" fill="#ef5350" rx="1"/>
    <line x1="450" y1="215" x2="450" y2="180" stroke="#26a69a"/><rect x="446" y="185" width="8" height="18" fill="#26a69a" rx="1"/>
    <line x1="470" y1="210" x2="470" y2="178" stroke="#26a69a"/><rect x="466" y="182" width="8" height="16" fill="#26a69a" rx="1"/>
    <line x1="490" y1="205" x2="490" y2="170" stroke="#26a69a"/><rect x="486" y="175" width="8" height="20" fill="#26a69a" rx="1"/>
    <!-- Recovery uptrend -->
    <line x1="510" y1="195" x2="510" y2="155" stroke="#26a69a"/><rect x="506" y="160" width="8" height="24" fill="#26a69a" rx="1"/>
    <line x1="530" y1="180" x2="530" y2="138" stroke="#26a69a"/><rect x="526" y="145" width="8" height="24" fill="#26a69a" rx="1"/>
    <line x1="550" y1="168" x2="550" y2="122" stroke="#26a69a"/><rect x="546" y="130" width="8" height="26" fill="#26a69a" rx="1"/>
    <line x1="570" y1="155" x2="570" y2="108" stroke="#26a69a"/><rect x="566" y="115" width="8" height="28" fill="#26a69a" rx="1"/>
    <line x1="590" y1="148" x2="590" y2="100" stroke="#26a69a"/><rect x="586" y="108" width="8" height="26" fill="#26a69a" rx="1"/>
    <line x1="610" y1="140" x2="610" y2="95" stroke="#26a69a"/><rect x="606" y="102" width="8" height="24" fill="#26a69a" rx="1"/>
    <line x1="630" y1="135" x2="630" y2="90" stroke="#26a69a"/><rect x="626" y="96" width="8" height="26" fill="#26a69a" rx="1"/>
    <line x1="650" y1="130" x2="650" y2="88" stroke="#ef5350"/><rect x="646" y="92" width="8" height="22" fill="#ef5350" rx="1"/>
    <line x1="670" y1="138" x2="670" y2="95" stroke="#ef5350"/><rect x="666" y="100" width="8" height="24" fill="#ef5350" rx="1"/>
    <line x1="690" y1="145" x2="690" y2="105" stroke="#26a69a"/><rect x="686" y="110" width="8" height="20" fill="#26a69a" rx="1"/>
    <line x1="710" y1="140" x2="710" y2="102" stroke="#26a69a"/><rect x="706" y="108" width="8" height="18" fill="#26a69a" rx="1"/>
  </g>

  <!-- Separator line -->
  <line x1="60" y1="285" x2="780" y2="285" stroke="#ffffff20" stroke-width="1"/>
  <text x="65" y="300" fill="#888" font-size="9">PROBABILITY</text>

  <!-- 0.5 reference line -->
  <line x1="60" y1="370" x2="780" y2="370" stroke="#ffffff15" stroke-width="1" stroke-dasharray="4,4"/>
  <text x="45" y="374" fill="#666" font-size="8" text-anchor="end">0.5</text>

  <!-- Bullish probability line (green) -->
  <polyline fill="none" stroke="#26a69a" stroke-width="2" filter="url(#glow)" opacity="0.9"
    points="110,350 130,340 150,330 170,320 190,315 210,310 230,312 250,330 270,345 290,355 310,360 330,370 350,380 370,395 390,410 410,420 430,415 450,400 470,385 490,370 510,355 530,340 550,325 570,315 590,310 610,308 630,312 650,330 670,340 690,335 710,325"/>

  <!-- Bearish probability line (red) -->
  <polyline fill="none" stroke="#ef5350" stroke-width="2" filter="url(#glow)" opacity="0.9"
    points="110,410 130,418 150,425 170,430 190,432 210,435 230,430 250,395 270,380 290,370 310,362 330,355 350,345 370,330 390,315 410,310 430,318 450,335 470,350 490,365 510,380 530,400 550,415 570,425 590,430 610,432 630,428 650,400 670,388 690,395 710,405"/>

  <!-- Confidence bars -->
  <g fill="#ff9800" opacity="0.5">
    <rect x="108" y="440" width="6" height="18" rx="1"/>
    <rect x="128" y="435" width="6" height="23" rx="1"/>
    <rect x="148" y="432" width="6" height="26" rx="1"/>
    <rect x="168" y="428" width="6" height="30" rx="1"/>
    <rect x="188" y="426" width="6" height="32" rx="1"/>
    <rect x="208" y="424" width="6" height="34" rx="1"/>
    <rect x="228" y="430" width="6" height="28" rx="1"/>
    <rect x="248" y="440" width="6" height="18" rx="1"/>
    <rect x="268" y="445" width="6" height="13" rx="1"/>
    <rect x="288" y="448" width="6" height="10" rx="1"/>
    <rect x="308" y="450" width="6" height="8" rx="1"/>
    <rect x="328" y="448" width="6" height="10" rx="1"/>
    <rect x="348" y="442" width="6" height="16" rx="1"/>
    <rect x="368" y="436" width="6" height="22" rx="1"/>
    <rect x="388" y="430" width="6" height="28" rx="1"/>
    <rect x="408" y="426" width="6" height="32" rx="1"/>
    <rect x="428" y="432" width="6" height="26" rx="1"/>
    <rect x="448" y="440" width="6" height="18" rx="1"/>
    <rect x="468" y="444" width="6" height="14" rx="1"/>
    <rect x="488" y="448" width="6" height="10" rx="1"/>
    <rect x="508" y="442" width="6" height="16" rx="1"/>
    <rect x="528" y="435" width="6" height="23" rx="1"/>
    <rect x="548" y="430" width="6" height="28" rx="1"/>
    <rect x="568" y="426" width="6" height="32" rx="1"/>
    <rect x="588" y="424" width="6" height="34" rx="1"/>
    <rect x="608" y="425" width="6" height="33" rx="1"/>
    <rect x="628" y="430" width="6" height="28" rx="1"/>
    <rect x="648" y="440" width="6" height="18" rx="1"/>
    <rect x="668" y="443" width="6" height="15" rx="1"/>
    <rect x="688" y="442" width="6" height="16" rx="1"/>
    <rect x="708" y="438" width="6" height="20" rx="1"/>
  </g>

  <!-- Regime labels on chart -->
  <g font-size="9" font-weight="600">
    <rect x="140" y="78" width="48" height="16" fill="#26a69a" rx="3" opacity="0.8"/>
    <text x="164" y="90" fill="white" text-anchor="middle">Bullish</text>
    <rect x="355" y="110" width="48" height="16" fill="#ef5350" rx="3" opacity="0.8"/>
    <text x="379" y="122" fill="white" text-anchor="middle">Bearish</text>
    <rect x="530" y="130" width="48" height="16" fill="#26a69a" rx="3" opacity="0.8"/>
    <text x="554" y="142" fill="white" text-anchor="middle">Bullish</text>
  </g>

  <!-- Legend -->
  <g transform="translate(100, 488)" font-size="10">
    <line x1="0" y1="-4" x2="20" y2="-4" stroke="#26a69a" stroke-width="2"/>
    <text x="25" y="0" fill="#aaa">Bullish Prob</text>
    <line x1="130" y1="-4" x2="150" y2="-4" stroke="#ef5350" stroke-width="2"/>
    <text x="155" y="0" fill="#aaa">Bearish Prob</text>
    <rect x="260" y="-8" width="12" height="8" fill="#ff9800" opacity="0.6" rx="1"/>
    <text x="278" y="0" fill="#aaa">Confidence</text>
    <rect x="370" y="-8" width="12" height="8" fill="#26a69a" opacity="0.15" rx="1"/>
    <rect x="370" y="-8" width="12" height="8" stroke="#26a69a" stroke-width="0.5" fill="none" rx="1"/>
    <text x="388" y="0" fill="#aaa">High Confidence Zones</text>
  </g>
</svg>
