<svg xmlns="http://www.w3.org/2000/svg" viewBox="0 0 800 500" font-family="Inter, system-ui, sans-serif">
  <defs>
    <linearGradient id="bg" x1="0" y1="0" x2="0" y2="1">
      <stop offset="0%" stop-color="#1a1a2e"/>
      <stop offset="100%" stop-color="#16213e"/>
    </linearGradient>
    <filter id="glow">
      <feGaussianBlur stdDeviation="3" result="blur"/>
      <feMerge><feMergeNode in="blur"/><feMergeNode in="SourceGraphic"/></feMerge>
    </filter>
    <filter id="softGlow">
      <feGaussianBlur stdDeviation="2" result="blur"/>
      <feMerge><feMergeNode in="blur"/><feMergeNode in="SourceGraphic"/></feMerge>
    </filter>
  </defs>

  <rect width="800" height="500" fill="url(#bg)" rx="8"/>

  <g stroke="#ffffff" stroke-opacity="0.04" stroke-width="1">
    <line x1="80" y1="60" x2="80" y2="420"/><line x1="200" y1="60" x2="200" y2="420"/>
    <line x1="320" y1="60" x2="320" y2="420"/><line x1="440" y1="60" x2="440" y2="420"/>
    <line x1="560" y1="60" x2="560" y2="420"/><line x1="680" y1="60" x2="680" y2="420"/>
    <line x1="60" y1="100" x2="760" y2="100"/><line x1="60" y1="180" x2="760" y2="180"/>
    <line x1="60" y1="260" x2="760" y2="260"/><line x1="60" y1="340" x2="760" y2="340"/>
  </g>

  <text x="400" y="30" text-anchor="middle" fill="#e0e0e0" font-size="16" font-weight="600">Optimized Crossover Strategy</text>
  <text x="400" y="48" text-anchor="middle" fill="#888" font-size="11">tradegrub.finance</text>

  <!-- Optimization zone 1 -->
  <rect x="80" y="60" width="320" height="360" fill="#42a5f5" fill-opacity="0.03" rx="2"/>
  <text x="240" y="75" text-anchor="middle" fill="#42a5f5" font-size="8" opacity="0.5">Walk-Forward Window 1</text>

  <!-- Optimization zone 2 -->
  <rect x="400" y="60" width="340" height="360" fill="#ff9800" fill-opacity="0.03" rx="2"/>
  <text x="570" y="75" text-anchor="middle" fill="#ff9800" font-size="8" opacity="0.5">Walk-Forward Window 2</text>

  <!-- Period labels window 1 -->
  <rect x="85" y="82" width="55" height="16" rx="3" fill="#42a5f5" fill-opacity="0.1" stroke="#42a5f5" stroke-width="0.5" stroke-opacity="0.3"/>
  <text x="112" y="93" text-anchor="middle" fill="#42a5f5" font-size="8">Fast(8)</text>
  <rect x="145" y="82" width="55" height="16" rx="3" fill="#ff9800" fill-opacity="0.1" stroke="#ff9800" stroke-width="0.5" stroke-opacity="0.3"/>
  <text x="172" y="93" text-anchor="middle" fill="#ff9800" font-size="8">Slow(21)</text>

  <!-- Period labels window 2 -->
  <rect x="405" y="82" width="55" height="16" rx="3" fill="#42a5f5" fill-opacity="0.1" stroke="#42a5f5" stroke-width="0.5" stroke-opacity="0.3"/>
  <text x="432" y="93" text-anchor="middle" fill="#42a5f5" font-size="8">Fast(12)</text>
  <rect x="465" y="82" width="55" height="16" rx="3" fill="#ff9800" fill-opacity="0.1" stroke="#ff9800" stroke-width="0.5" stroke-opacity="0.3"/>
  <text x="492" y="93" text-anchor="middle" fill="#ff9800" font-size="8">Slow(26)</text>

  <!-- Candlesticks -->
  <line x1="95" y1="295" x2="95" y2="335" stroke="#ef5350" stroke-width="1"/>
  <rect x="91" y="302" width="8" height="22" fill="#ef5350" rx="1"/>
  <line x1="120" y1="285" x2="120" y2="328" stroke="#ef5350" stroke-width="1"/>
  <rect x="116" y="295" width="8" height="22" fill="#ef5350" rx="1"/>
  <line x1="145" y1="272" x2="145" y2="312" stroke="#26a69a" stroke-width="1"/>
  <rect x="141" y="280" width="8" height="22" fill="#26a69a" rx="1"/>
  <line x1="170" y1="258" x2="170" y2="298" stroke="#26a69a" stroke-width="1"/>
  <rect x="166" y="265" width="8" height="22" fill="#26a69a" rx="1"/>
  <line x1="195" y1="242" x2="195" y2="282" stroke="#26a69a" stroke-width="1"/>
  <rect x="191" y="250" width="8" height="22" fill="#26a69a" rx="1"/>
  <line x1="220" y1="225" x2="220" y2="265" stroke="#26a69a" stroke-width="1"/>
  <rect x="216" y="232" width="8" height="22" fill="#26a69a" rx="1"/>
  <line x1="245" y1="210" x2="245" y2="248" stroke="#26a69a" stroke-width="1"/>
  <rect x="241" y="218" width="8" height="20" fill="#26a69a" rx="1"/>
  <line x1="270" y1="195" x2="270" y2="232" stroke="#26a69a" stroke-width="1"/>
  <rect x="266" y="202" width="8" height="20" fill="#26a69a" rx="1"/>
  <line x1="295" y1="180" x2="295" y2="218" stroke="#26a69a" stroke-width="1"/>
  <rect x="291" y="188" width="8" height="20" fill="#26a69a" rx="1"/>
  <line x1="320" y1="168" x2="320" y2="205" stroke="#ef5350" stroke-width="1"/>
  <rect x="316" y="175" width="8" height="20" fill="#ef5350" rx="1"/>
  <line x1="345" y1="178" x2="345" y2="218" stroke="#ef5350" stroke-width="1"/>
  <rect x="341" y="188" width="8" height="22" fill="#ef5350" rx="1"/>
  <line x1="370" y1="192" x2="370" y2="232" stroke="#ef5350" stroke-width="1"/>
  <rect x="366" y="200" width="8" height="22" fill="#ef5350" rx="1"/>
  <line x1="395" y1="205" x2="395" y2="245" stroke="#ef5350" stroke-width="1"/>
  <rect x="391" y="212" width="8" height="22" fill="#ef5350" rx="1"/>
  <line x1="420" y1="195" x2="420" y2="238" stroke="#26a69a" stroke-width="1"/>
  <rect x="416" y="205" width="8" height="22" fill="#26a69a" rx="1"/>
  <line x1="445" y1="182" x2="445" y2="222" stroke="#26a69a" stroke-width="1"/>
  <rect x="441" y="190" width="8" height="22" fill="#26a69a" rx="1"/>
  <line x1="470" y1="168" x2="470" y2="208" stroke="#26a69a" stroke-width="1"/>
  <rect x="466" y="175" width="8" height="22" fill="#26a69a" rx="1"/>
  <line x1="495" y1="155" x2="495" y2="195" stroke="#26a69a" stroke-width="1"/>
  <rect x="491" y="162" width="8" height="22" fill="#26a69a" rx="1"/>
  <line x1="520" y1="142" x2="520" y2="182" stroke="#26a69a" stroke-width="1"/>
  <rect x="516" y="150" width="8" height="22" fill="#26a69a" rx="1"/>
  <line x1="545" y1="132" x2="545" y2="172" stroke="#26a69a" stroke-width="1"/>
  <rect x="541" y="140" width="8" height="22" fill="#26a69a" rx="1"/>
  <line x1="570" y1="125" x2="570" y2="165" stroke="#ef5350" stroke-width="1"/>
  <rect x="566" y="132" width="8" height="22" fill="#ef5350" rx="1"/>
  <line x1="595" y1="135" x2="595" y2="175" stroke="#ef5350" stroke-width="1"/>
  <rect x="591" y="142" width="8" height="22" fill="#ef5350" rx="1"/>
  <line x1="620" y1="148" x2="620" y2="188" stroke="#ef5350" stroke-width="1"/>
  <rect x="616" y="155" width="8" height="22" fill="#ef5350" rx="1"/>
  <line x1="645" y1="158" x2="645" y2="198" stroke="#26a69a" stroke-width="1"/>
  <rect x="641" y="165" width="8" height="22" fill="#26a69a" rx="1"/>
  <line x1="670" y1="152" x2="670" y2="192" stroke="#26a69a" stroke-width="1"/>
  <rect x="666" y="160" width="8" height="22" fill="#26a69a" rx="1"/>
  <line x1="695" y1="148" x2="695" y2="188" stroke="#26a69a" stroke-width="1"/>
  <rect x="691" y="155" width="8" height="22" fill="#26a69a" rx="1"/>
  <line x1="720" y1="145" x2="720" y2="185" stroke="#26a69a" stroke-width="1"/>
  <rect x="716" y="152" width="8" height="22" fill="#26a69a" rx="1"/>

  <!-- Optimized Fast MA (blue) -->
  <path d="M80,310 Q120,298 160,280 Q200,260 240,238 Q280,218 320,198 Q340,195 360,205 Q380,215 400,225 Q420,218 440,205 Q460,190 480,178 Q500,165 520,152 Q540,142 560,135 Q580,138 600,148 Q620,158 640,165 Q660,162 680,158 Q700,155 720,152" fill="none" stroke="#42a5f5" stroke-width="2" opacity="0.9"/>
  <text x="725" y="155" fill="#42a5f5" font-size="9" font-weight="500">Fast MA</text>

  <!-- Optimized Slow MA (orange) -->
  <path d="M80,295 Q120,290 160,282 Q200,272 240,258 Q280,242 320,228 Q340,222 360,218 Q380,215 400,215 Q420,212 440,208 Q460,202 480,195 Q500,188 520,180 Q540,172 560,168 Q580,165 600,165 Q620,168 640,172 Q660,175 680,175 Q700,175 720,172" fill="none" stroke="#ff9800" stroke-width="2" opacity="0.9"/>
  <text x="725" y="175" fill="#ff9800" font-size="9" font-weight="500">Slow MA</text>

  <!-- Golden Cross BUY at x=245 -->
  <circle cx="245" cy="248" r="8" fill="none" stroke="#00e676" stroke-width="2" filter="url(#glow)"/>
  <g filter="url(#softGlow)">
    <polygon points="243,218 253,218 248,205" fill="#00e676"/>
  </g>
  <rect x="257" y="201" width="65" height="22" rx="4" fill="#00e676" fill-opacity="0.15" stroke="#00e676" stroke-width="1" stroke-opacity="0.4"/>
  <text x="289" y="216" text-anchor="middle" fill="#00e676" font-size="11" font-weight="600">BUY</text>
  <text x="248" y="268" text-anchor="middle" fill="#00e676" font-size="8">Golden Cross</text>

  <!-- Death Cross EXIT at x=370 -->
  <circle cx="370" cy="210" r="8" fill="none" stroke="#ef5350" stroke-width="2" filter="url(#glow)"/>
  <g filter="url(#softGlow)">
    <polygon points="368,240 378,240 373,253" fill="#ef5350"/>
  </g>
  <rect x="382" y="238" width="65" height="22" rx="4" fill="#ef5350" fill-opacity="0.15" stroke="#ef5350" stroke-width="1" stroke-opacity="0.4"/>
  <text x="414" y="253" text-anchor="middle" fill="#ef5350" font-size="11" font-weight="600">EXIT</text>
  <text x="373" y="230" text-anchor="middle" fill="#ef5350" font-size="8">Death Cross</text>

  <!-- Second Golden Cross BUY at x=445 -->
  <circle cx="445" cy="205" r="8" fill="none" stroke="#00e676" stroke-width="2" filter="url(#glow)"/>
  <g filter="url(#softGlow)">
    <polygon points="443,178 453,178 448,165" fill="#00e676"/>
  </g>
  <rect x="457" y="161" width="65" height="22" rx="4" fill="#00e676" fill-opacity="0.15" stroke="#00e676" stroke-width="1" stroke-opacity="0.4"/>
  <text x="489" y="176" text-anchor="middle" fill="#00e676" font-size="11" font-weight="600">BUY</text>

  <!-- Second Death Cross EXIT at x=610 -->
  <circle cx="610" cy="158" r="8" fill="none" stroke="#ef5350" stroke-width="2" filter="url(#glow)"/>
  <g filter="url(#softGlow)">
    <polygon points="608,185 618,185 613,198" fill="#ef5350"/>
  </g>
  <rect x="622" y="185" width="45" height="22" rx="4" fill="#ef5350" fill-opacity="0.15" stroke="#ef5350" stroke-width="1" stroke-opacity="0.4"/>
  <text x="644" y="200" text-anchor="middle" fill="#ef5350" font-size="11" font-weight="600">EXIT</text>

  <!-- Volume bars -->
  <g opacity="0.4">
    <rect x="91" y="400" width="8" height="15" fill="#ef5350" rx="1"/>
    <rect x="116" y="397" width="8" height="18" fill="#ef5350" rx="1"/>
    <rect x="141" y="400" width="8" height="15" fill="#26a69a" rx="1"/>
    <rect x="166" y="398" width="8" height="17" fill="#26a69a" rx="1"/>
    <rect x="191" y="395" width="8" height="20" fill="#26a69a" rx="1"/>
    <rect x="216" y="393" width="8" height="22" fill="#26a69a" rx="1"/>
    <rect x="241" y="388" width="8" height="27" fill="#26a69a" rx="1"/>
    <rect x="266" y="393" width="8" height="22" fill="#26a69a" rx="1"/>
    <rect x="291" y="395" width="8" height="20" fill="#26a69a" rx="1"/>
    <rect x="316" y="400" width="8" height="15" fill="#ef5350" rx="1"/>
    <rect x="341" y="398" width="8" height="17" fill="#ef5350" rx="1"/>
    <rect x="366" y="395" width="8" height="20" fill="#ef5350" rx="1"/>
    <rect x="391" y="397" width="8" height="18" fill="#ef5350" rx="1"/>
    <rect x="416" y="395" width="8" height="20" fill="#26a69a" rx="1"/>
    <rect x="441" y="390" width="8" height="25" fill="#26a69a" rx="1"/>
    <rect x="466" y="393" width="8" height="22" fill="#26a69a" rx="1"/>
    <rect x="491" y="395" width="8" height="20" fill="#26a69a" rx="1"/>
    <rect x="516" y="397" width="8" height="18" fill="#26a69a" rx="1"/>
    <rect x="541" y="395" width="8" height="20" fill="#26a69a" rx="1"/>
    <rect x="566" y="398" width="8" height="17" fill="#ef5350" rx="1"/>
    <rect x="591" y="400" width="8" height="15" fill="#ef5350" rx="1"/>
    <rect x="616" y="398" width="8" height="17" fill="#ef5350" rx="1"/>
    <rect x="641" y="400" width="8" height="15" fill="#26a69a" rx="1"/>
    <rect x="666" y="398" width="8" height="17" fill="#26a69a" rx="1"/>
    <rect x="691" y="395" width="8" height="20" fill="#26a69a" rx="1"/>
    <rect x="716" y="397" width="8" height="18" fill="#26a69a" rx="1"/>
  </g>

  <!-- Legend -->
  <g transform="translate(60, 445)">
    <rect width="680" height="40" rx="4" fill="#ffffff" fill-opacity="0.03"/>
    <circle cx="20" cy="20" r="4" fill="#42a5f5"/>
    <text x="30" y="24" fill="#999" font-size="9">Optimized Fast MA</text>
    <circle cx="155" cy="20" r="4" fill="#ff9800"/>
    <text x="165" y="24" fill="#999" font-size="9">Optimized Slow MA</text>
    <circle cx="300" cy="20" r="4" fill="#00e676"/>
    <text x="310" y="24" fill="#999" font-size="9">Golden Cross (Buy)</text>
    <circle cx="445" cy="20" r="4" fill="#ef5350"/>
    <text x="455" y="24" fill="#999" font-size="9">Death Cross (Exit)</text>
  </g>
</svg>