<?xml version="1.0" encoding="UTF-8"?>
<svg xmlns="http://www.w3.org/2000/svg" viewBox="0 0 800 500">
  <defs>
    <linearGradient id="bg" x1="0" y1="0" x2="0" y2="1">
      <stop offset="0%" stop-color="#1a1a2e"/>
      <stop offset="100%" stop-color="#16213e"/>
    </linearGradient>
    <filter id="glow">
      <feGaussianBlur stdDeviation="3" in="SourceGraphic" result="blur"/>
      <feMerge><feMergeNode in="blur"/><feMergeNode in="SourceGraphic"/></feMerge>
    </filter>
  </defs>
  <rect width="800" height="500" rx="8" fill="url(#bg)"/>
  <g stroke="#fff" stroke-opacity="0.04" stroke-width="1">
    <line x1="100" y1="60" x2="100" y2="400"/><line x1="200" y1="60" x2="200" y2="400"/>
    <line x1="300" y1="60" x2="300" y2="400"/><line x1="400" y1="60" x2="400" y2="400"/>
    <line x1="500" y1="60" x2="500" y2="400"/><line x1="600" y1="60" x2="600" y2="400"/>
    <line x1="700" y1="60" x2="700" y2="400"/>
    <line x1="60" y1="100" x2="750" y2="100"/><line x1="60" y1="150" x2="750" y2="150"/>
    <line x1="60" y1="200" x2="750" y2="200"/><line x1="60" y1="250" x2="750" y2="250"/>
    <line x1="60" y1="300" x2="750" y2="300"/><line x1="60" y1="350" x2="750" y2="350"/>
    <line x1="60" y1="400" x2="750" y2="400"/>
  </g>
  <text x="400" y="32" text-anchor="middle" font-family="Arial,sans-serif" font-size="17" fill="white" font-weight="bold">Rounding Bottom Scanner</text>
  <text x="400" y="50" text-anchor="middle" font-family="Arial,sans-serif" font-size="11" fill="#888">tradegrub.finance</text>
  <line x1="80" y1="150" x2="740" y2="150" stroke="#ffd700" stroke-width="1" stroke-dasharray="6,4" opacity="0.7"/>
  <text x="745" y="154" font-family="Arial,sans-serif" font-size="10" fill="#ffd700" text-anchor="start">Breakout Level</text>
  <path d="M 100,180 Q 150,220 200,270 Q 280,340 400,350 Q 520,340 600,270 Q 650,220 700,165" fill="none" stroke="#00bcd4" stroke-width="1.5" stroke-dasharray="5,4" opacity="0.7"/>
  <polyline points="80,160 120,168 160,185 200,210 240,245 280,280 320,310 360,332 400,340 440,332 480,308 520,275 560,238 600,200 640,172 680,155 710,148 730,145" fill="none" stroke="white" stroke-width="2" filter="url(#glow)"/>
  <polygon points="720,148 710,138 710,142 700,142 700,154 710,154 710,158" fill="#4caf50" opacity="0.9"/>
  <rect x="620" y="90" width="100" height="24" rx="4" fill="#4caf50" opacity="0.15"/>
  <text x="670" y="106" text-anchor="middle" font-family="Arial,sans-serif" font-size="12" fill="#4caf50" font-weight="bold">87% Complete</text>
  <g fill="#5c6bc0" opacity="0.6">
    <rect x="95" y="385" width="12" height="15"/><rect x="115" y="388" width="12" height="12"/>
    <rect x="135" y="390" width="12" height="10"/><rect x="155" y="391" width="12" height="9"/>
    <rect x="175" y="392" width="12" height="8"/><rect x="195" y="393" width="12" height="7"/>
    <rect x="215" y="394" width="12" height="6"/><rect x="235" y="395" width="12" height="5"/>
    <rect x="255" y="395" width="12" height="5"/><rect x="275" y="396" width="12" height="4"/>
    <rect x="295" y="396" width="12" height="4"/><rect x="315" y="397" width="12" height="3"/>
    <rect x="335" y="397" width="12" height="3"/><rect x="355" y="397" width="12" height="3"/>
    <rect x="375" y="397" width="12" height="3"/><rect x="395" y="397" width="12" height="3"/>
    <rect x="415" y="397" width="12" height="3"/><rect x="435" y="396" width="12" height="4"/>
    <rect x="455" y="396" width="12" height="4"/><rect x="475" y="395" width="12" height="5"/>
    <rect x="495" y="394" width="12" height="6"/><rect x="515" y="393" width="12" height="7"/>
    <rect x="535" y="391" width="12" height="9"/><rect x="555" y="389" width="12" height="11"/>
    <rect x="575" y="386" width="12" height="14"/><rect x="595" y="383" width="12" height="17"/>
    <rect x="615" y="380" width="12" height="20"/><rect x="635" y="376" width="12" height="24"/>
    <rect x="655" y="372" width="12" height="28"/><rect x="675" y="367" width="12" height="33"/>
    <rect x="695" y="362" width="12" height="38"/><rect x="715" y="356" width="12" height="44"/>
  </g>
  <rect x="0" y="440" width="800" height="60" rx="0" fill="#111827" opacity="0.7"/>
  <line x1="140" y1="468" x2="170" y2="468" stroke="white" stroke-width="2"/>
  <text x="175" y="472" font-family="Arial,sans-serif" font-size="11" fill="#ccc">Price</text>
  <line x1="250" y1="468" x2="280" y2="468" stroke="#00bcd4" stroke-width="1.5" stroke-dasharray="5,4"/>
  <text x="285" y="472" font-family="Arial,sans-serif" font-size="11" fill="#ccc">Rounding Pattern</text>
  <rect x="430" y="461" width="14" height="14" fill="#5c6bc0" opacity="0.6"/>
  <text x="450" y="472" font-family="Arial,sans-serif" font-size="11" fill="#ccc">Volume</text>
  <line x1="530" y1="468" x2="560" y2="468" stroke="#ffd700" stroke-width="1" stroke-dasharray="6,4"/>
  <text x="565" y="472" font-family="Arial,sans-serif" font-size="11" fill="#ccc">Breakout Level</text>
</svg>
