<?xml version="1.0" encoding="UTF-8"?>
<svg xmlns="http://www.w3.org/2000/svg" viewBox="0 0 800 500">
  <defs>
    <linearGradient id="bg" x1="0" y1="0" x2="0" y2="1">
      <stop offset="0%" stop-color="#1a1a2e"/>
      <stop offset="100%" stop-color="#16213e"/>
    </linearGradient>
    <filter id="glow">
      <feGaussianBlur stdDeviation="2.5" result="blur"/>
      <feMerge><feMergeNode in="blur"/><feMergeNode in="SourceGraphic"/></feMerge>
    </filter>
    <linearGradient id="arrowGreen" x1="0" y1="0" x2="0" y2="1">
      <stop offset="0%" stop-color="#4ade80" stop-opacity="0.8"/>
      <stop offset="100%" stop-color="#4ade80" stop-opacity="0.2"/>
    </linearGradient>
    <linearGradient id="arrowRed" x1="0" y1="0" x2="0" y2="1">
      <stop offset="0%" stop-color="#f87171" stop-opacity="0.8"/>
      <stop offset="100%" stop-color="#f87171" stop-opacity="0.2"/>
    </linearGradient>
  </defs>
  <rect width="800" height="500" rx="8" fill="url(#bg)"/>
  <g stroke="#ffffff" stroke-opacity="0.04" stroke-width="1">
    <line x1="0" y1="100" x2="800" y2="100"/><line x1="0" y1="200" x2="800" y2="200"/>
    <line x1="0" y1="260" x2="800" y2="260"/><line x1="0" y1="300" x2="800" y2="300"/>
    <line x1="0" y1="350" x2="800" y2="350"/><line x1="0" y1="400" x2="800" y2="400"/>
    <line x1="100" y1="0" x2="100" y2="500"/><line x1="200" y1="0" x2="200" y2="500"/>
    <line x1="300" y1="0" x2="300" y2="500"/><line x1="400" y1="0" x2="400" y2="500"/>
    <line x1="500" y1="0" x2="500" y2="500"/><line x1="600" y1="0" x2="600" y2="500"/>
    <line x1="700" y1="0" x2="700" y2="500"/>
  </g>
  <text x="400" y="30" text-anchor="middle" fill="#e2e8f0" font-family="Arial,sans-serif" font-size="17" font-weight="bold">Bar Shape Oscillator</text>
  <text x="400" y="46" text-anchor="middle" fill="#64748b" font-family="Arial,sans-serif" font-size="11">tradegrub.finance</text>
  <line x1="60" y1="260" x2="740" y2="260" stroke="#475569" stroke-width="0.5" stroke-dasharray="4,3"/>
  <text x="55" y="264" text-anchor="end" fill="#475569" font-family="Arial,sans-serif" font-size="9">0</text>
  <text x="770" y="140" text-anchor="end" fill="#475569" font-family="Arial,sans-serif" font-size="9" opacity="0.6">CANDLES</text>
  <text x="770" y="340" text-anchor="end" fill="#475569" font-family="Arial,sans-serif" font-size="9" opacity="0.6">OSCILLATOR</text>
  <!-- Candle 1: Bullish Marubozu -->
  <g filter="url(#glow)">
    <rect x="108" y="100" width="14" height="70" fill="#4ade80" rx="1"/>
  </g>
  <line x1="115" y1="175" x2="115" y2="270" stroke="url(#arrowGreen)" stroke-width="1.5" stroke-dasharray="3,2"/>
  <polygon points="115,278 111,270 119,270" fill="#4ade80" opacity="0.7"/>
  <rect x="108" y="280" width="14" height="80" fill="#4ade80" opacity="0.8" rx="1"/>
  <!-- Candle 2: Bearish Engulfing -->
  <g filter="url(#glow)">
    <line x1="170" y1="90" x2="170" y2="210" stroke="#f87171" stroke-width="1.5"/>
    <rect x="161" y="105" width="18" height="85" fill="#f87171" rx="1"/>
  </g>
  <line x1="170" y1="215" x2="170" y2="270" stroke="url(#arrowRed)" stroke-width="1.5" stroke-dasharray="3,2"/>
  <polygon points="170,278 166,270 174,270" fill="#f87171" opacity="0.7"/>
  <rect x="163" y="260" width="14" height="75" fill="#f87171" opacity="0.8" rx="1"/>
  <!-- Candle 3: Doji -->
  <g filter="url(#glow)">
    <line x1="225" y1="95" x2="225" y2="200" stroke="#94a3b8" stroke-width="1.5"/>
    <rect x="218" y="145" width="14" height="3" fill="#94a3b8" rx="1"/>
  </g>
  <line x1="225" y1="205" x2="225" y2="270" stroke="#94a3b8" stroke-width="1.5" stroke-dasharray="3,2" opacity="0.4"/>
  <polygon points="225,278 221,270 229,270" fill="#94a3b8" opacity="0.5"/>
  <rect x="218" y="255" width="14" height="10" fill="#94a3b8" opacity="0.5" rx="1"/>
  <!-- Candle 4: Hammer (Bullish) -->
  <g filter="url(#glow)">
    <line x1="280" y1="110" x2="280" y2="210" stroke="#4ade80" stroke-width="1.5"/>
    <rect x="273" y="110" width="14" height="25" fill="#4ade80" rx="1"/>
  </g>
  <line x1="280" y1="215" x2="280" y2="270" stroke="url(#arrowGreen)" stroke-width="1.5" stroke-dasharray="3,2"/>
  <polygon points="280,278 276,270 284,270" fill="#4ade80" opacity="0.7"/>
  <rect x="273" y="280" width="14" height="60" fill="#4ade80" opacity="0.8" rx="1"/>
  <!-- Candle 5: Bearish Marubozu -->
  <g filter="url(#glow)">
    <rect x="326" y="95" width="14" height="75" fill="#f87171" rx="1"/>
  </g>
  <line x1="333" y1="175" x2="333" y2="270" stroke="url(#arrowRed)" stroke-width="1.5" stroke-dasharray="3,2"/>
  <polygon points="333,278 329,270 337,270" fill="#f87171" opacity="0.7"/>
  <rect x="326" y="260" width="14" height="85" fill="#f87171" opacity="0.8" rx="1"/>
  <!-- Candle 6: Spinning Top (Bullish) -->
  <g filter="url(#glow)">
    <line x1="388" y1="100" x2="388" y2="205" stroke="#4ade80" stroke-width="1.5"/>
    <rect x="381" y="140" width="14" height="18" fill="#4ade80" rx="1"/>
  </g>
  <line x1="388" y1="210" x2="388" y2="270" stroke="url(#arrowGreen)" stroke-width="1.5" stroke-dasharray="3,2"/>
  <polygon points="388,278 384,270 392,270" fill="#4ade80" opacity="0.7"/>
  <rect x="381" y="240" width="14" height="20" fill="#4ade80" opacity="0.6" rx="1"/>
  <!-- Candle 7: Shooting Star (Bearish) -->
  <g filter="url(#glow)">
    <line x1="443" y1="80" x2="443" y2="200" stroke="#f87171" stroke-width="1.5"/>
    <rect x="436" y="170" width="14" height="25" fill="#f87171" rx="1"/>
  </g>
  <line x1="443" y1="205" x2="443" y2="270" stroke="url(#arrowRed)" stroke-width="1.5" stroke-dasharray="3,2"/>
  <polygon points="443,278 439,270 447,270" fill="#f87171" opacity="0.7"/>
  <rect x="436" y="260" width="14" height="55" fill="#f87171" opacity="0.8" rx="1"/>
  <!-- Candle 8: Bullish Engulfing -->
  <g filter="url(#glow)">
    <line x1="498" y1="90" x2="498" y2="195" stroke="#4ade80" stroke-width="1.5"/>
    <rect x="489" y="100" width="18" height="80" fill="#4ade80" rx="1"/>
  </g>
  <line x1="498" y1="200" x2="498" y2="270" stroke="url(#arrowGreen)" stroke-width="1.5" stroke-dasharray="3,2"/>
  <polygon points="498,278 494,270 502,270" fill="#4ade80" opacity="0.7"/>
  <rect x="491" y="280" width="14" height="70" fill="#4ade80" opacity="0.8" rx="1"/>
  <!-- Candle 9: Inverted Hammer (Bullish) -->
  <g filter="url(#glow)">
    <line x1="553" y1="85" x2="553" y2="195" stroke="#4ade80" stroke-width="1.5"/>
    <rect x="546" y="170" width="14" height="20" fill="#4ade80" rx="1"/>
  </g>
  <line x1="553" y1="200" x2="553" y2="270" stroke="url(#arrowGreen)" stroke-width="1.5" stroke-dasharray="3,2"/>
  <polygon points="553,278 549,270 557,270" fill="#4ade80" opacity="0.7"/>
  <rect x="546" y="240" width="14" height="35" fill="#4ade80" opacity="0.7" rx="1"/>
  <!-- Candle 10: Hanging Man (Bearish) -->
  <g filter="url(#glow)">
    <line x1="608" y1="105" x2="608" y2="215" stroke="#f87171" stroke-width="1.5"/>
    <rect x="601" y="105" width="14" height="22" fill="#f87171" rx="1"/>
  </g>
  <line x1="608" y1="220" x2="608" y2="270" stroke="url(#arrowRed)" stroke-width="1.5" stroke-dasharray="3,2"/>
  <polygon points="608,278 604,270 612,270" fill="#f87171" opacity="0.7"/>
  <rect x="601" y="260" width="14" height="50" fill="#f87171" opacity="0.8" rx="1"/>
  <!-- Candle 11: Gravestone Doji (Bearish) -->
  <g filter="url(#glow)">
    <line x1="663" y1="85" x2="663" y2="190" stroke="#f87171" stroke-width="1.5"/>
    <rect x="656" y="187" width="14" height="3" fill="#f87171" rx="1"/>
  </g>
  <line x1="663" y1="195" x2="663" y2="270" stroke="url(#arrowRed)" stroke-width="1.5" stroke-dasharray="3,2"/>
  <polygon points="663,278 659,270 667,270" fill="#f87171" opacity="0.7"/>
  <rect x="656" y="260" width="14" height="45" fill="#f87171" opacity="0.8" rx="1"/>
  <!-- Candle 12: Dragonfly Doji (Bullish) -->
  <g filter="url(#glow)">
    <line x1="718" y1="110" x2="718" y2="210" stroke="#4ade80" stroke-width="1.5"/>
    <rect x="711" y="110" width="14" height="3" fill="#4ade80" rx="1"/>
  </g>
  <line x1="718" y1="215" x2="718" y2="270" stroke="url(#arrowGreen)" stroke-width="1.5" stroke-dasharray="3,2"/>
  <polygon points="718,278 714,270 722,270" fill="#4ade80" opacity="0.7"/>
  <rect x="711" y="240" width="14" height="40" fill="#4ade80" opacity="0.7" rx="1"/>
  <!-- Shape labels -->
  <text x="115" y="235" text-anchor="middle" fill="#94a3b8" font-family="Arial,sans-serif" font-size="7" opacity="0.7">Marubozu</text>
  <text x="170" y="235" text-anchor="middle" fill="#94a3b8" font-family="Arial,sans-serif" font-size="7" opacity="0.7">Engulf</text>
  <text x="225" y="235" text-anchor="middle" fill="#94a3b8" font-family="Arial,sans-serif" font-size="7" opacity="0.7">Doji</text>
  <text x="280" y="235" text-anchor="middle" fill="#94a3b8" font-family="Arial,sans-serif" font-size="7" opacity="0.7">Hammer</text>
  <text x="333" y="235" text-anchor="middle" fill="#94a3b8" font-family="Arial,sans-serif" font-size="7" opacity="0.7">Marubozu</text>
  <text x="388" y="235" text-anchor="middle" fill="#94a3b8" font-family="Arial,sans-serif" font-size="7" opacity="0.7">Spin Top</text>
  <text x="443" y="235" text-anchor="middle" fill="#94a3b8" font-family="Arial,sans-serif" font-size="7" opacity="0.7">Shoot Star</text>
  <text x="498" y="235" text-anchor="middle" fill="#94a3b8" font-family="Arial,sans-serif" font-size="7" opacity="0.7">Engulf</text>
  <text x="553" y="235" text-anchor="middle" fill="#94a3b8" font-family="Arial,sans-serif" font-size="7" opacity="0.7">Inv Hammer</text>
  <text x="608" y="235" text-anchor="middle" fill="#94a3b8" font-family="Arial,sans-serif" font-size="7" opacity="0.7">Hang Man</text>
  <text x="663" y="235" text-anchor="middle" fill="#94a3b8" font-family="Arial,sans-serif" font-size="7" opacity="0.7">Gravestone</text>
  <text x="718" y="235" text-anchor="middle" fill="#94a3b8" font-family="Arial,sans-serif" font-size="7" opacity="0.7">Dragonfly</text>
  <text x="400" y="430" text-anchor="middle" fill="#64748b" font-family="Arial,sans-serif" font-size="9" opacity="0.6">Shape-derived values — no amplitude bias</text>
  <!-- Legend -->
  <g transform="translate(200,455)">
    <circle cx="0" cy="-4" r="5" fill="#4ade80"/>
    <text x="10" y="0" fill="#cbd5e1" font-family="Arial,sans-serif" font-size="11">Bullish Shape</text>
    <circle cx="130" cy="-4" r="5" fill="#f87171"/>
    <text x="140" y="0" fill="#cbd5e1" font-family="Arial,sans-serif" font-size="11">Bearish Shape</text>
    <circle cx="260" cy="-4" r="5" fill="#94a3b8"/>
    <text x="270" y="0" fill="#cbd5e1" font-family="Arial,sans-serif" font-size="11">Neutral (Doji)</text>
  </g>
</svg>
