<svg xmlns="http://www.w3.org/2000/svg" viewBox="0 0 800 500">
  <defs>
    <linearGradient id="bg" x1="0" y1="0" x2="0" y2="1">
      <stop offset="0%" stop-color="#1a1a2e"/>
      <stop offset="100%" stop-color="#16213e"/>
    </linearGradient>
  </defs>
  <rect width="800" height="500" fill="url(#bg)" rx="8"/>
  <text x="400" y="35" text-anchor="middle" fill="#e0e0e0" font-family="Inter,sans-serif" font-size="18" font-weight="600">Principal Component Indicator</text>
  <text x="400" y="55" text-anchor="middle" fill="#666" font-family="Inter,sans-serif" font-size="11">tradegrub.finance</text>

  <rect x="60" y="70" width="700" height="140" fill="rgba(255,255,255,0.02)" rx="4"/>
  <text x="70" y="88" fill="#888" font-family="Inter,sans-serif" font-size="10">Price</text>
  <line x1="100" y1="155" x2="100" y2="185" stroke="#555" stroke-width="1"/><rect x="96" y="158" width="8" height="18" fill="#4CAF50" rx="1"/>
  <line x1="150" y1="145" x2="150" y2="178" stroke="#555" stroke-width="1"/><rect x="146" y="148" width="8" height="20" fill="#4CAF50" rx="1"/>
  <line x1="200" y1="135" x2="200" y2="170" stroke="#555" stroke-width="1"/><rect x="196" y="138" width="8" height="22" fill="#4CAF50" rx="1"/>
  <line x1="250" y1="128" x2="250" y2="162" stroke="#555" stroke-width="1"/><rect x="246" y="131" width="8" height="20" fill="#4CAF50" rx="1"/>
  <line x1="300" y1="130" x2="300" y2="165" stroke="#555" stroke-width="1"/><rect x="296" y="140" width="8" height="18" fill="#f44336" rx="1"/>
  <line x1="350" y1="138" x2="350" y2="172" stroke="#555" stroke-width="1"/><rect x="346" y="145" width="8" height="20" fill="#f44336" rx="1"/>
  <line x1="400" y1="145" x2="400" y2="178" stroke="#555" stroke-width="1"/><rect x="396" y="152" width="8" height="18" fill="#f44336" rx="1"/>
  <line x1="450" y1="140" x2="450" y2="175" stroke="#555" stroke-width="1"/><rect x="446" y="143" width="8" height="22" fill="#4CAF50" rx="1"/>
  <line x1="500" y1="130" x2="500" y2="165" stroke="#555" stroke-width="1"/><rect x="496" y="133" width="8" height="22" fill="#4CAF50" rx="1"/>
  <line x1="550" y1="120" x2="550" y2="155" stroke="#555" stroke-width="1"/><rect x="546" y="123" width="8" height="22" fill="#4CAF50" rx="1"/>
  <line x1="600" y1="112" x2="600" y2="148" stroke="#555" stroke-width="1"/><rect x="596" y="115" width="8" height="22" fill="#4CAF50" rx="1"/>
  <line x1="650" y1="105" x2="650" y2="142" stroke="#555" stroke-width="1"/><rect x="646" y="108" width="8" height="22" fill="#4CAF50" rx="1"/>
  <line x1="700" y1="100" x2="700" y2="138" stroke="#555" stroke-width="1"/><rect x="696" y="103" width="8" height="24" fill="#4CAF50" rx="1"/>

  <!-- PC1 subplot -->
  <rect x="60" y="230" width="700" height="200" fill="rgba(255,255,255,0.02)" rx="4"/>
  <text x="70" y="248" fill="#888" font-family="Inter,sans-serif" font-size="10">PC1 Factor</text>

  <rect x="60" y="230" width="230" height="45" fill="rgba(76,175,80,0.07)"/>
  <rect x="440" y="230" width="320" height="45" fill="rgba(76,175,80,0.07)"/>
  <rect x="310" y="385" width="150" height="45" fill="rgba(244,67,54,0.07)"/>

  <line x1="60" y1="275" x2="760" y2="275" stroke="#4CAF50" stroke-width="1" stroke-dasharray="5,4" opacity="0.5"/>
  <text x="765" y="279" fill="#4CAF50" font-family="Inter,sans-serif" font-size="9">+20</text>
  <line x1="60" y1="330" x2="760" y2="330" stroke="#888" stroke-width="1" stroke-dasharray="5,4" opacity="0.3"/>
  <line x1="60" y1="385" x2="760" y2="385" stroke="#f44336" stroke-width="1" stroke-dasharray="5,4" opacity="0.5"/>
  <text x="765" y="389" fill="#f44336" font-family="Inter,sans-serif" font-size="9">-20</text>

  <!-- PC1 line (cyan) -->
  <polyline points="100,270 150,262 200,258 250,268 300,295 350,340 400,385 450,395 500,365 550,310 600,272 650,260 700,252"
    fill="none" stroke="#26c6da" stroke-width="2.5"/>

  <!-- Variance explained (orange) -->
  <polyline points="100,310 150,305 200,298 250,295 300,300 350,308 400,302 450,296 500,292 550,288 600,285 650,282 700,280"
    fill="none" stroke="#ff9800" stroke-width="1.5" opacity="0.6"/>
  <text x="710" y="275" fill="#ff9800" font-family="Inter,sans-serif" font-size="9" opacity="0.7">Var%</text>

  <rect x="60" y="455" width="700" height="30" fill="rgba(255,255,255,0.03)" rx="4"/>
  <line x1="80" y1="470" x2="100" y2="470" stroke="#26c6da" stroke-width="2.5"/>
  <text x="105" y="474" fill="#ccc" font-family="Inter,sans-serif" font-size="11">PC1 Factor</text>
  <line x1="220" y1="470" x2="240" y2="470" stroke="#ff9800" stroke-width="1.5"/>
  <text x="245" y="474" fill="#ccc" font-family="Inter,sans-serif" font-size="11">Variance %</text>
  <line x1="370" y1="470" x2="390" y2="470" stroke="#4CAF50" stroke-width="1" stroke-dasharray="4,3"/>
  <text x="395" y="474" fill="#ccc" font-family="Inter,sans-serif" font-size="11">Bullish</text>
  <line x1="470" y1="470" x2="490" y2="470" stroke="#f44336" stroke-width="1" stroke-dasharray="4,3"/>
  <text x="495" y="474" fill="#ccc" font-family="Inter,sans-serif" font-size="11">Bearish</text>
</svg>
