<svg xmlns="http://www.w3.org/2000/svg" viewBox="0 0 800 500">
  <defs>
    <linearGradient id="bg" x1="0" y1="0" x2="0" y2="1">
      <stop offset="0%" stop-color="#1a1a2e"/>
      <stop offset="100%" stop-color="#16213e"/>
    </linearGradient>
  </defs>
  <rect width="800" height="500" fill="url(#bg)" rx="8"/>
  <text x="400" y="35" text-anchor="middle" fill="#e0e0e0" font-family="Inter,sans-serif" font-size="18" font-weight="600">Gradient Boosted Signals</text>
  <text x="400" y="55" text-anchor="middle" fill="#666" font-family="Inter,sans-serif" font-size="11">tradegrub.finance</text>

  <rect x="60" y="70" width="700" height="150" fill="rgba(255,255,255,0.02)" rx="4"/>
  <text x="70" y="88" fill="#888" font-family="Inter,sans-serif" font-size="10">Price</text>
  <line x1="100" y1="160" x2="100" y2="190" stroke="#555" stroke-width="1"/><rect x="96" y="163" width="8" height="18" fill="#4CAF50" rx="1"/>
  <line x1="150" y1="150" x2="150" y2="182" stroke="#555" stroke-width="1"/><rect x="146" y="153" width="8" height="20" fill="#4CAF50" rx="1"/>
  <line x1="200" y1="140" x2="200" y2="175" stroke="#555" stroke-width="1"/><rect x="196" y="143" width="8" height="22" fill="#4CAF50" rx="1"/>
  <line x1="250" y1="135" x2="250" y2="168" stroke="#555" stroke-width="1"/><rect x="246" y="138" width="8" height="20" fill="#4CAF50" rx="1"/>
  <line x1="300" y1="140" x2="300" y2="172" stroke="#555" stroke-width="1"/><rect x="296" y="148" width="8" height="18" fill="#f44336" rx="1"/>
  <line x1="350" y1="148" x2="350" y2="180" stroke="#555" stroke-width="1"/><rect x="346" y="155" width="8" height="18" fill="#f44336" rx="1"/>
  <line x1="400" y1="155" x2="400" y2="188" stroke="#555" stroke-width="1"/><rect x="396" y="162" width="8" height="18" fill="#f44336" rx="1"/>
  <line x1="450" y1="150" x2="450" y2="182" stroke="#555" stroke-width="1"/><rect x="446" y="153" width="8" height="18" fill="#4CAF50" rx="1"/>
  <line x1="500" y1="142" x2="500" y2="175" stroke="#555" stroke-width="1"/><rect x="496" y="145" width="8" height="20" fill="#4CAF50" rx="1"/>
  <line x1="550" y1="133" x2="550" y2="168" stroke="#555" stroke-width="1"/><rect x="546" y="136" width="8" height="22" fill="#4CAF50" rx="1"/>
  <line x1="600" y1="125" x2="600" y2="160" stroke="#555" stroke-width="1"/><rect x="596" y="128" width="8" height="22" fill="#4CAF50" rx="1"/>
  <line x1="650" y1="118" x2="650" y2="152" stroke="#555" stroke-width="1"/><rect x="646" y="121" width="8" height="20" fill="#4CAF50" rx="1"/>
  <line x1="700" y1="112" x2="700" y2="148" stroke="#555" stroke-width="1"/><rect x="696" y="115" width="8" height="22" fill="#4CAF50" rx="1"/>

  <!-- Signal subplot -->
  <rect x="60" y="240" width="700" height="190" fill="rgba(255,255,255,0.02)" rx="4"/>
  <text x="70" y="258" fill="#888" font-family="Inter,sans-serif" font-size="10">Signal Score</text>

  <rect x="60" y="240" width="240" height="50" fill="rgba(76,175,80,0.07)"/>
  <rect x="440" y="240" width="320" height="50" fill="rgba(76,175,80,0.07)"/>
  <rect x="320" y="385" width="150" height="45" fill="rgba(244,67,54,0.07)"/>

  <line x1="60" y1="290" x2="760" y2="290" stroke="#4CAF50" stroke-width="1" stroke-dasharray="5,4" opacity="0.5"/>
  <text x="765" y="294" fill="#4CAF50" font-family="Inter,sans-serif" font-size="9">60</text>
  <line x1="60" y1="335" x2="760" y2="335" stroke="#888" stroke-width="1" stroke-dasharray="5,4" opacity="0.3"/>
  <text x="765" y="339" fill="#888" font-family="Inter,sans-serif" font-size="9">50</text>
  <line x1="60" y1="385" x2="760" y2="385" stroke="#f44336" stroke-width="1" stroke-dasharray="5,4" opacity="0.5"/>
  <text x="765" y="389" fill="#f44336" font-family="Inter,sans-serif" font-size="9">40</text>

  <polyline points="100,275 150,268 200,262 250,270 300,295 350,330 400,375 450,390 500,355 550,305 600,278 650,265 700,260"
    fill="none" stroke="#ff6f00" stroke-width="2.5"/>

  <!-- Feature labels -->
  <rect x="100" y="75" width="50" height="16" fill="rgba(66,165,245,0.2)" rx="3"/>
  <text x="125" y="86" text-anchor="middle" fill="#42a5f5" font-family="Inter,sans-serif" font-size="8">RSI</text>
  <rect x="170" y="75" width="50" height="16" fill="rgba(171,71,188,0.2)" rx="3"/>
  <text x="195" y="86" text-anchor="middle" fill="#ab47bc" font-family="Inter,sans-serif" font-size="8">MACD</text>
  <rect x="240" y="75" width="50" height="16" fill="rgba(255,167,38,0.2)" rx="3"/>
  <text x="265" y="86" text-anchor="middle" fill="#ffa726" font-family="Inter,sans-serif" font-size="8">BB Pos</text>
  <rect x="310" y="75" width="50" height="16" fill="rgba(38,198,218,0.2)" rx="3"/>
  <text x="335" y="86" text-anchor="middle" fill="#26c6da" font-family="Inter,sans-serif" font-size="8">Vol</text>
  <rect x="380" y="75" width="50" height="16" fill="rgba(239,83,80,0.2)" rx="3"/>
  <text x="405" y="86" text-anchor="middle" fill="#ef5350" font-family="Inter,sans-serif" font-size="8">ATR</text>

  <rect x="60" y="455" width="700" height="30" fill="rgba(255,255,255,0.03)" rx="4"/>
  <line x1="80" y1="470" x2="100" y2="470" stroke="#ff6f00" stroke-width="2.5"/>
  <text x="105" y="474" fill="#ccc" font-family="Inter,sans-serif" font-size="11">Signal Score</text>
  <line x1="230" y1="470" x2="250" y2="470" stroke="#4CAF50" stroke-width="1" stroke-dasharray="4,3"/>
  <text x="255" y="474" fill="#ccc" font-family="Inter,sans-serif" font-size="11">Bullish (60)</text>
  <line x1="370" y1="470" x2="390" y2="470" stroke="#f44336" stroke-width="1" stroke-dasharray="4,3"/>
  <text x="395" y="474" fill="#ccc" font-family="Inter,sans-serif" font-size="11">Bearish (40)</text>
</svg>
