<svg xmlns="http://www.w3.org/2000/svg" viewBox="0 0 800 500" font-family="Inter, system-ui, sans-serif">
  <defs>
    <linearGradient id="bg" x1="0" y1="0" x2="0" y2="1">
      <stop offset="0%" stop-color="#1a1a2e"/>
      <stop offset="100%" stop-color="#16213e"/>
    </linearGradient>
    <filter id="glow">
      <feGaussianBlur stdDeviation="3" result="blur"/>
      <feMerge><feMergeNode in="blur"/><feMergeNode in="SourceGraphic"/></feMerge>
    </filter>
    <filter id="softGlow">
      <feGaussianBlur stdDeviation="2" result="blur"/>
      <feMerge><feMergeNode in="blur"/><feMergeNode in="SourceGraphic"/></feMerge>
    </filter>
  </defs>

  <rect width="800" height="500" fill="url(#bg)" rx="8"/>

  <g stroke="#ffffff" stroke-opacity="0.04" stroke-width="1">
    <line x1="80" y1="60" x2="80" y2="420"/><line x1="200" y1="60" x2="200" y2="420"/>
    <line x1="320" y1="60" x2="320" y2="420"/><line x1="440" y1="60" x2="440" y2="420"/>
    <line x1="560" y1="60" x2="560" y2="420"/><line x1="680" y1="60" x2="680" y2="420"/>
    <line x1="60" y1="100" x2="760" y2="100"/><line x1="60" y1="180" x2="760" y2="180"/>
    <line x1="60" y1="260" x2="760" y2="260"/><line x1="60" y1="340" x2="760" y2="340"/>
  </g>

  <text x="400" y="30" text-anchor="middle" fill="#e0e0e0" font-size="16" font-weight="600">Adaptive SAR Strategy</text>
  <text x="400" y="48" text-anchor="middle" fill="#888" font-size="11">tradegrub.finance</text>

  <!-- Candlesticks - downtrend then uptrend then downtrend -->
  <line x1="95" y1="155" x2="95" y2="195" stroke="#ef5350" stroke-width="1"/>
  <rect x="91" y="162" width="8" height="22" fill="#ef5350" rx="1"/>
  <line x1="120" y1="165" x2="120" y2="205" stroke="#ef5350" stroke-width="1"/>
  <rect x="116" y="172" width="8" height="22" fill="#ef5350" rx="1"/>
  <line x1="145" y1="175" x2="145" y2="218" stroke="#ef5350" stroke-width="1"/>
  <rect x="141" y="185" width="8" height="25" fill="#ef5350" rx="1"/>
  <line x1="170" y1="188" x2="170" y2="230" stroke="#ef5350" stroke-width="1"/>
  <rect x="166" y="198" width="8" height="22" fill="#ef5350" rx="1"/>
  <line x1="195" y1="200" x2="195" y2="245" stroke="#ef5350" stroke-width="1"/>
  <rect x="191" y="210" width="8" height="25" fill="#ef5350" rx="1"/>
  <line x1="220" y1="215" x2="220" y2="258" stroke="#ef5350" stroke-width="1"/>
  <rect x="216" y="225" width="8" height="22" fill="#ef5350" rx="1"/>
  <line x1="245" y1="228" x2="245" y2="272" stroke="#ef5350" stroke-width="1"/>
  <rect x="241" y="238" width="8" height="25" fill="#ef5350" rx="1"/>
  <line x1="270" y1="240" x2="270" y2="280" stroke="#ef5350" stroke-width="1"/>
  <rect x="266" y="248" width="8" height="22" fill="#ef5350" rx="1"/>
  <line x1="295" y1="250" x2="295" y2="290" stroke="#ef5350" stroke-width="1"/>
  <rect x="291" y="258" width="8" height="22" fill="#ef5350" rx="1"/>
  <line x1="320" y1="248" x2="320" y2="285" stroke="#26a69a" stroke-width="1"/>
  <rect x="316" y="255" width="8" height="20" fill="#26a69a" rx="1"/>
  <line x1="345" y1="235" x2="345" y2="272" stroke="#26a69a" stroke-width="1"/>
  <rect x="341" y="242" width="8" height="20" fill="#26a69a" rx="1"/>
  <line x1="370" y1="220" x2="370" y2="258" stroke="#26a69a" stroke-width="1"/>
  <rect x="366" y="228" width="8" height="20" fill="#26a69a" rx="1"/>
  <line x1="395" y1="205" x2="395" y2="242" stroke="#26a69a" stroke-width="1"/>
  <rect x="391" y="212" width="8" height="20" fill="#26a69a" rx="1"/>
  <line x1="420" y1="188" x2="420" y2="225" stroke="#26a69a" stroke-width="1"/>
  <rect x="416" y="195" width="8" height="20" fill="#26a69a" rx="1"/>
  <line x1="445" y1="172" x2="445" y2="210" stroke="#26a69a" stroke-width="1"/>
  <rect x="441" y="180" width="8" height="20" fill="#26a69a" rx="1"/>
  <line x1="470" y1="158" x2="470" y2="195" stroke="#26a69a" stroke-width="1"/>
  <rect x="466" y="165" width="8" height="20" fill="#26a69a" rx="1"/>
  <line x1="495" y1="145" x2="495" y2="182" stroke="#26a69a" stroke-width="1"/>
  <rect x="491" y="152" width="8" height="20" fill="#26a69a" rx="1"/>
  <line x1="520" y1="135" x2="520" y2="172" stroke="#26a69a" stroke-width="1"/>
  <rect x="516" y="142" width="8" height="20" fill="#26a69a" rx="1"/>
  <line x1="545" y1="128" x2="545" y2="165" stroke="#26a69a" stroke-width="1"/>
  <rect x="541" y="135" width="8" height="20" fill="#26a69a" rx="1"/>
  <line x1="570" y1="125" x2="570" y2="162" stroke="#ef5350" stroke-width="1"/>
  <rect x="566" y="130" width="8" height="22" fill="#ef5350" rx="1"/>
  <line x1="595" y1="132" x2="595" y2="172" stroke="#ef5350" stroke-width="1"/>
  <rect x="591" y="140" width="8" height="22" fill="#ef5350" rx="1"/>
  <line x1="620" y1="142" x2="620" y2="182" stroke="#ef5350" stroke-width="1"/>
  <rect x="616" y="150" width="8" height="22" fill="#ef5350" rx="1"/>
  <line x1="645" y1="155" x2="645" y2="195" stroke="#ef5350" stroke-width="1"/>
  <rect x="641" y="162" width="8" height="22" fill="#ef5350" rx="1"/>
  <line x1="670" y1="165" x2="670" y2="205" stroke="#ef5350" stroke-width="1"/>
  <rect x="666" y="172" width="8" height="22" fill="#ef5350" rx="1"/>
  <line x1="695" y1="175" x2="695" y2="215" stroke="#ef5350" stroke-width="1"/>
  <rect x="691" y="182" width="8" height="22" fill="#ef5350" rx="1"/>
  <line x1="720" y1="185" x2="720" y2="225" stroke="#ef5350" stroke-width="1"/>
  <rect x="716" y="192" width="8" height="22" fill="#ef5350" rx="1"/>

  <!-- SAR dots above price (bearish) - getting closer to price -->
  <circle cx="95" cy="142" r="3.5" fill="#ff9800" opacity="0.9"/>
  <circle cx="120" cy="148" r="3.5" fill="#ff9800" opacity="0.9"/>
  <circle cx="145" cy="158" r="3.5" fill="#ff9800" opacity="0.9"/>
  <circle cx="170" cy="172" r="3.5" fill="#ff9800" opacity="0.9"/>
  <circle cx="195" cy="188" r="3.5" fill="#ff9800" opacity="0.9"/>
  <circle cx="220" cy="205" r="3.5" fill="#ff9800" opacity="0.9"/>
  <circle cx="245" cy="222" r="3.5" fill="#ff9800" opacity="0.9"/>
  <circle cx="270" cy="235" r="3.5" fill="#ff9800" opacity="0.9"/>
  <circle cx="295" cy="245" r="3.5" fill="#ff9800" opacity="0.9"/>

  <!-- SAR dots below price (bullish) - acceleration visible -->
  <circle cx="320" cy="292" r="3.5" fill="#26a69a" opacity="0.9"/>
  <circle cx="345" cy="282" r="3.5" fill="#26a69a" opacity="0.9"/>
  <circle cx="370" cy="268" r="3.5" fill="#26a69a" opacity="0.9"/>
  <circle cx="395" cy="252" r="3.5" fill="#26a69a" opacity="0.9"/>
  <circle cx="420" cy="235" r="3.5" fill="#26a69a" opacity="0.9"/>
  <circle cx="445" cy="218" r="3.5" fill="#26a69a" opacity="0.9"/>
  <circle cx="470" cy="200" r="3.5" fill="#26a69a" opacity="0.9"/>
  <circle cx="495" cy="185" r="3.5" fill="#26a69a" opacity="0.9"/>
  <circle cx="520" cy="172" r="3.5" fill="#26a69a" opacity="0.9"/>
  <circle cx="545" cy="165" r="3.5" fill="#26a69a" opacity="0.9"/>

  <!-- SAR dots above price again (bearish) -->
  <circle cx="570" cy="115" r="3.5" fill="#ff9800" opacity="0.9"/>
  <circle cx="595" cy="122" r="3.5" fill="#ff9800" opacity="0.9"/>
  <circle cx="620" cy="132" r="3.5" fill="#ff9800" opacity="0.9"/>
  <circle cx="645" cy="145" r="3.5" fill="#ff9800" opacity="0.9"/>
  <circle cx="670" cy="158" r="3.5" fill="#ff9800" opacity="0.9"/>
  <circle cx="695" cy="170" r="3.5" fill="#ff9800" opacity="0.9"/>
  <circle cx="720" cy="180" r="3.5" fill="#ff9800" opacity="0.9"/>

  <!-- BUY signal - SAR flips from above to below at x=320 -->
  <circle cx="320" cy="255" r="8" fill="none" stroke="#00e676" stroke-width="2" filter="url(#glow)"/>
  <g filter="url(#softGlow)">
    <polygon points="318,225 328,225 323,212" fill="#00e676"/>
  </g>
  <rect x="332" y="208" width="65" height="22" rx="4" fill="#00e676" fill-opacity="0.15" stroke="#00e676" stroke-width="1" stroke-opacity="0.4"/>
  <text x="364" y="223" text-anchor="middle" fill="#00e676" font-size="11" font-weight="600">BUY</text>
  <text x="323" y="305" text-anchor="middle" fill="#00e676" font-size="8">SAR Flip</text>

  <!-- EXIT signal - SAR flips from below to above at x=570 -->
  <circle cx="570" cy="130" r="8" fill="none" stroke="#ef5350" stroke-width="2" filter="url(#glow)"/>
  <g filter="url(#softGlow)">
    <polygon points="568,168 578,168 573,181" fill="#ef5350"/>
  </g>
  <rect x="530" y="175" width="65" height="22" rx="4" fill="#ef5350" fill-opacity="0.15" stroke="#ef5350" stroke-width="1" stroke-opacity="0.4"/>
  <text x="562" y="190" text-anchor="middle" fill="#ef5350" font-size="11" font-weight="600">EXIT</text>
  <text x="573" y="108" text-anchor="middle" fill="#ef5350" font-size="8">SAR Flip</text>

  <!-- Volume bars -->
  <g opacity="0.4">
    <rect x="91" y="400" width="8" height="15" fill="#ef5350" rx="1"/>
    <rect x="116" y="397" width="8" height="18" fill="#ef5350" rx="1"/>
    <rect x="141" y="395" width="8" height="20" fill="#ef5350" rx="1"/>
    <rect x="166" y="398" width="8" height="17" fill="#ef5350" rx="1"/>
    <rect x="191" y="400" width="8" height="15" fill="#ef5350" rx="1"/>
    <rect x="216" y="397" width="8" height="18" fill="#ef5350" rx="1"/>
    <rect x="241" y="395" width="8" height="20" fill="#ef5350" rx="1"/>
    <rect x="266" y="398" width="8" height="17" fill="#ef5350" rx="1"/>
    <rect x="291" y="400" width="8" height="15" fill="#ef5350" rx="1"/>
    <rect x="316" y="388" width="8" height="27" fill="#26a69a" rx="1"/>
    <rect x="341" y="393" width="8" height="22" fill="#26a69a" rx="1"/>
    <rect x="366" y="395" width="8" height="20" fill="#26a69a" rx="1"/>
    <rect x="391" y="397" width="8" height="18" fill="#26a69a" rx="1"/>
    <rect x="416" y="395" width="8" height="20" fill="#26a69a" rx="1"/>
    <rect x="441" y="393" width="8" height="22" fill="#26a69a" rx="1"/>
    <rect x="466" y="395" width="8" height="20" fill="#26a69a" rx="1"/>
    <rect x="491" y="397" width="8" height="18" fill="#26a69a" rx="1"/>
    <rect x="516" y="395" width="8" height="20" fill="#26a69a" rx="1"/>
    <rect x="541" y="393" width="8" height="22" fill="#26a69a" rx="1"/>
    <rect x="566" y="390" width="8" height="25" fill="#ef5350" rx="1"/>
    <rect x="591" y="395" width="8" height="20" fill="#ef5350" rx="1"/>
    <rect x="616" y="397" width="8" height="18" fill="#ef5350" rx="1"/>
    <rect x="641" y="398" width="8" height="17" fill="#ef5350" rx="1"/>
    <rect x="666" y="400" width="8" height="15" fill="#ef5350" rx="1"/>
    <rect x="691" y="398" width="8" height="17" fill="#ef5350" rx="1"/>
    <rect x="716" y="400" width="8" height="15" fill="#ef5350" rx="1"/>
  </g>

  <!-- Legend -->
  <g transform="translate(60, 445)">
    <rect width="680" height="40" rx="4" fill="#ffffff" fill-opacity="0.03"/>
    <circle cx="20" cy="20" r="4" fill="#ff9800"/>
    <text x="30" y="24" fill="#999" font-size="9">SAR Dots</text>
    <circle cx="110" cy="20" r="4" fill="#26a69a"/>
    <text x="120" y="24" fill="#999" font-size="9">Bullish SAR</text>
    <circle cx="210" cy="20" r="4" fill="#ff9800"/>
    <text x="220" y="24" fill="#999" font-size="9">Bearish SAR</text>
    <circle cx="320" cy="20" r="4" fill="#00e676"/>
    <text x="330" y="24" fill="#999" font-size="9">Buy Signal</text>
    <circle cx="420" cy="20" r="4" fill="#ef5350"/>
    <text x="430" y="24" fill="#999" font-size="9">Exit Signal</text>
  </g>
</svg>