<?xml version="1.0" encoding="UTF-8"?>
<svg xmlns="http://www.w3.org/2000/svg" viewBox="0 0 800 500">
  <defs>
    <linearGradient id="bg" x1="0" y1="0" x2="0" y2="1">
      <stop offset="0%" stop-color="#1a1a2e"/>
      <stop offset="100%" stop-color="#16213e"/>
    </linearGradient>
    <linearGradient id="barNormal" x1="0" y1="0" x2="0" y2="1">
      <stop offset="0%" stop-color="#4ecdc4"/>
      <stop offset="100%" stop-color="#2a9d8f"/>
    </linearGradient>
    <linearGradient id="barExtremeLeft" x1="0" y1="0" x2="0" y2="1">
      <stop offset="0%" stop-color="#ff6b6b"/>
      <stop offset="100%" stop-color="#c0392b"/>
    </linearGradient>
    <linearGradient id="barExtremeRight" x1="0" y1="0" x2="0" y2="1">
      <stop offset="0%" stop-color="#e17055"/>
      <stop offset="100%" stop-color="#d63031"/>
    </linearGradient>
    <filter id="glow">
      <feGaussianBlur stdDeviation="3" result="blur"/>
      <feMerge><feMergeNode in="blur"/><feMergeNode in="SourceGraphic"/></feMerge>
    </filter>
    <filter id="glowStrong">
      <feGaussianBlur stdDeviation="5" result="blur"/>
      <feMerge><feMergeNode in="blur"/><feMergeNode in="SourceGraphic"/></feMerge>
    </filter>
    <filter id="textShadow">
      <feDropShadow dx="0" dy="1" stdDeviation="1" flood-color="#000" flood-opacity="0.5"/>
    </filter>
  </defs>

  <!-- Background -->
  <rect width="800" height="500" fill="url(#bg)"/>

  <!-- Grid lines -->
  <g stroke="#ffffff" stroke-opacity="0.04" stroke-width="1">
    <line x1="80" y1="80" x2="80" y2="390"/>
    <line x1="180" y1="80" x2="180" y2="390"/>
    <line x1="280" y1="80" x2="280" y2="390"/>
    <line x1="400" y1="80" x2="400" y2="390"/>
    <line x1="520" y1="80" x2="520" y2="390"/>
    <line x1="620" y1="80" x2="620" y2="390"/>
    <line x1="720" y1="80" x2="720" y2="390"/>
    <line x1="80" y1="120" x2="720" y2="120"/>
    <line x1="80" y1="180" x2="720" y2="180"/>
    <line x1="80" y1="240" x2="720" y2="240"/>
    <line x1="80" y1="300" x2="720" y2="300"/>
    <line x1="80" y1="360" x2="720" y2="360"/>
  </g>

  <!-- Axes -->
  <line x1="80" y1="390" x2="720" y2="390" stroke="#ffffff" stroke-opacity="0.3" stroke-width="1.5"/>
  <line x1="80" y1="80" x2="80" y2="390" stroke="#ffffff" stroke-opacity="0.3" stroke-width="1.5"/>

  <!-- X-axis labels -->
  <text x="400" y="425" fill="#8892b0" font-family="Arial,sans-serif" font-size="12" text-anchor="middle">Normalized Return (σ)</text>
  <text x="130" y="408" fill="#8892b0" font-family="Arial,sans-serif" font-size="9" text-anchor="middle">-4σ</text>
  <text x="197" y="408" fill="#8892b0" font-family="Arial,sans-serif" font-size="9" text-anchor="middle">-3σ</text>
  <text x="265" y="408" fill="#8892b0" font-family="Arial,sans-serif" font-size="9" text-anchor="middle">-2σ</text>
  <text x="332" y="408" fill="#8892b0" font-family="Arial,sans-serif" font-size="9" text-anchor="middle">-1σ</text>
  <text x="400" y="408" fill="#8892b0" font-family="Arial,sans-serif" font-size="9" text-anchor="middle">0</text>
  <text x="468" y="408" fill="#8892b0" font-family="Arial,sans-serif" font-size="9" text-anchor="middle">+1σ</text>
  <text x="535" y="408" fill="#8892b0" font-family="Arial,sans-serif" font-size="9" text-anchor="middle">+2σ</text>
  <text x="603" y="408" fill="#8892b0" font-family="Arial,sans-serif" font-size="9" text-anchor="middle">+3σ</text>
  <text x="670" y="408" fill="#8892b0" font-family="Arial,sans-serif" font-size="9" text-anchor="middle">+4σ</text>

  <!-- Y-axis label -->
  <text x="22" y="235" fill="#8892b0" font-family="Arial,sans-serif" font-size="12" transform="rotate(-90,22,235)" text-anchor="middle">Frequency</text>

  <rect x="114" y="378" width="12" height="12" fill="url(#barExtremeLeft)" opacity="0.85"/>
  <rect x="127" y="374" width="12" height="16" fill="url(#barExtremeLeft)" opacity="0.85"/>
  <rect x="140" y="370" width="12" height="20" fill="url(#barExtremeLeft)" opacity="0.85"/>
  <rect x="153" y="366" width="12" height="24" fill="url(#barExtremeLeft)" opacity="0.85"/>
  <rect x="166" y="360" width="12" height="30" fill="url(#barExtremeLeft)" opacity="0.85"/>
  <rect x="179" y="354" width="12" height="36" fill="url(#barExtremeLeft)" opacity="0.85"/>
  <rect x="192" y="346" width="12" height="44" fill="url(#barExtremeLeft)" opacity="0.85"/>
  <rect x="205" y="338" width="12" height="52" fill="url(#barExtremeLeft)" opacity="0.85"/>
  <rect x="218" y="326" width="12" height="64" fill="url(#barExtremeLeft)" opacity="0.85"/>
  <rect x="231" y="312" width="12" height="78" fill="url(#barExtremeLeft)" opacity="0.85"/>
  <rect x="244" y="298" width="12" height="92" fill="url(#barExtremeLeft)" opacity="0.85"/>
  <rect x="257" y="278" width="12" height="112" fill="url(#barNormal)" opacity="0.85"/>
  <rect x="270" y="258" width="12" height="132" fill="url(#barNormal)" opacity="0.85"/>
  <rect x="283" y="236" width="12" height="154" fill="url(#barNormal)" opacity="0.85"/>
  <rect x="296" y="214" width="12" height="176" fill="url(#barNormal)" opacity="0.85"/>
  <rect x="309" y="192" width="12" height="198" fill="url(#barNormal)" opacity="0.85"/>
  <rect x="322" y="170" width="12" height="220" fill="url(#barNormal)" opacity="0.85"/>
  <rect x="335" y="148" width="12" height="242" fill="url(#barNormal)" opacity="0.85"/>
  <rect x="348" y="130" width="12" height="260" fill="url(#barNormal)" opacity="0.85"/>
  <rect x="361" y="112" width="12" height="278" fill="url(#barNormal)" opacity="0.85"/>
  <rect x="374" y="100" width="12" height="290" fill="url(#barNormal)" opacity="0.85"/>
  <rect x="387" y="94" width="12" height="296" fill="url(#barNormal)" opacity="0.9"/>
  <rect x="400" y="92" width="12" height="298" fill="url(#barNormal)" opacity="0.9"/>
  <rect x="413" y="98" width="12" height="292" fill="url(#barNormal)" opacity="0.85"/>
  <rect x="426" y="108" width="12" height="282" fill="url(#barNormal)" opacity="0.85"/>
  <rect x="439" y="126" width="12" height="264" fill="url(#barNormal)" opacity="0.85"/>
  <rect x="452" y="146" width="12" height="244" fill="url(#barNormal)" opacity="0.85"/>
  <rect x="465" y="168" width="12" height="222" fill="url(#barNormal)" opacity="0.85"/>
  <rect x="478" y="190" width="12" height="200" fill="url(#barNormal)" opacity="0.85"/>
  <rect x="491" y="212" width="12" height="178" fill="url(#barNormal)" opacity="0.85"/>
  <rect x="504" y="234" width="12" height="156" fill="url(#barNormal)" opacity="0.85"/>
  <rect x="517" y="256" width="12" height="134" fill="url(#barNormal)" opacity="0.85"/>
  <rect x="530" y="276" width="12" height="114" fill="url(#barExtremeRight)" opacity="0.85"/>
  <rect x="543" y="296" width="12" height="94" fill="url(#barExtremeRight)" opacity="0.85"/>
  <rect x="556" y="312" width="12" height="78" fill="url(#barExtremeRight)" opacity="0.85"/>
  <rect x="569" y="326" width="12" height="64" fill="url(#barExtremeRight)" opacity="0.85"/>
  <rect x="582" y="338" width="12" height="52" fill="url(#barExtremeRight)" opacity="0.85"/>
  <rect x="595" y="348" width="12" height="42" fill="url(#barExtremeRight)" opacity="0.85"/>
  <rect x="608" y="354" width="12" height="36" fill="url(#barExtremeRight)" opacity="0.85"/>
  <rect x="621" y="362" width="12" height="28" fill="url(#barExtremeRight)" opacity="0.85"/>
  <rect x="634" y="368" width="12" height="22" fill="url(#barExtremeRight)" opacity="0.85"/>
  <rect x="647" y="374" width="12" height="16" fill="url(#barExtremeRight)" opacity="0.85"/>
  <rect x="660" y="378" width="12" height="12" fill="url(#barExtremeRight)" opacity="0.85"/>

  <!-- Vertical dashed lines at +/-2sigma -->
  <line x1="265" y1="80" x2="265" y2="390" stroke="#ffd93d" stroke-opacity="0.7" stroke-width="1.5" stroke-dasharray="6,4"/>
  <line x1="535" y1="80" x2="535" y2="390" stroke="#ffd93d" stroke-opacity="0.7" stroke-width="1.5" stroke-dasharray="6,4"/>
  <text x="265" y="75" fill="#ffd93d" font-family="Arial,sans-serif" font-size="10" text-anchor="middle" opacity="0.9">-2σ</text>
  <text x="535" y="75" fill="#ffd93d" font-family="Arial,sans-serif" font-size="10" text-anchor="middle" opacity="0.9">+2σ</text>

  <!-- Vertical dashed lines at +/-3sigma -->
  <line x1="197" y1="80" x2="197" y2="390" stroke="#e17055" stroke-opacity="0.6" stroke-width="1.5" stroke-dasharray="4,6"/>
  <line x1="603" y1="80" x2="603" y2="390" stroke="#e17055" stroke-opacity="0.6" stroke-width="1.5" stroke-dasharray="4,6"/>
  <text x="197" y="75" fill="#e17055" font-family="Arial,sans-serif" font-size="10" text-anchor="middle" opacity="0.9">-3σ</text>
  <text x="603" y="75" fill="#e17055" font-family="Arial,sans-serif" font-size="10" text-anchor="middle" opacity="0.9">+3σ</text>

  <!-- Callout: Extreme Sell -->
  <text x="155" y="310" fill="#ff6b6b" font-family="Arial,sans-serif" font-size="11" font-weight="bold" text-anchor="middle" filter="url(#glow)">Extreme</text>
  <text x="155" y="324" fill="#ff6b6b" font-family="Arial,sans-serif" font-size="11" font-weight="bold" text-anchor="middle" filter="url(#glow)">Sell</text>
  <line x1="155" y1="330" x2="155" y2="355" stroke="#ff6b6b" stroke-opacity="0.5" stroke-width="1"/>
  <polygon points="152,355 155,362 158,355" fill="#ff6b6b" opacity="0.5"/>

  <!-- Callout: Normal Range -->
  <rect x="352" y="440" width="96" height="20" rx="3" fill="#2a9d8f" fill-opacity="0.2" stroke="#4ecdc4" stroke-opacity="0.4" stroke-width="1"/>
  <text x="400" y="454" fill="#4ecdc4" font-family="Arial,sans-serif" font-size="10" font-weight="bold" text-anchor="middle">Normal Range</text>
  <line x1="400" y1="440" x2="400" y2="395" stroke="#4ecdc4" stroke-opacity="0.3" stroke-width="1" stroke-dasharray="3,3"/>

  <!-- Callout: Extreme Buy -->
  <text x="640" y="310" fill="#e17055" font-family="Arial,sans-serif" font-size="11" font-weight="bold" text-anchor="middle" filter="url(#glow)">Extreme</text>
  <text x="640" y="324" fill="#e17055" font-family="Arial,sans-serif" font-size="11" font-weight="bold" text-anchor="middle" filter="url(#glow)">Buy</text>
  <line x1="640" y1="330" x2="640" y2="355" stroke="#e17055" stroke-opacity="0.5" stroke-width="1"/>
  <polygon points="637,355 640,362 643,355" fill="#e17055" opacity="0.5"/>

  <!-- Current Bar marker (diamond at ~+1.8sigma) -->
  <polygon points="518,262 524,272 518,282 512,272" fill="#00ff88" stroke="#00ff88" stroke-width="1" filter="url(#glowStrong)"/>
  <text x="518" y="254" fill="#00ff88" font-family="Arial,sans-serif" font-size="10" font-weight="bold" text-anchor="middle" filter="url(#glow)">Current</text>
  <text x="518" y="244" fill="#00ff88" font-family="Arial,sans-serif" font-size="9" text-anchor="middle" opacity="0.8">+1.8σ</text>

  <!-- Title -->
  <text x="400" y="30" fill="#e0e0ff" font-family="Arial,sans-serif" font-size="17" font-weight="bold" text-anchor="middle" filter="url(#textShadow)">Normalized Return Extremes</text>
  <text x="400" y="48" fill="#8892b0" font-family="Arial,sans-serif" font-size="11" text-anchor="middle">tradegrub.finance</text>

  <!-- Legend bar at bottom -->
  <rect x="80" y="460" width="640" height="32" rx="6" fill="#0a0a1a" fill-opacity="0.6" stroke="#ffffff" stroke-opacity="0.08"/>
  <rect x="110" y="471" width="10" height="10" rx="1" fill="url(#barNormal)"/>
  <text x="125" y="480" fill="#ccd6f6" font-family="Arial,sans-serif" font-size="10">Normal Returns</text>
  <rect x="240" y="471" width="10" height="10" rx="1" fill="#ff6b6b"/>
  <text x="255" y="480" fill="#ccd6f6" font-family="Arial,sans-serif" font-size="10">Extreme Returns</text>
  <line x1="385" y1="476" x2="405" y2="476" stroke="#ffd93d" stroke-width="1.5" stroke-dasharray="4,3"/>
  <text x="412" y="480" fill="#ccd6f6" font-family="Arial,sans-serif" font-size="10">σ Lines</text>
  <polygon points="500,471 504,476 500,481 496,476" fill="#00ff88"/>
  <text x="510" y="480" fill="#ccd6f6" font-family="Arial,sans-serif" font-size="10">Current Position</text>
</svg>
