<svg xmlns="http://www.w3.org/2000/svg" viewBox="0 0 800 500" font-family="Inter, system-ui, sans-serif">
  <defs>
    <linearGradient id="bg" x1="0" y1="0" x2="0" y2="1">
      <stop offset="0%" stop-color="#1a1a2e"/>
      <stop offset="100%" stop-color="#16213e"/>
    </linearGradient>
    <filter id="glow">
      <feGaussianBlur stdDeviation="3" result="blur"/>
      <feMerge><feMergeNode in="blur"/><feMergeNode in="SourceGraphic"/></feMerge>
    </filter>
  </defs>

  <rect width="800" height="500" fill="url(#bg)" rx="8"/>

  <g stroke="#ffffff" stroke-opacity="0.04" stroke-width="1">
    <line x1="80" y1="60" x2="80" y2="420"/><line x1="200" y1="60" x2="200" y2="420"/>
    <line x1="320" y1="60" x2="320" y2="420"/><line x1="440" y1="60" x2="440" y2="420"/>
    <line x1="560" y1="60" x2="560" y2="420"/><line x1="680" y1="60" x2="680" y2="420"/>
    <line x1="60" y1="100" x2="760" y2="100"/><line x1="60" y1="160" x2="760" y2="160"/>
    <line x1="60" y1="220" x2="760" y2="220"/>
  </g>

  <text x="400" y="30" text-anchor="middle" fill="#e0e0e0" font-size="16" font-weight="600">Percentile Momentum Ranker</text>
  <text x="400" y="48" text-anchor="middle" fill="#888" font-size="11">tradegrub.finance</text>

  <!-- Price panel top 45% -->
  <line x1="100" y1="185" x2="100" y2="220" stroke="#26a69a" stroke-width="1"/><rect x="96" y="192" width="8" height="18" fill="#26a69a" rx="1"/>
  <line x1="135" y1="178" x2="135" y2="215" stroke="#26a69a" stroke-width="1"/><rect x="131" y="185" width="8" height="20" fill="#26a69a" rx="1"/>
  <line x1="170" y1="168" x2="170" y2="205" stroke="#ef5350" stroke-width="1"/><rect x="166" y="172" width="8" height="22" fill="#ef5350" rx="1"/>
  <line x1="205" y1="155" x2="205" y2="195" stroke="#26a69a" stroke-width="1"/><rect x="201" y="162" width="8" height="22" fill="#26a69a" rx="1"/>
  <line x1="240" y1="140" x2="240" y2="180" stroke="#26a69a" stroke-width="1"/><rect x="236" y="148" width="8" height="20" fill="#26a69a" rx="1"/>
  <line x1="275" y1="128" x2="275" y2="170" stroke="#26a69a" stroke-width="1"/><rect x="271" y="135" width="8" height="22" fill="#26a69a" rx="1"/>
  <line x1="310" y1="118" x2="310" y2="158" stroke="#26a69a" stroke-width="1"/><rect x="306" y="125" width="8" height="20" fill="#26a69a" rx="1"/>
  <line x1="345" y1="110" x2="345" y2="148" stroke="#ef5350" stroke-width="1"/><rect x="341" y="115" width="8" height="18" fill="#ef5350" rx="1"/>
  <line x1="380" y1="105" x2="380" y2="142" stroke="#26a69a" stroke-width="1"/><rect x="376" y="112" width="8" height="18" fill="#26a69a" rx="1"/>
  <!-- Peak -->
  <line x1="415" y1="98" x2="415" y2="135" stroke="#26a69a" stroke-width="1"/><rect x="411" y="105" width="8" height="18" fill="#26a69a" rx="1"/>
  <line x1="450" y1="102" x2="450" y2="140" stroke="#ef5350" stroke-width="1"/><rect x="446" y="108" width="8" height="20" fill="#ef5350" rx="1"/>
  <line x1="485" y1="112" x2="485" y2="152" stroke="#ef5350" stroke-width="1"/><rect x="481" y="118" width="8" height="22" fill="#ef5350" rx="1"/>
  <line x1="520" y1="125" x2="520" y2="165" stroke="#ef5350" stroke-width="1"/><rect x="516" y="130" width="8" height="22" fill="#ef5350" rx="1"/>
  <line x1="555" y1="140" x2="555" y2="178" stroke="#26a69a" stroke-width="1"/><rect x="551" y="152" width="8" height="15" fill="#26a69a" rx="1"/>
  <line x1="590" y1="150" x2="590" y2="188" stroke="#ef5350" stroke-width="1"/><rect x="586" y="155" width="8" height="22" fill="#ef5350" rx="1"/>
  <line x1="625" y1="162" x2="625" y2="198" stroke="#26a69a" stroke-width="1"/><rect x="621" y="172" width="8" height="15" fill="#26a69a" rx="1"/>
  <line x1="660" y1="158" x2="660" y2="195" stroke="#26a69a" stroke-width="1"/><rect x="656" y="165" width="8" height="18" fill="#26a69a" rx="1"/>
  <line x1="695" y1="148" x2="695" y2="188" stroke="#26a69a" stroke-width="1"/><rect x="691" y="155" width="8" height="22" fill="#26a69a" rx="1"/>
  <line x1="730" y1="138" x2="730" y2="178" stroke="#26a69a" stroke-width="1"/><rect x="726" y="145" width="8" height="20" fill="#26a69a" rx="1"/>

  <!-- Separator -->
  <line x1="60" y1="235" x2="760" y2="235" stroke="#ffffff" stroke-opacity="0.08" stroke-width="1"/>
  <text x="65" y="250" fill="#888" font-size="9">Percentile Rank (0-100)</text>

  <!-- Percentile zones -->
  <rect x="80" y="250" width="680" height="20" fill="#ef5350" fill-opacity="0.06"/>
  <rect x="80" y="375" width="680" height="20" fill="#26a69a" fill-opacity="0.06"/>
  <line x1="80" y1="270" x2="760" y2="270" stroke="#ef5350" stroke-width="0.8" stroke-dasharray="4,4" opacity="0.3"/>
  <text x="765" y="273" fill="#ef5350" font-size="7" opacity="0.5">90th</text>
  <line x1="80" y1="375" x2="760" y2="375" stroke="#26a69a" stroke-width="0.8" stroke-dasharray="4,4" opacity="0.3"/>
  <text x="765" y="378" fill="#26a69a" font-size="7" opacity="0.5">10th</text>
  <line x1="80" y1="322" x2="760" y2="322" stroke="#888" stroke-width="0.5" stroke-dasharray="2,3" opacity="0.2"/>
  <text x="765" y="325" fill="#888" font-size="7" opacity="0.4">50th</text>

  <!-- Percentile histogram bars (colored by level) -->
  <rect x="96" y="338" width="20" height="55" fill="#26a69a" rx="2" opacity="0.5"/>
  <rect x="131" y="325" width="20" height="68" fill="#26a69a" rx="2" opacity="0.5"/>
  <rect x="166" y="340" width="20" height="53" fill="#ff9800" rx="2" opacity="0.5"/>
  <rect x="201" y="308" width="20" height="85" fill="#26a69a" rx="2" opacity="0.6"/>
  <rect x="236" y="290" width="20" height="103" fill="#00e676" rx="2" opacity="0.6"/>
  <rect x="271" y="278" width="20" height="115" fill="#00e676" rx="2" opacity="0.7"/>
  <rect x="306" y="272" width="20" height="121" fill="#00e676" rx="2" opacity="0.7"/>
  <rect x="341" y="280" width="20" height="113" fill="#00e676" rx="2" opacity="0.7"/>
  <rect x="376" y="268" width="20" height="125" fill="#00e676" rx="2" opacity="0.8" filter="url(#glow)"/>
  <rect x="411" y="260" width="20" height="133" fill="#ef5350" rx="2" opacity="0.8" filter="url(#glow)"/>
  <rect x="446" y="275" width="20" height="118" fill="#00e676" rx="2" opacity="0.7"/>
  <rect x="481" y="295" width="20" height="98" fill="#26a69a" rx="2" opacity="0.6"/>
  <rect x="516" y="310" width="20" height="83" fill="#26a69a" rx="2" opacity="0.5"/>
  <rect x="551" y="340" width="20" height="53" fill="#ff9800" rx="2" opacity="0.5"/>
  <rect x="586" y="348" width="20" height="45" fill="#ff9800" rx="2" opacity="0.5"/>
  <rect x="621" y="355" width="20" height="38" fill="#26a69a" rx="2" opacity="0.4"/>
  <rect x="656" y="335" width="20" height="58" fill="#26a69a" rx="2" opacity="0.5"/>
  <rect x="691" y="305" width="20" height="88" fill="#26a69a" rx="2" opacity="0.6"/>
  <rect x="726" y="290" width="20" height="103" fill="#00e676" rx="2" opacity="0.7"/>

  <!-- Annotations -->
  <rect x="350" y="80" width="140" height="22" rx="4" fill="#ef5350" fill-opacity="0.12" stroke="#ef5350" stroke-width="0.8" stroke-opacity="0.3"/>
  <text x="420" y="95" text-anchor="middle" fill="#ef5350" font-size="10" font-weight="500">95th Percentile</text>
  <path d="M 420,100 L 420,115" fill="none" stroke="#ef5350" stroke-width="1" stroke-dasharray="3,3" opacity="0.5"/>

  <rect x="550" y="80" width="130" height="22" rx="4" fill="#26a69a" fill-opacity="0.12" stroke="#26a69a" stroke-width="0.8" stroke-opacity="0.3"/>
  <text x="615" y="95" text-anchor="middle" fill="#26a69a" font-size="10" font-weight="500">Weak Momentum</text>
  <path d="M 615,100 L 615,155" fill="none" stroke="#26a69a" stroke-width="1" stroke-dasharray="3,3" opacity="0.5"/>

  <!-- Volume bars -->
  <g opacity="0.4">
    <rect x="96" y="400" width="8" height="15" fill="#26a69a" rx="1"/>
    <rect x="131" y="397" width="8" height="18" fill="#26a69a" rx="1"/>
    <rect x="166" y="402" width="8" height="13" fill="#ef5350" rx="1"/>
    <rect x="201" y="398" width="8" height="17" fill="#26a69a" rx="1"/>
    <rect x="236" y="395" width="8" height="20" fill="#26a69a" rx="1"/>
    <rect x="271" y="393" width="8" height="22" fill="#26a69a" rx="1"/>
    <rect x="306" y="395" width="8" height="20" fill="#26a69a" rx="1"/>
    <rect x="341" y="400" width="8" height="15" fill="#ef5350" rx="1"/>
    <rect x="376" y="397" width="8" height="18" fill="#26a69a" rx="1"/>
    <rect x="411" y="395" width="8" height="20" fill="#26a69a" rx="1"/>
    <rect x="446" y="398" width="8" height="17" fill="#ef5350" rx="1"/>
    <rect x="481" y="395" width="8" height="20" fill="#ef5350" rx="1"/>
    <rect x="516" y="398" width="8" height="17" fill="#ef5350" rx="1"/>
    <rect x="551" y="402" width="8" height="13" fill="#26a69a" rx="1"/>
    <rect x="586" y="400" width="8" height="15" fill="#ef5350" rx="1"/>
    <rect x="621" y="403" width="8" height="12" fill="#26a69a" rx="1"/>
    <rect x="656" y="400" width="8" height="15" fill="#26a69a" rx="1"/>
    <rect x="691" y="397" width="8" height="18" fill="#26a69a" rx="1"/>
    <rect x="726" y="395" width="8" height="20" fill="#26a69a" rx="1"/>
  </g>

  <!-- Legend -->
  <g transform="translate(60, 445)">
    <rect width="680" height="40" rx="4" fill="#ffffff" fill-opacity="0.03"/>
    <rect x="12" y="12" width="16" height="16" rx="2" fill="#00e676" opacity="0.6"/>
    <text x="34" y="24" fill="#999" font-size="9">High Percentile (>75)</text>
    <rect x="160" y="12" width="16" height="16" rx="2" fill="#26a69a" opacity="0.5"/>
    <text x="182" y="24" fill="#999" font-size="9">Mid Percentile</text>
    <rect x="290" y="12" width="16" height="16" rx="2" fill="#ff9800" opacity="0.5"/>
    <text x="312" y="24" fill="#999" font-size="9">Low Percentile (&lt;25)</text>
    <rect x="440" y="12" width="16" height="16" rx="2" fill="#ef5350" opacity="0.6"/>
    <text x="462" y="24" fill="#999" font-size="9">Extreme (>90th)</text>
  </g>
</svg>