<svg xmlns="http://www.w3.org/2000/svg" viewBox="0 0 800 500">
  <defs>
    <linearGradient id="bg" x1="0" y1="0" x2="0" y2="1">
      <stop offset="0%" stop-color="#1a1a2e"/>
      <stop offset="100%" stop-color="#16213e"/>
    </linearGradient>
  </defs>
  <rect width="800" height="500" fill="url(#bg)" rx="8"/>
  <text x="400" y="35" text-anchor="middle" fill="#e0e0e0" font-family="Inter,sans-serif" font-size="18" font-weight="600">Variable Index Dynamic Average</text>
  <text x="400" y="55" text-anchor="middle" fill="#666" font-family="Inter,sans-serif" font-size="11">tradegrub.finance</text>

  <rect x="60" y="70" width="700" height="370" fill="none" stroke="#333" stroke-width="0.5" rx="4"/>

  <rect x="60" y="70" width="260" height="370" fill="rgba(0,230,118,0.03)"/>
  <rect x="320" y="70" width="200" height="370" fill="rgba(255,23,68,0.02)"/>
  <rect x="520" y="70" width="240" height="370" fill="rgba(0,230,118,0.03)"/>

  <!-- Candlesticks -->
  <line x1="100" y1="350" x2="100" y2="395" stroke="#26a69a" stroke-width="1"/><rect x="97" y="355" width="6" height="30" fill="#26a69a" rx="1"/>
  <line x1="140" y1="310" x2="140" y2="360" stroke="#26a69a" stroke-width="1"/><rect x="137" y="315" width="6" height="35" fill="#26a69a" rx="1"/>
  <line x1="180" y1="265" x2="180" y2="320" stroke="#26a69a" stroke-width="1"/><rect x="177" y="270" width="6" height="38" fill="#26a69a" rx="1"/>
  <line x1="220" y1="210" x2="220" y2="270" stroke="#26a69a" stroke-width="1"/><rect x="217" y="215" width="6" height="40" fill="#26a69a" rx="1"/>
  <line x1="260" y1="170" x2="260" y2="230" stroke="#26a69a" stroke-width="1"/><rect x="257" y="175" width="6" height="38" fill="#26a69a" rx="1"/>
  <line x1="300" y1="145" x2="300" y2="205" stroke="#26a69a" stroke-width="1"/><rect x="297" y="150" width="6" height="38" fill="#26a69a" rx="1"/>
  <line x1="340" y1="150" x2="340" y2="210" stroke="#ef5350" stroke-width="1"/><rect x="337" y="160" width="6" height="38" fill="#ef5350" rx="1"/>
  <line x1="380" y1="165" x2="380" y2="225" stroke="#ef5350" stroke-width="1"/><rect x="377" y="175" width="6" height="38" fill="#ef5350" rx="1"/>
  <line x1="420" y1="185" x2="420" y2="245" stroke="#ef5350" stroke-width="1"/><rect x="417" y="195" width="6" height="38" fill="#ef5350" rx="1"/>
  <line x1="460" y1="210" x2="460" y2="270" stroke="#ef5350" stroke-width="1"/><rect x="457" y="220" width="6" height="38" fill="#ef5350" rx="1"/>
  <line x1="500" y1="230" x2="500" y2="290" stroke="#ef5350" stroke-width="1"/><rect x="497" y="240" width="6" height="38" fill="#ef5350" rx="1"/>
  <line x1="540" y1="220" x2="540" y2="280" stroke="#26a69a" stroke-width="1"/><rect x="537" y="225" width="6" height="38" fill="#26a69a" rx="1"/>
  <line x1="580" y1="195" x2="580" y2="255" stroke="#26a69a" stroke-width="1"/><rect x="577" y="200" width="6" height="38" fill="#26a69a" rx="1"/>
  <line x1="620" y1="170" x2="620" y2="230" stroke="#26a69a" stroke-width="1"/><rect x="617" y="175" width="6" height="38" fill="#26a69a" rx="1"/>
  <line x1="660" y1="150" x2="660" y2="210" stroke="#26a69a" stroke-width="1"/><rect x="657" y="155" width="6" height="38" fill="#26a69a" rx="1"/>
  <line x1="700" y1="135" x2="700" y2="195" stroke="#26a69a" stroke-width="1"/><rect x="697" y="140" width="6" height="38" fill="#26a69a" rx="1"/>

  <!-- EMA reference -->
  <polyline points="100,370 140,340 180,300 220,255 260,220 300,195 340,188 380,195 420,210 460,232 500,255 540,252 580,235 620,215 660,198 700,182" fill="none" stroke="rgba(255,255,255,0.2)" stroke-width="1.5"/>

  <!-- VIDYA (cyan) -->
  <polyline points="100,365 140,332 180,288 220,240 260,202 300,175 340,172 380,185 420,205 460,230 500,252 540,248 580,228 620,205 660,185 700,168" fill="none" stroke="#26C6DA" stroke-width="2.5"/>

  <!-- Annotations -->
  <text x="200" y="415" text-anchor="middle" fill="rgba(38,198,218,0.5)" font-size="10" font-family="Inter,sans-serif">High CMO = Fast tracking</text>
  <text x="420" y="415" text-anchor="middle" fill="rgba(38,198,218,0.3)" font-size="10" font-family="Inter,sans-serif">Low CMO = Slow</text>

  <!-- Legend -->
  <rect x="60" y="460" width="700" height="30" fill="rgba(255,255,255,0.03)" rx="4"/>
  <line x1="80" y1="475" x2="115" y2="475" stroke="#26C6DA" stroke-width="2.5"/>
  <text x="120" y="479" fill="#aaa" font-size="11" font-family="Inter,sans-serif">VIDYA</text>
  <line x1="200" y1="475" x2="235" y2="475" stroke="rgba(255,255,255,0.25)" stroke-width="1.5"/>
  <text x="240" y="479" fill="#aaa" font-size="11" font-family="Inter,sans-serif">EMA Reference</text>
  <rect x="360" y="470" width="20" height="10" fill="rgba(0,230,118,0.15)" rx="2"/>
  <text x="385" y="479" fill="#aaa" font-size="11" font-family="Inter,sans-serif">Rising</text>
  <rect x="435" y="470" width="20" height="10" fill="rgba(255,23,68,0.15)" rx="2"/>
  <text x="460" y="479" fill="#aaa" font-size="11" font-family="Inter,sans-serif">Falling</text>
</svg>
