<svg xmlns="http://www.w3.org/2000/svg" viewBox="0 0 800 500" font-family="Inter, system-ui, sans-serif">
  <defs>
    <linearGradient id="bg" x1="0" y1="0" x2="0" y2="1">
      <stop offset="0%" stop-color="#1a1a2e"/>
      <stop offset="100%" stop-color="#16213e"/>
    </linearGradient>
    <linearGradient id="cycleFill" x1="0" y1="0" x2="0" y2="1">
      <stop offset="0%" stop-color="#42a5f5" stop-opacity="0.1"/>
      <stop offset="100%" stop-color="#42a5f5" stop-opacity="0.02"/>
    </linearGradient>
    <filter id="glow">
      <feGaussianBlur stdDeviation="3" result="blur"/>
      <feMerge><feMergeNode in="blur"/><feMergeNode in="SourceGraphic"/></feMerge>
    </filter>
    <filter id="softGlow">
      <feGaussianBlur stdDeviation="2" result="blur"/>
      <feMerge><feMergeNode in="blur"/><feMergeNode in="SourceGraphic"/></feMerge>
    </filter>
  </defs>

  <!-- Background -->
  <rect width="800" height="500" fill="url(#bg)" rx="8"/>

  <!-- Grid lines -->
  <g stroke="#ffffff" stroke-opacity="0.04" stroke-width="1">
    <line x1="80" y1="60" x2="80" y2="280"/>
    <line x1="200" y1="60" x2="200" y2="280"/>
    <line x1="320" y1="60" x2="320" y2="280"/>
    <line x1="440" y1="60" x2="440" y2="280"/>
    <line x1="560" y1="60" x2="560" y2="280"/>
    <line x1="680" y1="60" x2="680" y2="280"/>
    <line x1="60" y1="120" x2="760" y2="120"/>
    <line x1="60" y1="180" x2="760" y2="180"/>
    <line x1="60" y1="240" x2="760" y2="240"/>
  </g>

  <!-- Title -->
  <text x="400" y="30" text-anchor="middle" fill="#e0e0e0" font-size="16" font-weight="600">SciPy Fourier Cycles</text>
  <text x="400" y="48" text-anchor="middle" fill="#888" font-size="11">tradegrub.finance — FFT Decomposition of Price Cycles</text>

  <!-- Price candlesticks with cyclic pattern -->
  <line x1="90" y1="160" x2="90" y2="195" stroke="#26a69a" stroke-width="1"/>
  <rect x="86" y="168" width="8" height="18" fill="#26a69a" rx="1"/>
  <line x1="110" y1="145" x2="110" y2="180" stroke="#26a69a" stroke-width="1"/>
  <rect x="106" y="150" width="8" height="20" fill="#26a69a" rx="1"/>
  <line x1="130" y1="128" x2="130" y2="168" stroke="#26a69a" stroke-width="1"/>
  <rect x="126" y="135" width="8" height="22" fill="#26a69a" rx="1"/>
  <line x1="150" y1="115" x2="150" y2="155" stroke="#26a69a" stroke-width="1"/>
  <rect x="146" y="120" width="8" height="24" fill="#26a69a" rx="1"/>
  <line x1="170" y1="108" x2="170" y2="148" stroke="#ef5350" stroke-width="1"/>
  <rect x="166" y="112" width="8" height="22" fill="#ef5350" rx="1"/>
  <line x1="190" y1="118" x2="190" y2="155" stroke="#ef5350" stroke-width="1"/>
  <rect x="186" y="125" width="8" height="20" fill="#ef5350" rx="1"/>
  <line x1="210" y1="135" x2="210" y2="172" stroke="#ef5350" stroke-width="1"/>
  <rect x="206" y="142" width="8" height="20" fill="#ef5350" rx="1"/>
  <line x1="230" y1="155" x2="230" y2="192" stroke="#ef5350" stroke-width="1"/>
  <rect x="226" y="162" width="8" height="20" fill="#ef5350" rx="1"/>
  <line x1="250" y1="170" x2="250" y2="210" stroke="#ef5350" stroke-width="1"/>
  <rect x="246" y="178" width="8" height="22" fill="#ef5350" rx="1"/>
  <line x1="270" y1="180" x2="270" y2="218" stroke="#26a69a" stroke-width="1"/>
  <rect x="266" y="195" width="8" height="14" fill="#26a69a" rx="1"/>
  <line x1="290" y1="175" x2="290" y2="215" stroke="#26a69a" stroke-width="1"/>
  <rect x="286" y="188" width="8" height="18" fill="#26a69a" rx="1"/>
  <line x1="310" y1="160" x2="310" y2="200" stroke="#26a69a" stroke-width="1"/>
  <rect x="306" y="168" width="8" height="22" fill="#26a69a" rx="1"/>
  <line x1="330" y1="140" x2="330" y2="180" stroke="#26a69a" stroke-width="1"/>
  <rect x="326" y="148" width="8" height="22" fill="#26a69a" rx="1"/>
  <line x1="350" y1="120" x2="350" y2="160" stroke="#26a69a" stroke-width="1"/>
  <rect x="346" y="128" width="8" height="22" fill="#26a69a" rx="1"/>
  <line x1="370" y1="105" x2="370" y2="148" stroke="#26a69a" stroke-width="1"/>
  <rect x="366" y="110" width="8" height="26" fill="#26a69a" rx="1"/>
  <line x1="390" y1="98" x2="390" y2="140" stroke="#ef5350" stroke-width="1"/>
  <rect x="386" y="102" width="8" height="24" fill="#ef5350" rx="1"/>
  <line x1="410" y1="108" x2="410" y2="148" stroke="#ef5350" stroke-width="1"/>
  <rect x="406" y="115" width="8" height="22" fill="#ef5350" rx="1"/>
  <line x1="430" y1="125" x2="430" y2="165" stroke="#ef5350" stroke-width="1"/>
  <rect x="426" y="132" width="8" height="22" fill="#ef5350" rx="1"/>
  <line x1="450" y1="148" x2="450" y2="188" stroke="#ef5350" stroke-width="1"/>
  <rect x="446" y="155" width="8" height="22" fill="#ef5350" rx="1"/>
  <line x1="470" y1="168" x2="470" y2="205" stroke="#ef5350" stroke-width="1"/>
  <rect x="466" y="175" width="8" height="20" fill="#ef5350" rx="1"/>
  <line x1="490" y1="178" x2="490" y2="218" stroke="#26a69a" stroke-width="1"/>
  <rect x="486" y="192" width="8" height="16" fill="#26a69a" rx="1"/>
  <line x1="510" y1="170" x2="510" y2="210" stroke="#26a69a" stroke-width="1"/>
  <rect x="506" y="178" width="8" height="22" fill="#26a69a" rx="1"/>
  <line x1="530" y1="155" x2="530" y2="195" stroke="#26a69a" stroke-width="1"/>
  <rect x="526" y="162" width="8" height="22" fill="#26a69a" rx="1"/>
  <line x1="550" y1="138" x2="550" y2="178" stroke="#26a69a" stroke-width="1"/>
  <rect x="546" y="145" width="8" height="22" fill="#26a69a" rx="1"/>
  <line x1="570" y1="118" x2="570" y2="158" stroke="#26a69a" stroke-width="1"/>
  <rect x="566" y="125" width="8" height="22" fill="#26a69a" rx="1"/>
  <line x1="590" y1="102" x2="590" y2="142" stroke="#26a69a" stroke-width="1"/>
  <rect x="586" y="108" width="8" height="22" fill="#26a69a" rx="1"/>
  <line x1="610" y1="95" x2="610" y2="138" stroke="#ef5350" stroke-width="1"/>
  <rect x="606" y="100" width="8" height="24" fill="#ef5350" rx="1"/>
  <line x1="630" y1="105" x2="630" y2="145" stroke="#ef5350" stroke-width="1"/>
  <rect x="626" y="112" width="8" height="22" fill="#ef5350" rx="1"/>
  <line x1="650" y1="120" x2="650" y2="160" stroke="#ef5350" stroke-width="1"/>
  <rect x="646" y="128" width="8" height="22" fill="#ef5350" rx="1"/>
  <line x1="670" y1="140" x2="670" y2="178" stroke="#ef5350" stroke-width="1"/>
  <rect x="666" y="148" width="8" height="20" fill="#ef5350" rx="1"/>
  <line x1="690" y1="158" x2="690" y2="198" stroke="#ef5350" stroke-width="1"/>
  <rect x="686" y="165" width="8" height="22" fill="#ef5350" rx="1"/>
  <line x1="710" y1="170" x2="710" y2="208" stroke="#26a69a" stroke-width="1"/>
  <rect x="706" y="182" width="8" height="16" fill="#26a69a" rx="1"/>
  <line x1="730" y1="162" x2="730" y2="200" stroke="#26a69a" stroke-width="1"/>
  <rect x="726" y="170" width="8" height="20" fill="#26a69a" rx="1"/>

  <!-- Filtered price (smooth sine overlay) -->
  <path d="M 90,175 Q 130,130 170,110 Q 210,90 250,130 Q 290,180 330,200 Q 370,140 390,100 Q 430,80 470,130 Q 510,185 550,200 Q 590,140 610,98 Q 650,78 690,125 Q 720,175 740,190"
    fill="none" stroke="#42a5f5" stroke-width="2.5" opacity="0.8" filter="url(#softGlow)"/>

  <!-- Cycle peak/trough markers -->
  <g filter="url(#glow)">
    <circle cx="170" cy="110" r="5" fill="none" stroke="#ff9800" stroke-width="1.5"/>
    <circle cx="390" cy="100" r="5" fill="none" stroke="#ff9800" stroke-width="1.5"/>
    <circle cx="610" cy="98" r="5" fill="none" stroke="#ff9800" stroke-width="1.5"/>
  </g>
  <g filter="url(#glow)">
    <circle cx="270" cy="200" r="5" fill="none" stroke="#ab47bc" stroke-width="1.5"/>
    <circle cx="490" cy="195" r="5" fill="none" stroke="#ab47bc" stroke-width="1.5"/>
    <circle cx="710" cy="190" r="5" fill="none" stroke="#ab47bc" stroke-width="1.5"/>
  </g>

  <!-- Cycle period annotation -->
  <line x1="170" y1="85" x2="390" y2="85" stroke="#ff9800" stroke-width="1" opacity="0.6"/>
  <line x1="170" y1="80" x2="170" y2="90" stroke="#ff9800" stroke-width="1" opacity="0.6"/>
  <line x1="390" y1="80" x2="390" y2="90" stroke="#ff9800" stroke-width="1" opacity="0.6"/>
  <rect x="240" y="74" width="70" height="16" rx="4" fill="#ff9800" fill-opacity="0.15" stroke="#ff9800" stroke-width="0.8" stroke-opacity="0.3"/>
  <text x="275" y="86" text-anchor="middle" fill="#ff9800" font-size="9" font-weight="500">~22 bars</text>

  <line x1="390" y1="85" x2="610" y2="85" stroke="#ff9800" stroke-width="1" opacity="0.4"/>
  <line x1="610" y1="80" x2="610" y2="90" stroke="#ff9800" stroke-width="1" opacity="0.6"/>

  <!-- Cycle Strength sub-pane -->
  <line x1="60" y1="300" x2="760" y2="300" stroke="#ffffff" stroke-opacity="0.1" stroke-width="1"/>
  <text x="65" y="318" fill="#888" font-size="9">Cycle Strength</text>

  <!-- Cycle strength bars (frequency domain visualization) -->
  <g opacity="0.7">
    <rect x="120" y="330" width="18" height="45" fill="#42a5f5" rx="2" filter="url(#softGlow)"/>
    <text x="129" y="385" text-anchor="middle" fill="#888" font-size="7">22</text>
    <rect x="170" y="345" width="18" height="30" fill="#42a5f5" rx="2" opacity="0.7"/>
    <text x="179" y="385" text-anchor="middle" fill="#888" font-size="7">44</text>
    <rect x="220" y="355" width="18" height="20" fill="#42a5f5" rx="2" opacity="0.5"/>
    <text x="229" y="385" text-anchor="middle" fill="#888" font-size="7">11</text>
    <rect x="270" y="362" width="18" height="13" fill="#42a5f5" rx="2" opacity="0.4"/>
    <text x="279" y="385" text-anchor="middle" fill="#888" font-size="7">7</text>
    <rect x="320" y="367" width="18" height="8" fill="#42a5f5" rx="2" opacity="0.3"/>
    <text x="329" y="385" text-anchor="middle" fill="#888" font-size="7">5</text>
  </g>
  <text x="380" y="360" fill="#888" font-size="8">Period (bars) →</text>

  <!-- Dominant cycle highlight -->
  <rect x="115" y="322" width="28" height="60" rx="3" fill="none" stroke="#ff9800" stroke-width="1.5" stroke-dasharray="4,3"/>
  <text x="129" y="318" text-anchor="middle" fill="#ff9800" font-size="8" font-weight="500">Dominant</text>

  <!-- Filtered Price sub-pane -->
  <line x1="60" y1="400" x2="760" y2="400" stroke="#ffffff" stroke-opacity="0.1" stroke-width="1"/>
  <text x="65" y="418" fill="#888" font-size="9">Filtered</text>

  <!-- Smooth filtered sine wave in sub-pane -->
  <path d="M 90,430 Q 130,415 170,410 Q 210,420 250,435 Q 290,445 330,440 Q 370,420 390,410 Q 430,415 470,435 Q 510,445 550,440 Q 590,420 610,408 Q 650,415 690,435 Q 720,445 740,440"
    fill="none" stroke="#26a69a" stroke-width="1.5" opacity="0.7"/>
  <line x1="80" y1="430" x2="760" y2="430" stroke="#888" stroke-width="0.5" stroke-dasharray="3,3" opacity="0.3"/>

  <!-- Legend -->
  <g transform="translate(60, 458)">
    <rect width="680" height="35" rx="4" fill="#ffffff" fill-opacity="0.03"/>
    <circle cx="20" cy="18" r="4" fill="#42a5f5"/>
    <text x="30" y="22" fill="#999" font-size="9">Filtered Price</text>
    <circle cx="140" cy="18" r="4" fill="#ff9800"/>
    <text x="150" y="22" fill="#999" font-size="9">Cycle Peak</text>
    <circle cx="250" cy="18" r="4" fill="#ab47bc"/>
    <text x="260" y="22" fill="#999" font-size="9">Cycle Trough</text>
    <rect x="360" y="10" width="18" height="16" fill="#42a5f5" rx="2" opacity="0.7"/>
    <text x="383" y="22" fill="#999" font-size="9">FFT Strength</text>
    <circle cx="480" cy="18" r="4" fill="#26a69a"/>
    <text x="490" y="22" fill="#999" font-size="9">Cycle Component</text>
  </g>
</svg>
