<svg xmlns="http://www.w3.org/2000/svg" viewBox="0 0 800 500" font-family="Arial, sans-serif">
  <defs>
    <linearGradient id="bg" x1="0" y1="0" x2="0" y2="1">
      <stop offset="0%" stop-color="#1a1a2e"/>
      <stop offset="100%" stop-color="#16213e"/>
    </linearGradient>
    <filter id="glow">
      <feGaussianBlur stdDeviation="3" result="blur"/>
      <feMerge><feMergeNode in="blur"/><feMergeNode in="SourceGraphic"/></feMerge>
    </filter>
    <filter id="pulseGlow">
      <feGaussianBlur stdDeviation="5" result="blur"/>
      <feMerge><feMergeNode in="blur"/><feMergeNode in="SourceGraphic"/></feMerge>
    </filter>
  </defs>

  <rect width="800" height="500" fill="url(#bg)"/>

  <!-- Grid -->
  <g stroke="#ffffff" stroke-opacity="0.04" stroke-width="1">
    <line x1="80" y1="60" x2="80" y2="430"/><line x1="160" y1="60" x2="160" y2="430"/>
    <line x1="240" y1="60" x2="240" y2="430"/><line x1="320" y1="60" x2="320" y2="430"/>
    <line x1="400" y1="60" x2="400" y2="430"/><line x1="480" y1="60" x2="480" y2="430"/>
    <line x1="560" y1="60" x2="560" y2="430"/><line x1="640" y1="60" x2="640" y2="430"/>
    <line x1="720" y1="60" x2="720" y2="430"/>
    <line x1="60" y1="100" x2="750" y2="100"/><line x1="60" y1="150" x2="750" y2="150"/>
    <line x1="60" y1="200" x2="750" y2="200"/><line x1="60" y1="250" x2="750" y2="250"/>
    <line x1="60" y1="300" x2="750" y2="300"/><line x1="60" y1="350" x2="750" y2="350"/>
    <line x1="60" y1="400" x2="750" y2="400"/>
  </g>

  <!-- Regime background shading -->
  <!-- Trending zone 1: candles 1-10 (x: 70-290) -->
  <rect x="70" y="60" width="220" height="370" fill="rgba(0,255,0,0.05)"/>
  <!-- Mean-reverting zone: candles 11-20 (x: 290-510) -->
  <rect x="290" y="60" width="220" height="370" fill="rgba(128,0,255,0.05)"/>
  <!-- Trending zone 2: candles 21-30 (x: 510-730) -->
  <rect x="510" y="60" width="220" height="370" fill="rgba(0,255,0,0.05)"/>

  <!-- Regime transition lines -->
  <line x1="290" y1="60" x2="290" y2="430" stroke="#ffffff" stroke-width="1" stroke-dasharray="4,4" opacity="0.3"/>
  <line x1="510" y1="60" x2="510" y2="430" stroke="#ffffff" stroke-width="1" stroke-dasharray="4,4" opacity="0.3"/>

  <!-- Regime labels -->
  <text x="180" y="75" fill="#44ff88" font-size="10" text-anchor="middle" opacity="0.7">Trending</text>
  <text x="400" y="75" fill="#aa66ff" font-size="10" text-anchor="middle" opacity="0.7">Mean-Reverting</text>
  <text x="620" y="75" fill="#44ff88" font-size="10" text-anchor="middle" opacity="0.7">Trending</text>

  <!-- Candlesticks - 30 candles, spacing ~22px -->
  <!-- Trending up section (1-10) -->
  <line x1="82" y1="340" x2="82" y2="310" stroke="#888" stroke-width="1"/>
  <rect x="77" y="320" width="10" height="15" fill="#00c853" rx="1"/>
  <line x1="104" y1="330" x2="104" y2="295" stroke="#888" stroke-width="1"/>
  <rect x="99" y="305" width="10" height="18" fill="#00c853" rx="1"/>
  <line x1="126" y1="315" x2="126" y2="280" stroke="#888" stroke-width="1"/>
  <rect x="121" y="290" width="10" height="16" fill="#00c853" rx="1"/>
  <line x1="148" y1="300" x2="148" y2="262" stroke="#888" stroke-width="1"/>
  <rect x="143" y="270" width="10" height="20" fill="#00c853" rx="1"/>
  <line x1="170" y1="280" x2="170" y2="248" stroke="#888" stroke-width="1"/>
  <rect x="165" y="255" width="10" height="18" fill="#00c853" rx="1"/>
  <line x1="192" y1="265" x2="192" y2="230" stroke="#888" stroke-width="1"/>
  <rect x="187" y="238" width="10" height="20" fill="#00c853" rx="1"/>
  <line x1="214" y1="250" x2="214" y2="215" stroke="#888" stroke-width="1"/>
  <rect x="209" y="222" width="10" height="22" fill="#00c853" rx="1"/>
  <line x1="236" y1="235" x2="236" y2="198" stroke="#888" stroke-width="1"/>
  <rect x="231" y="205" width="10" height="22" fill="#00c853" rx="1"/>
  <line x1="258" y1="218" x2="258" y2="182" stroke="#888" stroke-width="1"/>
  <rect x="253" y="190" width="10" height="20" fill="#00c853" rx="1"/>
  <line x1="280" y1="200" x2="280" y2="168" stroke="#888" stroke-width="1"/>
  <rect x="275" y="175" width="10" height="18" fill="#00c853" rx="1"/>

  <!-- Mean-reverting section (11-20): choppy sideways -->
  <line x1="302" y1="195" x2="302" y2="165" stroke="#888" stroke-width="1"/>
  <rect x="297" y="170" width="10" height="18" fill="#ff1744" rx="1"/>
  <line x1="324" y1="185" x2="324" y2="155" stroke="#888" stroke-width="1"/>
  <rect x="319" y="160" width="10" height="15" fill="#00c853" rx="1"/>
  <line x1="346" y1="190" x2="346" y2="160" stroke="#888" stroke-width="1"/>
  <rect x="341" y="168" width="10" height="14" fill="#ff1744" rx="1"/>
  <line x1="368" y1="182" x2="368" y2="152" stroke="#888" stroke-width="1"/>
  <rect x="363" y="158" width="10" height="16" fill="#00c853" rx="1"/>
  <line x1="390" y1="188" x2="390" y2="158" stroke="#888" stroke-width="1"/>
  <rect x="385" y="165" width="10" height="15" fill="#ff1744" rx="1"/>
  <line x1="412" y1="180" x2="412" y2="150" stroke="#888" stroke-width="1"/>
  <rect x="407" y="156" width="10" height="16" fill="#00c853" rx="1"/>
  <line x1="434" y1="186" x2="434" y2="156" stroke="#888" stroke-width="1"/>
  <rect x="429" y="162" width="10" height="16" fill="#ff1744" rx="1"/>
  <line x1="456" y1="178" x2="456" y2="148" stroke="#888" stroke-width="1"/>
  <rect x="451" y="155" width="10" height="15" fill="#00c853" rx="1"/>
  <line x1="478" y1="185" x2="478" y2="155" stroke="#888" stroke-width="1"/>
  <rect x="473" y="160" width="10" height="18" fill="#ff1744" rx="1"/>
  <line x1="500" y1="180" x2="500" y2="150" stroke="#888" stroke-width="1"/>
  <rect x="495" y="158" width="10" height="14" fill="#00c853" rx="1"/>

  <!-- Trending down section (21-30) -->
  <line x1="522" y1="175" x2="522" y2="145" stroke="#888" stroke-width="1"/>
  <rect x="517" y="150" width="10" height="18" fill="#ff1744" rx="1"/>
  <line x1="544" y1="190" x2="544" y2="158" stroke="#888" stroke-width="1"/>
  <rect x="539" y="165" width="10" height="18" fill="#ff1744" rx="1"/>
  <line x1="566" y1="210" x2="566" y2="175" stroke="#888" stroke-width="1"/>
  <rect x="561" y="182" width="10" height="20" fill="#ff1744" rx="1"/>
  <line x1="588" y1="230" x2="588" y2="195" stroke="#888" stroke-width="1"/>
  <rect x="583" y="202" width="10" height="22" fill="#ff1744" rx="1"/>
  <line x1="610" y1="252" x2="610" y2="218" stroke="#888" stroke-width="1"/>
  <rect x="605" y="225" width="10" height="20" fill="#ff1744" rx="1"/>
  <line x1="632" y1="275" x2="632" y2="240" stroke="#888" stroke-width="1"/>
  <rect x="627" y="248" width="10" height="20" fill="#ff1744" rx="1"/>
  <line x1="654" y1="298" x2="654" y2="262" stroke="#888" stroke-width="1"/>
  <rect x="649" y="268" width="10" height="22" fill="#ff1744" rx="1"/>
  <line x1="676" y1="318" x2="676" y2="282" stroke="#888" stroke-width="1"/>
  <rect x="671" y="290" width="10" height="20" fill="#ff1744" rx="1"/>
  <line x1="698" y1="340" x2="698" y2="305" stroke="#888" stroke-width="1"/>
  <rect x="693" y="312" width="10" height="22" fill="#ff1744" rx="1"/>
  <line x1="720" y1="360" x2="720" y2="328" stroke="#888" stroke-width="1"/>
  <rect x="715" y="335" width="10" height="18" fill="#ff1744" rx="1"/>

  <!-- Pulse dots along bottom (y=440) -->
  <!-- Trending bright -->
  <circle cx="82" cy="440" r="3" fill="#00ff88" filter="url(#pulseGlow)" opacity="0.9"/>
  <circle cx="104" cy="440" r="3" fill="#00ff88" filter="url(#pulseGlow)" opacity="0.85"/>
  <circle cx="126" cy="440" r="3" fill="#00ff88" filter="url(#pulseGlow)" opacity="0.9"/>
  <circle cx="148" cy="440" r="3.5" fill="#00ff88" filter="url(#pulseGlow)" opacity="0.95"/>
  <circle cx="170" cy="440" r="3.5" fill="#00ff88" filter="url(#pulseGlow)" opacity="0.9"/>
  <circle cx="192" cy="440" r="3" fill="#00ff88" filter="url(#pulseGlow)" opacity="0.85"/>
  <circle cx="214" cy="440" r="3.5" fill="#00ff88" filter="url(#pulseGlow)" opacity="0.9"/>
  <circle cx="236" cy="440" r="3" fill="#00ff88" filter="url(#pulseGlow)" opacity="0.85"/>
  <circle cx="258" cy="440" r="3.5" fill="#00ff88" filter="url(#pulseGlow)" opacity="0.9"/>
  <circle cx="280" cy="440" r="3" fill="#00ff88" filter="url(#pulseGlow)" opacity="0.8"/>
  <!-- Mean-reverting dim -->
  <circle cx="302" cy="440" r="2" fill="#aa66ff" opacity="0.3"/>
  <circle cx="324" cy="440" r="2" fill="#aa66ff" opacity="0.25"/>
  <circle cx="346" cy="440" r="2" fill="#aa66ff" opacity="0.3"/>
  <circle cx="368" cy="440" r="2" fill="#aa66ff" opacity="0.2"/>
  <circle cx="390" cy="440" r="2" fill="#aa66ff" opacity="0.3"/>
  <circle cx="412" cy="440" r="2" fill="#aa66ff" opacity="0.25"/>
  <circle cx="434" cy="440" r="2" fill="#aa66ff" opacity="0.3"/>
  <circle cx="456" cy="440" r="2" fill="#aa66ff" opacity="0.2"/>
  <circle cx="478" cy="440" r="2" fill="#aa66ff" opacity="0.3"/>
  <circle cx="500" cy="440" r="2" fill="#aa66ff" opacity="0.25"/>
  <!-- Trending bright again -->
  <circle cx="522" cy="440" r="3" fill="#00ff88" filter="url(#pulseGlow)" opacity="0.8"/>
  <circle cx="544" cy="440" r="3" fill="#00ff88" filter="url(#pulseGlow)" opacity="0.85"/>
  <circle cx="566" cy="440" r="3.5" fill="#00ff88" filter="url(#pulseGlow)" opacity="0.9"/>
  <circle cx="588" cy="440" r="3.5" fill="#00ff88" filter="url(#pulseGlow)" opacity="0.95"/>
  <circle cx="610" cy="440" r="3.5" fill="#00ff88" filter="url(#pulseGlow)" opacity="0.9"/>
  <circle cx="632" cy="440" r="3" fill="#00ff88" filter="url(#pulseGlow)" opacity="0.85"/>
  <circle cx="654" cy="440" r="3.5" fill="#00ff88" filter="url(#pulseGlow)" opacity="0.9"/>
  <circle cx="676" cy="440" r="3" fill="#00ff88" filter="url(#pulseGlow)" opacity="0.85"/>
  <circle cx="698" cy="440" r="3.5" fill="#00ff88" filter="url(#pulseGlow)" opacity="0.9"/>
  <circle cx="720" cy="440" r="3" fill="#00ff88" filter="url(#pulseGlow)" opacity="0.8"/>

  <!-- Title -->
  <text x="20" y="28" fill="#ffffff" font-size="17" font-weight="bold">Trend Volatility Pulse</text>
  <text x="20" y="45" fill="#888888" font-size="11">tradegrub.finance</text>

  <!-- Legend bar -->
  <rect x="0" y="455" width="800" height="45" fill="#0d0d1a" opacity="0.6"/>
  <rect x="60" y="470" width="10" height="10" fill="#00c853" rx="1"/>
  <text x="75" y="479" fill="#cccccc" font-size="11">Bullish</text>
  <rect x="130" y="470" width="10" height="10" fill="#ff1744" rx="1"/>
  <text x="145" y="479" fill="#cccccc" font-size="11">Bearish</text>
  <rect x="200" y="470" width="18" height="10" fill="rgba(0,255,0,0.15)" stroke="#44ff88" stroke-width="0.5"/>
  <text x="223" y="479" fill="#cccccc" font-size="11">Trending</text>
  <rect x="295" y="470" width="18" height="10" fill="rgba(128,0,255,0.15)" stroke="#aa66ff" stroke-width="0.5"/>
  <text x="318" y="479" fill="#cccccc" font-size="11">Mean-Reverting</text>
  <circle cx="430" cy="475" r="3" fill="#00ff88" filter="url(#pulseGlow)"/>
  <text x="438" y="479" fill="#cccccc" font-size="11">Pulse (bright=trending)</text>
</svg>