<svg xmlns="http://www.w3.org/2000/svg" viewBox="0 0 800 500" font-family="Inter, system-ui, sans-serif">
  <defs>
    <linearGradient id="bg" x1="0" y1="0" x2="0" y2="1">
      <stop offset="0%" stop-color="#1a1a2e"/>
      <stop offset="100%" stop-color="#16213e"/>
    </linearGradient>
    <filter id="glowBlue"><feGaussianBlur stdDeviation="2.5" result="b"/><feMerge><feMergeNode in="b"/><feMergeNode in="SourceGraphic"/></feMerge></filter>
    <filter id="glowGreen"><feGaussianBlur stdDeviation="2" result="b"/><feMerge><feMergeNode in="b"/><feMergeNode in="SourceGraphic"/></feMerge></filter>
    <filter id="glowOrange"><feGaussianBlur stdDeviation="2" result="b"/><feMerge><feMergeNode in="b"/><feMergeNode in="SourceGraphic"/></feMerge></filter>
  </defs>

  <!-- Background -->
  <rect width="800" height="500" rx="8" fill="url(#bg)"/>

  <!-- Title -->
  <text x="400" y="32" text-anchor="middle" fill="#e0e0e0" font-size="18" font-weight="700">Pandas Seasonal Decompose</text>
  <text x="400" y="50" text-anchor="middle" fill="#7986CB" font-size="10">tradegrub.finance — Trend + Seasonal + Residual Decomposition</text>

  <!-- Pane 1: Price + Trend (y: 60-270) -->
  <text x="70" y="72" fill="#9e9e9e" font-size="9" font-weight="600">Price + Trend</text>

  <!-- Grid lines pane 1 -->
  <line x1="60" y1="90" x2="760" y2="90" stroke="#ffffff" stroke-opacity="0.05"/>
  <line x1="60" y1="130" x2="760" y2="130" stroke="#ffffff" stroke-opacity="0.05"/>
  <line x1="60" y1="170" x2="760" y2="170" stroke="#ffffff" stroke-opacity="0.05"/>
  <line x1="60" y1="210" x2="760" y2="210" stroke="#ffffff" stroke-opacity="0.05"/>
  <line x1="60" y1="250" x2="760" y2="250" stroke="#ffffff" stroke-opacity="0.05"/>
  <!-- Vertical grid -->
  <line x1="160" y1="60" x2="160" y2="270" stroke="#ffffff" stroke-opacity="0.04"/>
  <line x1="260" y1="60" x2="260" y2="270" stroke="#ffffff" stroke-opacity="0.04"/>
  <line x1="360" y1="60" x2="360" y2="270" stroke="#ffffff" stroke-opacity="0.04"/>
  <line x1="460" y1="60" x2="460" y2="270" stroke="#ffffff" stroke-opacity="0.04"/>
  <line x1="560" y1="60" x2="560" y2="270" stroke="#ffffff" stroke-opacity="0.04"/>
  <line x1="660" y1="60" x2="660" y2="270" stroke="#ffffff" stroke-opacity="0.04"/>

  <!-- Candlesticks -->
  <line x1="85" y1="195" x2="85" y2="145" stroke="#66bb6a" stroke-width="1"/>
  <rect x="81" y="160" width="8" height="25" fill="#66bb6a" rx="1"/>

  <line x1="105" y1="200" x2="105" y2="140" stroke="#66bb6a" stroke-width="1"/>
  <rect x="101" y="150" width="8" height="30" fill="#66bb6a" rx="1"/>

  <line x1="125" y1="190" x2="125" y2="130" stroke="#ef5350" stroke-width="1"/>
  <rect x="121" y="135" width="8" height="35" fill="#ef5350" rx="1"/>

  <line x1="145" y1="195" x2="145" y2="150" stroke="#ef5350" stroke-width="1"/>
  <rect x="141" y="155" width="8" height="28" fill="#ef5350" rx="1"/>

  <line x1="165" y1="210" x2="165" y2="160" stroke="#ef5350" stroke-width="1"/>
  <rect x="161" y="165" width="8" height="30" fill="#ef5350" rx="1"/>

  <line x1="185" y1="220" x2="185" y2="175" stroke="#66bb6a" stroke-width="1"/>
  <rect x="181" y="185" width="8" height="22" fill="#66bb6a" rx="1"/>

  <line x1="205" y1="215" x2="205" y2="165" stroke="#66bb6a" stroke-width="1"/>
  <rect x="201" y="175" width="8" height="25" fill="#66bb6a" rx="1"/>

  <line x1="225" y1="200" x2="225" y2="155" stroke="#66bb6a" stroke-width="1"/>
  <rect x="221" y="165" width="8" height="20" fill="#66bb6a" rx="1"/>

  <line x1="245" y1="195" x2="245" y2="145" stroke="#66bb6a" stroke-width="1"/>
  <rect x="241" y="155" width="8" height="25" fill="#66bb6a" rx="1"/>

  <line x1="265" y1="180" x2="265" y2="130" stroke="#66bb6a" stroke-width="1"/>
  <rect x="261" y="140" width="8" height="28" fill="#66bb6a" rx="1"/>

  <line x1="285" y1="175" x2="285" y2="120" stroke="#ef5350" stroke-width="1"/>
  <rect x="281" y="125" width="8" height="30" fill="#ef5350" rx="1"/>

  <line x1="305" y1="185" x2="305" y2="135" stroke="#ef5350" stroke-width="1"/>
  <rect x="301" y="140" width="8" height="32" fill="#ef5350" rx="1"/>

  <line x1="325" y1="175" x2="325" y2="130" stroke="#66bb6a" stroke-width="1"/>
  <rect x="321" y="140" width="8" height="22" fill="#66bb6a" rx="1"/>

  <line x1="345" y1="170" x2="345" y2="120" stroke="#66bb6a" stroke-width="1"/>
  <rect x="341" y="130" width="8" height="25" fill="#66bb6a" rx="1"/>

  <line x1="365" y1="160" x2="365" y2="110" stroke="#66bb6a" stroke-width="1"/>
  <rect x="361" y="118" width="8" height="28" fill="#66bb6a" rx="1"/>

  <line x1="385" y1="155" x2="385" y2="105" stroke="#ef5350" stroke-width="1"/>
  <rect x="381" y="110" width="8" height="30" fill="#ef5350" rx="1"/>

  <line x1="405" y1="165" x2="405" y2="115" stroke="#ef5350" stroke-width="1"/>
  <rect x="401" y="120" width="8" height="28" fill="#ef5350" rx="1"/>

  <line x1="425" y1="170" x2="425" y2="125" stroke="#66bb6a" stroke-width="1"/>
  <rect x="421" y="135" width="8" height="22" fill="#66bb6a" rx="1"/>

  <line x1="445" y1="160" x2="445" y2="110" stroke="#66bb6a" stroke-width="1"/>
  <rect x="441" y="120" width="8" height="25" fill="#66bb6a" rx="1"/>

  <line x1="465" y1="150" x2="465" y2="100" stroke="#66bb6a" stroke-width="1"/>
  <rect x="461" y="108" width="8" height="28" fill="#66bb6a" rx="1"/>

  <line x1="485" y1="145" x2="485" y2="95" stroke="#ef5350" stroke-width="1"/>
  <rect x="481" y="100" width="8" height="30" fill="#ef5350" rx="1"/>

  <line x1="505" y1="155" x2="505" y2="105" stroke="#ef5350" stroke-width="1"/>
  <rect x="501" y="110" width="8" height="30" fill="#ef5350" rx="1"/>

  <line x1="525" y1="160" x2="525" y2="115" stroke="#66bb6a" stroke-width="1"/>
  <rect x="521" y="125" width="8" height="22" fill="#66bb6a" rx="1"/>

  <line x1="545" y1="150" x2="545" y2="100" stroke="#66bb6a" stroke-width="1"/>
  <rect x="541" y="110" width="8" height="25" fill="#66bb6a" rx="1"/>

  <line x1="565" y1="140" x2="565" y2="90" stroke="#66bb6a" stroke-width="1"/>
  <rect x="561" y="98" width="8" height="28" fill="#66bb6a" rx="1"/>

  <line x1="585" y1="135" x2="585" y2="88" stroke="#ef5350" stroke-width="1"/>
  <rect x="581" y="92" width="8" height="28" fill="#ef5350" rx="1"/>

  <line x1="605" y1="145" x2="605" y2="95" stroke="#66bb6a" stroke-width="1"/>
  <rect x="601" y="105" width="8" height="25" fill="#66bb6a" rx="1"/>

  <line x1="625" y1="140" x2="625" y2="85" stroke="#66bb6a" stroke-width="1"/>
  <rect x="621" y="95" width="8" height="30" fill="#66bb6a" rx="1"/>

  <line x1="645" y1="130" x2="645" y2="80" stroke="#ef5350" stroke-width="1"/>
  <rect x="641" y="85" width="8" height="30" fill="#ef5350" rx="1"/>

  <line x1="665" y1="140" x2="665" y2="90" stroke="#66bb6a" stroke-width="1"/>
  <rect x="661" y="100" width="8" height="25" fill="#66bb6a" rx="1"/>

  <line x1="685" y1="135" x2="685" y2="82" stroke="#66bb6a" stroke-width="1"/>
  <rect x="681" y="90" width="8" height="28" fill="#66bb6a" rx="1"/>

  <line x1="705" y1="125" x2="705" y2="78" stroke="#66bb6a" stroke-width="1"/>
  <rect x="701" y="85" width="8" height="25" fill="#66bb6a" rx="1"/>

  <line x1="725" y1="130" x2="725" y2="75" stroke="#ef5350" stroke-width="1"/>
  <rect x="721" y="80" width="8" height="32" fill="#ef5350" rx="1"/>

  <line x1="745" y1="120" x2="745" y2="72" stroke="#66bb6a" stroke-width="1"/>
  <rect x="741" y="80" width="8" height="25" fill="#66bb6a" rx="1"/>

  <!-- Trend line (smooth curve) -->
  <path d="M85,170 C130,178 170,190 210,180 C250,170 290,155 330,145 C370,135 410,130 450,122 C490,114 530,118 570,108 C610,100 650,105 690,95 C720,88 740,85 745,82" fill="none" stroke="#42A5F5" stroke-width="2.5" stroke-linecap="round" filter="url(#glowBlue)"/>

  <!-- Separator -->
  <line x1="60" y1="275" x2="760" y2="275" stroke="#ffffff" stroke-opacity="0.15" stroke-width="1"/>

  <!-- Pane 2: Seasonal (y: 280-380) -->
  <text x="70" y="292" fill="#9e9e9e" font-size="9" font-weight="600">Seasonal</text>
  <!-- Zero line -->
  <line x1="60" y1="340" x2="760" y2="340" stroke="#ffffff" stroke-opacity="0.08" stroke-dasharray="4,3"/>
  <!-- Grid -->
  <line x1="60" y1="310" x2="760" y2="310" stroke="#ffffff" stroke-opacity="0.04"/>
  <line x1="60" y1="370" x2="760" y2="370" stroke="#ffffff" stroke-opacity="0.04"/>

  <!-- Seasonal sinusoidal wave -->
  <path d="M80,340 C95,318 110,305 130,310 C150,315 165,340 180,355 C195,370 210,375 230,368 C250,360 265,340 280,322 C295,305 310,300 330,308 C350,316 365,340 380,358 C395,375 410,378 430,368 C450,358 465,340 480,320 C495,302 510,298 530,308 C550,318 565,340 580,358 C595,375 610,378 630,366 C650,355 665,340 680,322 C695,305 710,300 730,310 C745,318 755,332 760,340" fill="none" stroke="#66bb6a" stroke-width="2" stroke-linecap="round" filter="url(#glowGreen)"/>

  <!-- Separator -->
  <line x1="60" y1="385" x2="760" y2="385" stroke="#ffffff" stroke-opacity="0.15" stroke-width="1"/>

  <!-- Pane 3: Residual (y: 390-450) -->
  <text x="70" y="400" fill="#9e9e9e" font-size="9" font-weight="600">Residual</text>
  <!-- Zero line -->
  <line x1="60" y1="430" x2="760" y2="430" stroke="#ffffff" stroke-opacity="0.08" stroke-dasharray="4,3"/>
  <!-- Grid -->
  <line x1="60" y1="415" x2="760" y2="415" stroke="#ffffff" stroke-opacity="0.04"/>
  <line x1="60" y1="445" x2="760" y2="445" stroke="#ffffff" stroke-opacity="0.04"/>

  <!-- Residual spiky line -->
  <path d="M80,430 L95,422 L105,438 L120,418 L135,435 L150,426 L165,442 L180,420 L195,434 L210,416 L225,440 L240,428 L255,415 L270,438 L285,422 L300,444 L315,426 L330,418 L345,436 L360,424 L375,442 L390,419 L405,435 L420,414 L435,440 L450,425 L465,438 L480,416 L495,434 L510,445 L525,420 L540,436 L555,418 L570,440 L585,424 L600,438 L615,416 L630,442 L645,426 L660,418 L675,440 L690,422 L705,436 L720,414 L735,438 L750,428 L760,430" fill="none" stroke="#FF7043" stroke-width="1.5" stroke-linecap="round" stroke-linejoin="round" filter="url(#glowOrange)"/>

  <!-- Legend -->
  <rect x="140" y="465" width="520" height="24" rx="4" fill="#ffffff" fill-opacity="0.05"/>

  <!-- Candlestick legend -->
  <rect x="160" y="472" width="6" height="10" fill="#66bb6a" rx="1"/>
  <rect x="170" y="474" width="6" height="10" fill="#ef5350" rx="1"/>
  <text x="182" y="482" fill="#bdbdbd" font-size="9">Candlesticks</text>

  <!-- Trend legend -->
  <line x1="270" y1="477" x2="290" y2="477" stroke="#42A5F5" stroke-width="2.5" stroke-linecap="round"/>
  <text x="296" y="482" fill="#bdbdbd" font-size="9">Trend Line</text>

  <!-- Seasonal legend -->
  <line x1="390" y1="477" x2="410" y2="477" stroke="#66bb6a" stroke-width="2" stroke-linecap="round"/>
  <text x="416" y="482" fill="#bdbdbd" font-size="9">Seasonal Component</text>

  <!-- Residual legend -->
  <line x1="540" y1="477" x2="560" y2="477" stroke="#FF7043" stroke-width="1.5" stroke-linecap="round"/>
  <text x="566" y="482" fill="#bdbdbd" font-size="9">Residual Component</text>
</svg>
