<svg xmlns="http://www.w3.org/2000/svg" viewBox="0 0 800 500">
  <defs>
    <linearGradient id="bg" x1="0" y1="0" x2="0" y2="1">
      <stop offset="0%" stop-color="#1a1a2e"/>
      <stop offset="100%" stop-color="#16213e"/>
    </linearGradient>
  </defs>
  <rect width="800" height="500" fill="url(#bg)" rx="8"/>
  <text x="400" y="35" text-anchor="middle" fill="#e0e0e0" font-family="Inter,sans-serif" font-size="18" font-weight="600">Regression Volume Profile</text>
  <text x="400" y="55" text-anchor="middle" fill="#666" font-family="Inter,sans-serif" font-size="11">tradegrub.finance</text>

  <rect x="60" y="70" width="700" height="380" fill="rgba(255,255,255,0.02)" rx="4"/>
  <text x="70" y="88" fill="#888" font-family="Inter,sans-serif" font-size="10">Price</text>

  <!-- Candles -->
  <line x1="100" y1="280" x2="100" y2="310" stroke="#555" stroke-width="1"/><rect x="96" y="285" width="8" height="18" fill="#4CAF50" rx="1"/>
  <line x1="140" y1="270" x2="140" y2="300" stroke="#555" stroke-width="1"/><rect x="136" y="273" width="8" height="20" fill="#4CAF50" rx="1"/>
  <line x1="180" y1="255" x2="180" y2="290" stroke="#555" stroke-width="1"/><rect x="176" y="260" width="8" height="22" fill="#4CAF50" rx="1"/>
  <line x1="220" y1="240" x2="220" y2="275" stroke="#555" stroke-width="1"/><rect x="216" y="248" width="8" height="18" fill="#f44336" rx="1"/>
  <line x1="260" y1="230" x2="260" y2="265" stroke="#555" stroke-width="1"/><rect x="256" y="235" width="8" height="22" fill="#4CAF50" rx="1"/>
  <line x1="300" y1="215" x2="300" y2="250" stroke="#555" stroke-width="1"/><rect x="296" y="220" width="8" height="22" fill="#4CAF50" rx="1"/>
  <line x1="340" y1="200" x2="340" y2="238" stroke="#555" stroke-width="1"/><rect x="336" y="208" width="8" height="20" fill="#f44336" rx="1"/>
  <line x1="380" y1="195" x2="380" y2="230" stroke="#555" stroke-width="1"/><rect x="376" y="198" width="8" height="22" fill="#4CAF50" rx="1"/>
  <line x1="420" y1="185" x2="420" y2="220" stroke="#555" stroke-width="1"/><rect x="416" y="190" width="8" height="20" fill="#4CAF50" rx="1"/>
  <line x1="460" y1="175" x2="460" y2="212" stroke="#555" stroke-width="1"/><rect x="456" y="180" width="8" height="22" fill="#4CAF50" rx="1"/>
  <line x1="500" y1="165" x2="500" y2="200" stroke="#555" stroke-width="1"/><rect x="496" y="172" width="8" height="18" fill="#f44336" rx="1"/>
  <line x1="540" y1="155" x2="540" y2="190" stroke="#555" stroke-width="1"/><rect x="536" y="160" width="8" height="22" fill="#4CAF50" rx="1"/>
  <line x1="580" y1="145" x2="580" y2="180" stroke="#555" stroke-width="1"/><rect x="576" y="150" width="8" height="20" fill="#4CAF50" rx="1"/>
  <line x1="620" y1="135" x2="620" y2="170" stroke="#555" stroke-width="1"/><rect x="616" y="140" width="8" height="22" fill="#4CAF50" rx="1"/>
  <line x1="660" y1="128" x2="660" y2="162" stroke="#555" stroke-width="1"/><rect x="656" y="133" width="8" height="18" fill="#4CAF50" rx="1"/>
  <line x1="700" y1="120" x2="700" y2="155" stroke="#555" stroke-width="1"/><rect x="696" y="125" width="8" height="20" fill="#4CAF50" rx="1"/>

  <!-- Regression curve -->
  <path d="M100,295 Q400,220 700,135" fill="none" stroke="#2196F3" stroke-width="2.5"/>

  <!-- Volume levels (horizontal dashed) -->
  <line x1="60" y1="240" x2="760" y2="240" stroke="#FF9800" stroke-width="1.5" stroke-dasharray="6,4" opacity="0.7"/>
  <text x="765" y="244" fill="#FF9800" font-family="Inter,sans-serif" font-size="9">Vol 1</text>
  <line x1="60" y1="195" x2="760" y2="195" stroke="#FF9800" stroke-width="1.5" stroke-dasharray="6,4" opacity="0.5"/>
  <text x="765" y="199" fill="#FF9800" font-family="Inter,sans-serif" font-size="9">Vol 2</text>
  <line x1="60" y1="160" x2="760" y2="160" stroke="#FF9800" stroke-width="1.5" stroke-dasharray="6,4" opacity="0.4"/>
  <text x="765" y="164" fill="#FF9800" font-family="Inter,sans-serif" font-size="9">Vol 3</text>

  <!-- Legend -->
  <rect x="60" y="460" width="700" height="30" fill="rgba(255,255,255,0.03)" rx="4"/>
  <line x1="80" y1="475" x2="110" y2="475" stroke="#2196F3" stroke-width="2.5"/>
  <text x="115" y="479" fill="#ccc" font-family="Inter,sans-serif" font-size="11">Regression</text>
  <line x1="230" y1="475" x2="260" y2="475" stroke="#FF9800" stroke-width="1.5" stroke-dasharray="5,3"/>
  <text x="265" y="479" fill="#ccc" font-family="Inter,sans-serif" font-size="11">High Volume Levels</text>
</svg>
