<svg xmlns="http://www.w3.org/2000/svg" viewBox="0 0 800 500">
  <defs>
    <linearGradient id="bg" x1="0" y1="0" x2="0" y2="1">
      <stop offset="0%" stop-color="#1a1a2e"/>
      <stop offset="100%" stop-color="#16213e"/>
    </linearGradient>
  </defs>
  <rect width="800" height="500" fill="url(#bg)" rx="8"/>
  <text x="400" y="35" text-anchor="middle" fill="#e0e0e0" font-family="Inter,sans-serif" font-size="18" font-weight="600">Session Range Profiler</text>
  <text x="400" y="55" text-anchor="middle" fill="#666" font-family="Inter,sans-serif" font-size="11">tradegrub.finance</text>
  <line x1="60" y1="70" x2="60" y2="420" stroke="#333" stroke-width="1"/>
  <line x1="60" y1="420" x2="760" y2="420" stroke="#333" stroke-width="1"/>
  <!-- Background shading for direction -->
  <rect x="100" y="80" width="200" height="330" fill="rgba(76,175,80,0.06)"/>
  <rect x="300" y="80" width="150" height="330" fill="rgba(239,83,80,0.06)"/>
  <rect x="450" y="80" width="300" height="330" fill="rgba(76,175,80,0.06)"/>
  <!-- Session range line -->
  <polyline points="100,300 130,280 160,250 190,230 220,210 250,190 280,220 310,260 340,290 370,310 400,280 430,250 460,220 490,200 520,180 550,160 580,170 610,200 640,230 670,250 700,270 730,280" fill="none" stroke="#42A5F5" stroke-width="2"/>
  <!-- Average range line -->
  <polyline points="100,270 200,260 300,250 400,260 500,240 600,230 730,250" fill="none" stroke="#FFA726" stroke-width="1" stroke-dasharray="6,3"/>
  <!-- Volume intensity bars at bottom -->
  <rect x="100" y="380" width="20" height="30" fill="rgba(171,71,188,0.3)" rx="1"/>
  <rect x="135" y="375" width="20" height="35" fill="rgba(171,71,188,0.3)" rx="1"/>
  <rect x="170" y="370" width="20" height="40" fill="rgba(171,71,188,0.3)" rx="1"/>
  <rect x="205" y="365" width="20" height="45" fill="rgba(171,71,188,0.4)" rx="1"/>
  <rect x="240" y="360" width="20" height="50" fill="rgba(171,71,188,0.4)" rx="1"/>
  <rect x="275" y="375" width="20" height="35" fill="rgba(171,71,188,0.3)" rx="1"/>
  <rect x="310" y="385" width="20" height="25" fill="rgba(171,71,188,0.2)" rx="1"/>
  <rect x="345" y="390" width="20" height="20" fill="rgba(171,71,188,0.2)" rx="1"/>
  <rect x="380" y="370" width="20" height="40" fill="rgba(171,71,188,0.3)" rx="1"/>
  <rect x="415" y="360" width="20" height="50" fill="rgba(171,71,188,0.4)" rx="1"/>
  <rect x="450" y="355" width="20" height="55" fill="rgba(171,71,188,0.4)" rx="1"/>
  <rect x="485" y="350" width="20" height="60" fill="rgba(171,71,188,0.5)" rx="1"/>
  <rect x="520" y="360" width="20" height="50" fill="rgba(171,71,188,0.4)" rx="1"/>
  <rect x="555" y="370" width="20" height="40" fill="rgba(171,71,188,0.3)" rx="1"/>
  <rect x="590" y="375" width="20" height="35" fill="rgba(171,71,188,0.3)" rx="1"/>
  <rect x="625" y="380" width="20" height="30" fill="rgba(171,71,188,0.3)" rx="1"/>
  <!-- Annotations -->
  <text x="200" y="95" text-anchor="middle" fill="rgba(76,175,80,0.5)" font-family="Inter,sans-serif" font-size="10">Bullish Bias</text>
  <text x="375" y="95" text-anchor="middle" fill="rgba(239,83,80,0.5)" font-family="Inter,sans-serif" font-size="10">Bearish Bias</text>
  <text x="600" y="95" text-anchor="middle" fill="rgba(76,175,80,0.5)" font-family="Inter,sans-serif" font-size="10">Bullish Bias</text>
  <!-- Legend -->
  <rect x="130" y="450" width="540" height="30" rx="4" fill="rgba(255,255,255,0.03)"/>
  <line x1="160" y1="465" x2="180" y2="465" stroke="#42A5F5" stroke-width="2"/>
  <text x="186" y="469" fill="#aaa" font-family="Inter,sans-serif" font-size="10">Session Range</text>
  <line x1="300" y1="465" x2="320" y2="465" stroke="#FFA726" stroke-width="1" stroke-dasharray="4,3"/>
  <text x="326" y="469" fill="#aaa" font-family="Inter,sans-serif" font-size="10">Avg Range</text>
  <rect x="420" y="460" width="10" height="10" fill="rgba(171,71,188,0.4)" rx="1"/>
  <text x="436" y="469" fill="#aaa" font-family="Inter,sans-serif" font-size="10">Volume</text>
  <rect x="500" y="460" width="10" height="10" fill="rgba(76,175,80,0.1)" rx="1"/>
  <text x="516" y="469" fill="#aaa" font-family="Inter,sans-serif" font-size="10">Bull</text>
  <rect x="560" y="460" width="10" height="10" fill="rgba(239,83,80,0.1)" rx="1"/>
  <text x="576" y="469" fill="#aaa" font-family="Inter,sans-serif" font-size="10">Bear</text>
</svg>