<svg xmlns="http://www.w3.org/2000/svg" viewBox="0 0 800 500" font-family="Inter, system-ui, sans-serif">
  <defs>
    <linearGradient id="bg" x1="0" y1="0" x2="0" y2="1">
      <stop offset="0%" stop-color="#1a1a2e"/>
      <stop offset="100%" stop-color="#16213e"/>
    </linearGradient>
    <filter id="glow">
      <feGaussianBlur stdDeviation="3" result="blur"/>
      <feMerge><feMergeNode in="blur"/><feMergeNode in="SourceGraphic"/></feMerge>
    </filter>
  </defs>

  <rect width="800" height="500" fill="url(#bg)" rx="8"/>

  <g stroke="#ffffff" stroke-opacity="0.04" stroke-width="1">
    <line x1="80" y1="60" x2="80" y2="420"/><line x1="200" y1="60" x2="200" y2="420"/>
    <line x1="320" y1="60" x2="320" y2="420"/><line x1="440" y1="60" x2="440" y2="420"/>
    <line x1="560" y1="60" x2="560" y2="420"/><line x1="680" y1="60" x2="680" y2="420"/>
    <line x1="60" y1="120" x2="760" y2="120"/><line x1="60" y1="200" x2="760" y2="200"/>
    <line x1="60" y1="280" x2="760" y2="280"/><line x1="60" y1="360" x2="760" y2="360"/>
  </g>

  <text x="400" y="30" text-anchor="middle" fill="#e0e0e0" font-size="16" font-weight="600">Session Edge Profiler</text>
  <text x="400" y="48" text-anchor="middle" fill="#888" font-size="11">tradegrub.finance</text>

  <!-- Session background zones -->
  <rect x="80" y="60" width="200" height="360" fill="#e040fb" fill-opacity="0.04"/>
  <rect x="280" y="60" width="220" height="360" fill="#42a5f5" fill-opacity="0.04"/>
  <rect x="500" y="60" width="260" height="360" fill="#ff9800" fill-opacity="0.04"/>

  <!-- Session labels -->
  <text x="180" y="78" text-anchor="middle" fill="#e040fb" font-size="11" font-weight="600">Asian</text>
  <text x="390" y="78" text-anchor="middle" fill="#42a5f5" font-size="11" font-weight="600">London</text>
  <text x="630" y="78" text-anchor="middle" fill="#ff9800" font-size="11" font-weight="600">New York</text>

  <!-- Session time labels -->
  <text x="180" y="92" text-anchor="middle" fill="#888" font-size="8">00:00-08:00 UTC</text>
  <text x="390" y="92" text-anchor="middle" fill="#888" font-size="8">08:00-16:00 UTC</text>
  <text x="630" y="92" text-anchor="middle" fill="#888" font-size="8">13:00-21:00 UTC</text>

  <!-- Asian session candles (smaller range, tight) -->
  <line x1="100" y1="190" x2="100" y2="220" stroke="#26a69a" stroke-width="1"/><rect x="96" y="198" width="8" height="15" fill="#26a69a" rx="1"/>
  <line x1="125" y1="192" x2="125" y2="218" stroke="#ef5350" stroke-width="1"/><rect x="121" y="195" width="8" height="15" fill="#ef5350" rx="1"/>
  <line x1="150" y1="188" x2="150" y2="215" stroke="#26a69a" stroke-width="1"/><rect x="146" y="195" width="8" height="12" fill="#26a69a" rx="1"/>
  <line x1="175" y1="192" x2="175" y2="216" stroke="#ef5350" stroke-width="1"/><rect x="171" y="195" width="8" height="14" fill="#ef5350" rx="1"/>
  <line x1="200" y1="186" x2="200" y2="214" stroke="#26a69a" stroke-width="1"/><rect x="196" y="192" width="8" height="14" fill="#26a69a" rx="1"/>
  <line x1="225" y1="190" x2="225" y2="215" stroke="#26a69a" stroke-width="1"/><rect x="221" y="195" width="8" height="12" fill="#26a69a" rx="1"/>
  <line x1="250" y1="188" x2="250" y2="212" stroke="#ef5350" stroke-width="1"/><rect x="246" y="192" width="8" height="12" fill="#ef5350" rx="1"/>

  <!-- London session candles (bigger range, volatile) -->
  <line x1="300" y1="168" x2="300" y2="228" stroke="#26a69a" stroke-width="1"/><rect x="296" y="178" width="8" height="35" fill="#26a69a" rx="1"/>
  <line x1="325" y1="155" x2="325" y2="218" stroke="#26a69a" stroke-width="1"/><rect x="321" y="165" width="8" height="35" fill="#26a69a" rx="1"/>
  <line x1="350" y1="148" x2="350" y2="210" stroke="#ef5350" stroke-width="1"/><rect x="346" y="155" width="8" height="35" fill="#ef5350" rx="1"/>
  <line x1="375" y1="140" x2="375" y2="202" stroke="#26a69a" stroke-width="1"/><rect x="371" y="148" width="8" height="35" fill="#26a69a" rx="1"/>
  <line x1="400" y1="132" x2="400" y2="195" stroke="#26a69a" stroke-width="1"/><rect x="396" y="140" width="8" height="38" fill="#26a69a" rx="1"/>
  <line x1="425" y1="125" x2="425" y2="188" stroke="#ef5350" stroke-width="1"/><rect x="421" y="132" width="8" height="32" fill="#ef5350" rx="1"/>
  <line x1="450" y1="120" x2="450" y2="182" stroke="#26a69a" stroke-width="1"/><rect x="446" y="128" width="8" height="35" fill="#26a69a" rx="1"/>
  <line x1="475" y1="115" x2="475" y2="178" stroke="#26a69a" stroke-width="1"/><rect x="471" y="122" width="8" height="38" fill="#26a69a" rx="1"/>

  <!-- New York session candles (medium range) -->
  <line x1="520" y1="110" x2="520" y2="165" stroke="#ef5350" stroke-width="1"/><rect x="516" y="118" width="8" height="30" fill="#ef5350" rx="1"/>
  <line x1="545" y1="118" x2="545" y2="172" stroke="#26a69a" stroke-width="1"/><rect x="541" y="135" width="8" height="25" fill="#26a69a" rx="1"/>
  <line x1="570" y1="115" x2="570" y2="168" stroke="#ef5350" stroke-width="1"/><rect x="566" y="120" width="8" height="28" fill="#ef5350" rx="1"/>
  <line x1="595" y1="122" x2="595" y2="175" stroke="#26a69a" stroke-width="1"/><rect x="591" y="138" width="8" height="22" fill="#26a69a" rx="1"/>
  <line x1="620" y1="128" x2="620" y2="178" stroke="#ef5350" stroke-width="1"/><rect x="616" y="135" width="8" height="25" fill="#ef5350" rx="1"/>
  <line x1="645" y1="130" x2="645" y2="180" stroke="#26a69a" stroke-width="1"/><rect x="641" y="142" width="8" height="22" fill="#26a69a" rx="1"/>
  <line x1="670" y1="135" x2="670" y2="182" stroke="#26a69a" stroke-width="1"/><rect x="666" y="145" width="8" height="22" fill="#26a69a" rx="1"/>
  <line x1="695" y1="140" x2="695" y2="185" stroke="#ef5350" stroke-width="1"/><rect x="691" y="148" width="8" height="22" fill="#ef5350" rx="1"/>
  <line x1="720" y1="145" x2="720" y2="188" stroke="#26a69a" stroke-width="1"/><rect x="716" y="155" width="8" height="20" fill="#26a69a" rx="1"/>
  <line x1="745" y1="148" x2="745" y2="190" stroke="#26a69a" stroke-width="1"/><rect x="741" y="158" width="8" height="18" fill="#26a69a" rx="1"/>

  <!-- Session range brackets -->
  <line x1="88" y1="185" x2="88" y2="222" stroke="#e040fb" stroke-width="1.5" opacity="0.5"/>
  <line x1="85" y1="185" x2="91" y2="185" stroke="#e040fb" stroke-width="1.5" opacity="0.5"/>
  <line x1="85" y1="222" x2="91" y2="222" stroke="#e040fb" stroke-width="1.5" opacity="0.5"/>
  <text x="83" y="207" fill="#e040fb" font-size="7" text-anchor="end">Small</text>

  <line x1="288" y1="115" x2="288" y2="230" stroke="#42a5f5" stroke-width="1.5" opacity="0.5"/>
  <line x1="285" y1="115" x2="291" y2="115" stroke="#42a5f5" stroke-width="1.5" opacity="0.5"/>
  <line x1="285" y1="230" x2="291" y2="230" stroke="#42a5f5" stroke-width="1.5" opacity="0.5"/>
  <text x="283" y="175" fill="#42a5f5" font-size="7" text-anchor="end">Large</text>

  <!-- Dashboard stats panel at bottom -->
  <line x1="60" y1="260" x2="760" y2="260" stroke="#ffffff" stroke-opacity="0.08" stroke-width="1"/>

  <!-- Stats boxes -->
  <!-- Asian stats -->
  <rect x="85" y="270" width="190" height="110" rx="4" fill="#e040fb" fill-opacity="0.05" stroke="#e040fb" stroke-width="0.8" stroke-opacity="0.2"/>
  <text x="180" y="290" text-anchor="middle" fill="#e040fb" font-size="10" font-weight="600">Asian Session</text>
  <text x="105" y="310" fill="#999" font-size="9">Avg Range:</text><text x="250" y="310" fill="#e0e0e0" font-size="9" text-anchor="end">0.3%</text>
  <text x="105" y="325" fill="#999" font-size="9">Win Rate:</text><text x="250" y="325" fill="#e0e0e0" font-size="9" text-anchor="end">48%</text>
  <text x="105" y="340" fill="#999" font-size="9">Z-Score:</text><text x="250" y="340" fill="#e0e0e0" font-size="9" text-anchor="end">-0.2</text>
  <text x="105" y="355" fill="#999" font-size="9">Direction:</text><text x="250" y="355" fill="#ff9800" font-size="9" text-anchor="end">Neutral</text>
  <text x="105" y="370" fill="#999" font-size="9">Edge:</text><text x="250" y="370" fill="#ef5350" font-size="9" text-anchor="end">Weak</text>

  <!-- London stats -->
  <rect x="285" y="270" width="210" height="110" rx="4" fill="#42a5f5" fill-opacity="0.05" stroke="#42a5f5" stroke-width="0.8" stroke-opacity="0.2"/>
  <text x="390" y="290" text-anchor="middle" fill="#42a5f5" font-size="10" font-weight="600">London Session</text>
  <text x="305" y="310" fill="#999" font-size="9">Avg Range:</text><text x="470" y="310" fill="#e0e0e0" font-size="9" text-anchor="end">1.2%</text>
  <text x="305" y="325" fill="#999" font-size="9">Win Rate:</text><text x="470" y="325" fill="#e0e0e0" font-size="9" text-anchor="end">62%</text>
  <text x="305" y="340" fill="#999" font-size="9">Z-Score:</text><text x="470" y="340" fill="#e0e0e0" font-size="9" text-anchor="end">+1.8</text>
  <text x="305" y="355" fill="#999" font-size="9">Direction:</text><text x="470" y="355" fill="#26a69a" font-size="9" text-anchor="end">Bullish</text>
  <text x="305" y="370" fill="#999" font-size="9">Edge:</text><text x="470" y="370" fill="#00e676" font-size="9" text-anchor="end" font-weight="600">Strong</text>

  <!-- New York stats -->
  <rect x="505" y="270" width="250" height="110" rx="4" fill="#ff9800" fill-opacity="0.05" stroke="#ff9800" stroke-width="0.8" stroke-opacity="0.2"/>
  <text x="630" y="290" text-anchor="middle" fill="#ff9800" font-size="10" font-weight="600">New York Session</text>
  <text x="525" y="310" fill="#999" font-size="9">Avg Range:</text><text x="730" y="310" fill="#e0e0e0" font-size="9" text-anchor="end">0.9%</text>
  <text x="525" y="325" fill="#999" font-size="9">Win Rate:</text><text x="730" y="325" fill="#e0e0e0" font-size="9" text-anchor="end">55%</text>
  <text x="525" y="340" fill="#999" font-size="9">Z-Score:</text><text x="730" y="340" fill="#e0e0e0" font-size="9" text-anchor="end">+0.5</text>
  <text x="525" y="355" fill="#999" font-size="9">Direction:</text><text x="730" y="355" fill="#ef5350" font-size="9" text-anchor="end">Bearish</text>
  <text x="525" y="370" fill="#999" font-size="9">Edge:</text><text x="730" y="370" fill="#ff9800" font-size="9" text-anchor="end">Moderate</text>

  <!-- Volume bars -->
  <g opacity="0.4">
    <rect x="96" y="405" width="8" height="8" fill="#e040fb" rx="1"/>
    <rect x="121" y="406" width="8" height="7" fill="#e040fb" rx="1"/>
    <rect x="146" y="407" width="8" height="6" fill="#e040fb" rx="1"/>
    <rect x="171" y="406" width="8" height="7" fill="#e040fb" rx="1"/>
    <rect x="196" y="405" width="8" height="8" fill="#e040fb" rx="1"/>
    <rect x="221" y="407" width="8" height="6" fill="#e040fb" rx="1"/>
    <rect x="246" y="406" width="8" height="7" fill="#e040fb" rx="1"/>
    <rect x="296" y="393" width="8" height="20" fill="#42a5f5" rx="1"/>
    <rect x="321" y="390" width="8" height="23" fill="#42a5f5" rx="1"/>
    <rect x="346" y="395" width="8" height="18" fill="#42a5f5" rx="1"/>
    <rect x="371" y="392" width="8" height="21" fill="#42a5f5" rx="1"/>
    <rect x="396" y="388" width="8" height="25" fill="#42a5f5" rx="1"/>
    <rect x="421" y="393" width="8" height="20" fill="#42a5f5" rx="1"/>
    <rect x="446" y="390" width="8" height="23" fill="#42a5f5" rx="1"/>
    <rect x="471" y="392" width="8" height="21" fill="#42a5f5" rx="1"/>
    <rect x="516" y="395" width="8" height="18" fill="#ff9800" rx="1"/>
    <rect x="541" y="397" width="8" height="16" fill="#ff9800" rx="1"/>
    <rect x="566" y="395" width="8" height="18" fill="#ff9800" rx="1"/>
    <rect x="591" y="398" width="8" height="15" fill="#ff9800" rx="1"/>
    <rect x="616" y="395" width="8" height="18" fill="#ff9800" rx="1"/>
    <rect x="641" y="397" width="8" height="16" fill="#ff9800" rx="1"/>
    <rect x="666" y="398" width="8" height="15" fill="#ff9800" rx="1"/>
    <rect x="691" y="400" width="8" height="13" fill="#ff9800" rx="1"/>
    <rect x="716" y="400" width="8" height="13" fill="#ff9800" rx="1"/>
    <rect x="741" y="402" width="8" height="11" fill="#ff9800" rx="1"/>
  </g>

  <!-- Legend -->
  <g transform="translate(60, 445)">
    <rect width="680" height="40" rx="4" fill="#ffffff" fill-opacity="0.03"/>
    <circle cx="20" cy="20" r="4" fill="#e040fb"/>
    <text x="30" y="24" fill="#999" font-size="9">Asian Session</text>
    <circle cx="140" cy="20" r="4" fill="#42a5f5"/>
    <text x="150" y="24" fill="#999" font-size="9">London Session</text>
    <circle cx="270" cy="20" r="4" fill="#ff9800"/>
    <text x="280" y="24" fill="#999" font-size="9">New York Session</text>
    <circle cx="420" cy="20" r="4" fill="#00e676"/>
    <text x="430" y="24" fill="#999" font-size="9">Strong Edge</text>
    <circle cx="530" cy="20" r="4" fill="#ef5350"/>
    <text x="540" y="24" fill="#999" font-size="9">Weak Edge</text>
  </g>
</svg>