<svg xmlns="http://www.w3.org/2000/svg" viewBox="0 0 800 500" font-family="Inter, system-ui, sans-serif">
  <defs>
    <linearGradient id="bg" x1="0" y1="0" x2="0" y2="1">
      <stop offset="0%" stop-color="#1a1a2e"/>
      <stop offset="100%" stop-color="#16213e"/>
    </linearGradient>
    <filter id="glow">
      <feGaussianBlur stdDeviation="3" result="blur"/>
      <feMerge><feMergeNode in="blur"/><feMergeNode in="SourceGraphic"/></feMerge>
    </filter>
    <filter id="softGlow">
      <feGaussianBlur stdDeviation="2" result="blur"/>
      <feMerge><feMergeNode in="blur"/><feMergeNode in="SourceGraphic"/></feMerge>
    </filter>
  </defs>

  <rect width="800" height="500" fill="url(#bg)" rx="8"/>

  <g stroke="#ffffff" stroke-opacity="0.04" stroke-width="1">
    <line x1="80" y1="60" x2="80" y2="280"/><line x1="200" y1="60" x2="200" y2="280"/>
    <line x1="320" y1="60" x2="320" y2="280"/><line x1="440" y1="60" x2="440" y2="280"/>
    <line x1="560" y1="60" x2="560" y2="280"/><line x1="680" y1="60" x2="680" y2="280"/>
    <line x1="60" y1="100" x2="760" y2="100"/><line x1="60" y1="170" x2="760" y2="170"/>
    <line x1="60" y1="240" x2="760" y2="240"/>
  </g>

  <text x="400" y="30" text-anchor="middle" fill="#e0e0e0" font-size="16" font-weight="600">MACD Crossover Strategy</text>
  <text x="400" y="48" text-anchor="middle" fill="#888" font-size="11">tradegrub.finance</text>

  <!-- Price panel - top 55% -->
  <!-- Candlesticks showing price movement -->
  <line x1="95" y1="200" x2="95" y2="250" stroke="#ef5350" stroke-width="1"/>
  <rect x="91" y="210" width="8" height="28" fill="#ef5350" rx="1"/>
  <line x1="120" y1="215" x2="120" y2="260" stroke="#ef5350" stroke-width="1"/>
  <rect x="116" y="225" width="8" height="25" fill="#ef5350" rx="1"/>
  <line x1="145" y1="228" x2="145" y2="270" stroke="#ef5350" stroke-width="1"/>
  <rect x="141" y="238" width="8" height="22" fill="#ef5350" rx="1"/>
  <line x1="170" y1="235" x2="170" y2="275" stroke="#26a69a" stroke-width="1"/>
  <rect x="166" y="248" width="8" height="18" fill="#26a69a" rx="1"/>
  <line x1="195" y1="225" x2="195" y2="265" stroke="#26a69a" stroke-width="1"/>
  <rect x="191" y="238" width="8" height="18" fill="#26a69a" rx="1"/>
  <line x1="220" y1="210" x2="220" y2="250" stroke="#26a69a" stroke-width="1"/>
  <rect x="216" y="218" width="8" height="22" fill="#26a69a" rx="1"/>
  <line x1="250" y1="195" x2="250" y2="235" stroke="#26a69a" stroke-width="1"/>
  <rect x="246" y="202" width="8" height="22" fill="#26a69a" rx="1"/>
  <line x1="280" y1="178" x2="280" y2="218" stroke="#26a69a" stroke-width="1"/>
  <rect x="276" y="185" width="8" height="22" fill="#26a69a" rx="1"/>
  <line x1="310" y1="160" x2="310" y2="198" stroke="#26a69a" stroke-width="1"/>
  <rect x="306" y="168" width="8" height="20" fill="#26a69a" rx="1"/>
  <line x1="340" y1="145" x2="340" y2="180" stroke="#26a69a" stroke-width="1"/>
  <rect x="336" y="152" width="8" height="18" fill="#26a69a" rx="1"/>
  <line x1="370" y1="130" x2="370" y2="168" stroke="#26a69a" stroke-width="1"/>
  <rect x="366" y="138" width="8" height="20" fill="#26a69a" rx="1"/>
  <line x1="400" y1="118" x2="400" y2="155" stroke="#26a69a" stroke-width="1"/>
  <rect x="396" y="125" width="8" height="20" fill="#26a69a" rx="1"/>
  <line x1="430" y1="110" x2="430" y2="148" stroke="#ef5350" stroke-width="1"/>
  <rect x="426" y="115" width="8" height="22" fill="#ef5350" rx="1"/>
  <line x1="460" y1="118" x2="460" y2="158" stroke="#ef5350" stroke-width="1"/>
  <rect x="456" y="125" width="8" height="22" fill="#ef5350" rx="1"/>
  <line x1="490" y1="128" x2="490" y2="168" stroke="#ef5350" stroke-width="1"/>
  <rect x="486" y="135" width="8" height="22" fill="#ef5350" rx="1"/>
  <line x1="520" y1="140" x2="520" y2="180" stroke="#ef5350" stroke-width="1"/>
  <rect x="516" y="148" width="8" height="22" fill="#ef5350" rx="1"/>
  <line x1="550" y1="155" x2="550" y2="195" stroke="#ef5350" stroke-width="1"/>
  <rect x="546" y="162" width="8" height="22" fill="#ef5350" rx="1"/>
  <line x1="580" y1="162" x2="580" y2="205" stroke="#26a69a" stroke-width="1"/>
  <rect x="576" y="175" width="8" height="18" fill="#26a69a" rx="1"/>
  <line x1="610" y1="152" x2="610" y2="195" stroke="#26a69a" stroke-width="1"/>
  <rect x="606" y="162" width="8" height="22" fill="#26a69a" rx="1"/>
  <line x1="640" y1="138" x2="640" y2="180" stroke="#26a69a" stroke-width="1"/>
  <rect x="636" y="148" width="8" height="22" fill="#26a69a" rx="1"/>
  <line x1="670" y1="125" x2="670" y2="165" stroke="#26a69a" stroke-width="1"/>
  <rect x="666" y="132" width="8" height="22" fill="#26a69a" rx="1"/>
  <line x1="700" y1="115" x2="700" y2="155" stroke="#26a69a" stroke-width="1"/>
  <rect x="696" y="122" width="8" height="22" fill="#26a69a" rx="1"/>
  <line x1="730" y1="108" x2="730" y2="148" stroke="#26a69a" stroke-width="1"/>
  <rect x="726" y="115" width="8" height="22" fill="#26a69a" rx="1"/>

  <!-- Separator -->
  <line x1="60" y1="290" x2="760" y2="290" stroke="#ffffff" stroke-opacity="0.08" stroke-width="1"/>
  <text x="65" y="305" fill="#888" font-size="9">MACD</text>

  <!-- MACD panel -->
  <!-- Zero line -->
  <line x1="80" y1="370" x2="740" y2="370" stroke="#ffffff" stroke-opacity="0.1" stroke-width="1"/>
  <text x="745" y="373" fill="#666" font-size="8">0</text>

  <!-- MACD Line -->
  <path d="M95,390 Q130,395 160,398 Q190,395 210,385 Q240,370 270,352 Q300,338 330,328 Q360,322 390,320 Q420,325 450,338 Q480,355 510,370 Q540,382 560,388 Q580,390 600,385 Q620,375 640,362 Q660,348 680,338 Q700,332 730,330" fill="none" stroke="#42a5f5" stroke-width="2"/>
  <text x="735" y="333" fill="#42a5f5" font-size="9">MACD</text>

  <!-- Signal Line -->
  <path d="M95,388 Q130,390 160,394 Q190,396 210,392 Q240,382 270,365 Q300,348 330,338 Q360,330 390,325 Q420,322 450,328 Q480,342 510,358 Q540,375 560,385 Q580,390 600,392 Q620,385 640,372 Q660,358 680,345 Q700,338 730,335" fill="none" stroke="#ff9800" stroke-width="1.5" stroke-dasharray="5,3"/>
  <text x="735" y="338" fill="#ff9800" font-size="9">Signal</text>

  <!-- Histogram bars -->
  <g opacity="0.6">
    <rect x="93" y="370" width="5" height="20" fill="#ef5350" rx="1"/>
    <rect x="118" y="370" width="5" height="24" fill="#ef5350" rx="1"/>
    <rect x="143" y="370" width="5" height="26" fill="#ef5350" rx="1"/>
    <rect x="168" y="370" width="5" height="22" fill="#ef5350" rx="1"/>
  </g>

  <!-- Bullish crossover -->
  <circle cx="200" cy="388" r="6" fill="none" stroke="#00e676" stroke-width="2" filter="url(#glow)"/>
  <line x1="200" y1="280" x2="200" y2="380" stroke="#00e676" stroke-width="1" stroke-dasharray="3,3" opacity="0.3"/>
  <g filter="url(#softGlow)">
    <polygon points="198,75 208,75 203,62" fill="#00e676"/>
  </g>
  <rect x="148" y="65" width="50" height="18" rx="4" fill="#00e676" fill-opacity="0.15" stroke="#00e676" stroke-width="1" stroke-opacity="0.4"/>
  <text x="173" y="78" text-anchor="middle" fill="#00e676" font-size="10" font-weight="600">BUY</text>

  <!-- Bullish histogram -->
  <g opacity="0.6">
    <rect x="203" y="360" width="5" height="10" fill="#26a69a" rx="1"/>
    <rect x="228" y="348" width="5" height="22" fill="#26a69a" rx="1"/>
    <rect x="253" y="335" width="5" height="35" fill="#26a69a" rx="1"/>
    <rect x="278" y="328" width="5" height="42" fill="#26a69a" rx="1"/>
    <rect x="303" y="322" width="5" height="48" fill="#26a69a" rx="1"/>
    <rect x="328" y="320" width="5" height="50" fill="#26a69a" rx="1"/>
    <rect x="353" y="322" width="5" height="48" fill="#26a69a" rx="1"/>
    <rect x="378" y="328" width="5" height="42" fill="#26a69a" rx="1"/>
    <rect x="403" y="340" width="5" height="30" fill="#26a69a" rx="1"/>
    <rect x="428" y="355" width="5" height="15" fill="#26a69a" rx="1"/>
  </g>

  <!-- Bearish crossover -->
  <circle cx="460" cy="335" r="6" fill="none" stroke="#ef5350" stroke-width="2" filter="url(#glow)"/>
  <line x1="460" y1="280" x2="460" y2="328" stroke="#ef5350" stroke-width="1" stroke-dasharray="3,3" opacity="0.3"/>
  <g filter="url(#softGlow)">
    <polygon points="458,270 468,270 463,283" fill="#ef5350"/>
  </g>
  <rect x="415" y="255" width="50" height="18" rx="4" fill="#ef5350" fill-opacity="0.15" stroke="#ef5350" stroke-width="1" stroke-opacity="0.4"/>
  <text x="440" y="268" text-anchor="middle" fill="#ef5350" font-size="10" font-weight="600">EXIT</text>

  <!-- Bearish histogram -->
  <g opacity="0.6">
    <rect x="458" y="370" width="5" height="8" fill="#ef5350" rx="1"/>
    <rect x="483" y="370" width="5" height="15" fill="#ef5350" rx="1"/>
    <rect x="508" y="370" width="5" height="20" fill="#ef5350" rx="1"/>
    <rect x="533" y="370" width="5" height="18" fill="#ef5350" rx="1"/>
    <rect x="558" y="370" width="5" height="12" fill="#ef5350" rx="1"/>
  </g>

  <!-- Second bullish crossover -->
  <circle cx="580" cy="390" r="6" fill="none" stroke="#00e676" stroke-width="2" filter="url(#glow)"/>
  <line x1="580" y1="280" x2="580" y2="382" stroke="#00e676" stroke-width="1" stroke-dasharray="3,3" opacity="0.3"/>
  <g filter="url(#softGlow)">
    <polygon points="578,75" fill="#00e676"/>
  </g>
  <rect x="530" y="65" width="50" height="18" rx="4" fill="#00e676" fill-opacity="0.15" stroke="#00e676" stroke-width="1" stroke-opacity="0.4"/>
  <text x="555" y="78" text-anchor="middle" fill="#00e676" font-size="10" font-weight="600">BUY</text>

  <!-- Second bullish histogram -->
  <g opacity="0.6">
    <rect x="583" y="362" width="5" height="8" fill="#26a69a" rx="1"/>
    <rect x="608" y="350" width="5" height="20" fill="#26a69a" rx="1"/>
    <rect x="633" y="340" width="5" height="30" fill="#26a69a" rx="1"/>
    <rect x="658" y="332" width="5" height="38" fill="#26a69a" rx="1"/>
    <rect x="683" y="328" width="5" height="42" fill="#26a69a" rx="1"/>
    <rect x="708" y="330" width="5" height="40" fill="#26a69a" rx="1"/>
  </g>

  <!-- Legend -->
  <g transform="translate(60, 445)">
    <rect width="680" height="40" rx="4" fill="#ffffff" fill-opacity="0.03"/>
    <circle cx="20" cy="20" r="4" fill="#42a5f5"/>
    <text x="30" y="24" fill="#999" font-size="9">MACD Line</text>
    <circle cx="120" cy="20" r="4" fill="#ff9800"/>
    <text x="130" y="24" fill="#999" font-size="9">Signal Line</text>
    <rect x="215" y="12" width="20" height="16" fill="#26a69a" opacity="0.5" rx="2"/>
    <text x="240" y="24" fill="#999" font-size="9">Bullish Histogram</text>
    <rect x="360" y="12" width="20" height="16" fill="#ef5350" opacity="0.5" rx="2"/>
    <text x="385" y="24" fill="#999" font-size="9">Bearish Histogram</text>
    <circle cx="510" cy="20" r="4" fill="#00e676"/>
    <text x="520" y="24" fill="#999" font-size="9">Buy Signal</text>
    <circle cx="600" cy="20" r="4" fill="#ef5350"/>
    <text x="610" y="24" fill="#999" font-size="9">Exit Signal</text>
  </g>
</svg>