<?xml version="1.0" encoding="UTF-8"?>
<svg xmlns="http://www.w3.org/2000/svg" viewBox="0 0 800 500">
  <defs>
    <linearGradient id="bg" x1="0" y1="0" x2="0" y2="1">
      <stop offset="0%" stop-color="#1a1a2e"/>
      <stop offset="100%" stop-color="#16213e"/>
    </linearGradient>
    <filter id="glow">
      <feGaussianBlur stdDeviation="3" result="blur"/>
      <feMerge><feMergeNode in="blur"/><feMergeNode in="SourceGraphic"/></feMerge>
    </filter>
    <filter id="glowStrong">
      <feGaussianBlur stdDeviation="5" result="blur"/>
      <feMerge><feMergeNode in="blur"/><feMergeNode in="SourceGraphic"/></feMerge>
    </filter>
  </defs>

  <!-- Background -->
  <rect width="800" height="500" rx="8" fill="url(#bg)"/>

  <!-- Title -->
  <text x="400" y="35" text-anchor="middle" fill="#e0e0e0" font-family="Arial,sans-serif" font-size="17" font-weight="bold">LOWESS Trend</text>
  <text x="400" y="52" text-anchor="middle" fill="#888" font-family="Arial,sans-serif" font-size="11">tradegrub.finance</text>

  <!-- Grid lines -->
  <g stroke="#ffffff" stroke-opacity="0.04" stroke-width="1">
    <line x1="80" y1="80" x2="760" y2="80"/>
    <line x1="80" y1="140" x2="760" y2="140"/>
    <line x1="80" y1="200" x2="760" y2="200"/>
    <line x1="80" y1="260" x2="760" y2="260"/>
    <line x1="80" y1="320" x2="760" y2="320"/>
    <line x1="80" y1="380" x2="760" y2="380"/>
    <line x1="80" y1="440" x2="760" y2="440"/>
    <line x1="170" y1="70" x2="170" y2="445"/>
    <line x1="260" y1="70" x2="260" y2="445"/>
    <line x1="350" y1="70" x2="350" y2="445"/>
    <line x1="440" y1="70" x2="440" y2="445"/>
    <line x1="530" y1="70" x2="530" y2="445"/>
    <line x1="620" y1="70" x2="620" y2="445"/>
    <line x1="710" y1="70" x2="710" y2="445"/>
  </g>

  <!-- Price axis labels -->
  <g fill="#555" font-family="Arial,sans-serif" font-size="10" text-anchor="end">
    <text x="75" y="84">185</text>
    <text x="75" y="144">175</text>
    <text x="75" y="204">165</text>
    <text x="75" y="264">155</text>
    <text x="75" y="324">145</text>
    <text x="75" y="384">135</text>
    <text x="75" y="444">125</text>
  </g>

  <!-- Scattered price dots -->
  <g fill="#5e81ac" opacity="0.55">
    <circle cx="95" cy="370" r="3"/>
    <circle cx="105" cy="355" r="3"/>
    <circle cx="112" cy="380" r="3"/>
    <circle cx="125" cy="345" r="3"/>
    <circle cx="135" cy="360" r="3"/>
    <circle cx="148" cy="330" r="3"/>
    <circle cx="155" cy="350" r="3"/>
    <circle cx="168" cy="315" r="3"/>
    <circle cx="178" cy="340" r="3"/>
    <circle cx="190" cy="305" r="3"/>
    <circle cx="200" cy="320" r="3"/>
    <circle cx="210" cy="290" r="3"/>
    <circle cx="222" cy="310" r="3"/>
    <circle cx="235" cy="280" r="3"/>
    <circle cx="245" cy="295" r="3"/>
    <circle cx="255" cy="265" r="3"/>
    <circle cx="268" cy="278" r="3"/>
    <circle cx="278" cy="258" r="3"/>
    <circle cx="290" cy="250" r="3"/>
    <circle cx="300" cy="268" r="3"/>
    <circle cx="312" cy="242" r="3"/>
    <circle cx="322" cy="255" r="3"/>
    <circle cx="335" cy="240" r="3"/>
    <circle cx="345" cy="252" r="3"/>
    <circle cx="358" cy="248" r="3"/>
    <circle cx="368" cy="260" r="3"/>
    <circle cx="380" cy="255" r="3"/>
    <circle cx="390" cy="270" r="3"/>
    <circle cx="400" cy="258" r="3"/>
    <circle cx="412" cy="275" r="3"/>
    <circle cx="422" cy="265" r="3"/>
    <circle cx="432" cy="280" r="3"/>
    <circle cx="445" cy="260" r="3"/>
    <circle cx="455" cy="248" r="3"/>
    <circle cx="465" cy="235" r="3"/>
    <circle cx="478" cy="220" r="3"/>
    <circle cx="488" cy="240" r="3"/>
    <circle cx="500" cy="205" r="3"/>
    <circle cx="510" cy="195" r="3"/>
    <circle cx="520" cy="215" r="3"/>
    <circle cx="532" cy="185" r="3"/>
    <circle cx="542" cy="175" r="3"/>
    <circle cx="555" cy="160" r="3"/>
    <circle cx="565" cy="180" r="3"/>
    <circle cx="575" cy="148" r="3"/>
    <circle cx="588" cy="165" r="3"/>
    <circle cx="598" cy="140" r="3"/>
    <circle cx="608" cy="155" r="3"/>
    <circle cx="620" cy="130" r="3"/>
    <circle cx="632" cy="145" r="3"/>
    <circle cx="642" cy="120" r="3"/>
    <circle cx="652" cy="135" r="3"/>
    <circle cx="665" cy="115" r="3"/>
    <circle cx="675" cy="128" r="3"/>
    <circle cx="685" cy="108" r="3"/>
    <circle cx="698" cy="118" r="3"/>
    <circle cx="708" cy="100" r="3"/>
    <circle cx="718" cy="112" r="3"/>
    <circle cx="730" cy="95" r="3"/>
    <circle cx="740" cy="105" r="3"/>
    <circle cx="750" cy="88" r="3"/>
  </g>

  <!-- Extra scatter noise dots -->
  <g fill="#5e81ac" opacity="0.3">
    <circle cx="100" cy="390" r="2"/>
    <circle cx="130" cy="365" r="2"/>
    <circle cx="160" cy="325" r="2"/>
    <circle cx="185" cy="335" r="2"/>
    <circle cx="215" cy="300" r="2"/>
    <circle cx="240" cy="300" r="2"/>
    <circle cx="275" cy="275" r="2"/>
    <circle cx="305" cy="235" r="2"/>
    <circle cx="340" cy="265" r="2"/>
    <circle cx="375" cy="245" r="2"/>
    <circle cx="410" cy="285" r="2"/>
    <circle cx="450" cy="272" r="2"/>
    <circle cx="475" cy="245" r="2"/>
    <circle cx="505" cy="225" r="2"/>
    <circle cx="535" cy="190" r="2"/>
    <circle cx="560" cy="170" r="2"/>
    <circle cx="595" cy="152" r="2"/>
    <circle cx="625" cy="150" r="2"/>
    <circle cx="655" cy="125" r="2"/>
    <circle cx="690" cy="125" r="2"/>
    <circle cx="725" cy="98" r="2"/>
  </g>

  <!-- LOWESS smooth curve -->
  <path d="M 95,372 C 110,358 125,342 148,328 C 170,314 190,305 210,292 C 230,280 250,270 270,262 C 290,255 310,250 335,248 C 360,246 380,252 400,258 C 420,262 435,265 450,258 C 465,248 478,232 500,210 C 520,190 535,175 555,158 C 575,142 590,135 608,128 C 628,120 645,115 665,108 C 685,102 700,96 720,92 C 735,89 745,87 755,85"
        fill="none" stroke="#00d2ff" stroke-width="2.5" stroke-linecap="round" stroke-linejoin="round" filter="url(#glow)"/>

  <!-- Locally Weighted Fit label -->
  <text x="340" y="235" fill="#00d2ff" font-family="Arial,sans-serif" font-size="10" opacity="0.85">Locally Weighted Fit</text>
  <line x1="340" y1="238" x2="418" y2="238" stroke="#00d2ff" stroke-width="0.5" opacity="0.4"/>

  <!-- Breakout arrow 1 -->
  <g filter="url(#glowStrong)">
    <polygon points="308,218 315,200 322,218" fill="#4ade80" opacity="0.9"/>
    <line x1="315" y1="222" x2="315" y2="240" stroke="#4ade80" stroke-width="1.5" opacity="0.7"/>
  </g>
  <text x="326" y="208" fill="#4ade80" font-family="Arial,sans-serif" font-size="9" opacity="0.8">Breakout</text>

  <!-- Breakout arrow 2 -->
  <g filter="url(#glowStrong)">
    <polygon points="572,125 579,107 586,125" fill="#4ade80" opacity="0.9"/>
    <line x1="579" y1="129" x2="579" y2="142" stroke="#4ade80" stroke-width="1.5" opacity="0.7"/>
  </g>
  <text x="590" y="115" fill="#4ade80" font-family="Arial,sans-serif" font-size="9" opacity="0.8">Breakout</text>

  <!-- Breakdown arrow -->
  <g filter="url(#glowStrong)">
    <polygon points="408,298 415,316 422,298" fill="#f87171" opacity="0.9"/>
    <line x1="415" y1="275" x2="415" y2="294" stroke="#f87171" stroke-width="1.5" opacity="0.7"/>
  </g>
  <text x="425" y="312" fill="#f87171" font-family="Arial,sans-serif" font-size="9" opacity="0.8">Breakdown</text>

  <!-- Legend bar -->
  <rect x="80" y="462" width="680" height="28" rx="4" fill="#0d1117" opacity="0.6"/>
  <circle cx="110" cy="476" r="4" fill="#5e81ac" opacity="0.7"/>
  <text x="120" y="480" fill="#aaa" font-family="Arial,sans-serif" font-size="10">Price Scatter</text>
  <line x1="220" y1="476" x2="250" y2="476" stroke="#00d2ff" stroke-width="2" filter="url(#glow)"/>
  <text x="258" y="480" fill="#aaa" font-family="Arial,sans-serif" font-size="10">LOWESS Curve</text>
  <polygon points="382,470 388,464 394,470" fill="#4ade80" opacity="0.9"/>
  <text x="400" y="480" fill="#aaa" font-family="Arial,sans-serif" font-size="10">Breakout</text>
  <polygon points="492,474 498,480 504,474" fill="#f87171" opacity="0.9"/>
  <text x="510" y="480" fill="#aaa" font-family="Arial,sans-serif" font-size="10">Breakdown</text>
</svg>