<?xml version="1.0" encoding="UTF-8"?>
<svg xmlns="http://www.w3.org/2000/svg" viewBox="0 0 800 500">
  <defs>
    <linearGradient id="bg" x1="0" y1="0" x2="0" y2="1">
      <stop offset="0%" stop-color="#1a1a2e"/>
      <stop offset="100%" stop-color="#16213e"/>
    </linearGradient>
    <filter id="glow">
      <feGaussianBlur stdDeviation="2.5" result="blur"/>
      <feMerge><feMergeNode in="blur"/><feMergeNode in="SourceGraphic"/></feMerge>
    </filter>
  </defs>

  <!-- Background -->
  <rect width="800" height="500" fill="url(#bg)" rx="8"/>

  <!-- Grid lines -->
  <g stroke="#fff" stroke-opacity="0.04" stroke-width="1">
    <line x1="0" y1="80" x2="800" y2="80"/>
    <line x1="0" y1="120" x2="800" y2="120"/>
    <line x1="0" y1="160" x2="800" y2="160"/>
    <line x1="0" y1="200" x2="800" y2="200"/>
    <line x1="0" y1="240" x2="800" y2="240"/>
    <line x1="130" y1="50" x2="130" y2="430"/>
    <line x1="230" y1="50" x2="230" y2="430"/>
    <line x1="330" y1="50" x2="330" y2="430"/>
    <line x1="430" y1="50" x2="430" y2="430"/>
    <line x1="530" y1="50" x2="530" y2="430"/>
    <line x1="630" y1="50" x2="630" y2="430"/>
  </g>

  <!-- Title -->
  <text x="400" y="28" text-anchor="middle" fill="#e2e8f0" font-family="Arial,sans-serif" font-size="17" font-weight="bold">Candlestick Sentiment Score</text>
  <text x="400" y="44" text-anchor="middle" fill="#64748b" font-family="Arial,sans-serif" font-size="11">tradegrub.finance</text>

  <!-- Candle 1: Bullish, score +72 -->
  <line x1="130" y1="75" x2="130" y2="210" stroke="#22c55e" stroke-width="1.5"/>
  <rect x="117" y="105" width="26" height="75" fill="#22c55e" rx="2" filter="url(#glow)"/>

  <!-- Gauge 1 -->
  <g transform="translate(130,330)">
    <path d="M-45,0 A45,45 0 0,1 0,-45" fill="none" stroke="#ef4444" stroke-width="6" stroke-linecap="round" opacity="0.8"/>
    <path d="M0,-45 A45,45 0 0,1 45,0" fill="none" stroke="#22c55e" stroke-width="6" stroke-linecap="round" opacity="0.8"/>
    <path d="M-32,-32 A45,45 0 0,1 32,-32" fill="none" stroke="#eab308" stroke-width="3" stroke-linecap="round" opacity="0.5"/>
    <line x1="0" y1="0" x2="30" y2="-33" stroke="#fff" stroke-width="2.5" filter="url(#glow)"/>
    <circle cx="0" cy="0" r="4" fill="#fff"/>
    <text x="0" y="20" text-anchor="middle" fill="#22c55e" font-family="Arial,sans-serif" font-size="11" font-weight="bold">+72</text>
    <text x="-48" y="12" text-anchor="middle" fill="#64748b" font-family="Arial,sans-serif" font-size="7">-100</text>
    <text x="48" y="12" text-anchor="middle" fill="#64748b" font-family="Arial,sans-serif" font-size="7">+100</text>
  </g>

  <!-- Candle 2: Bearish, score -58 -->
  <line x1="230" y1="85" x2="230" y2="220" stroke="#ef4444" stroke-width="1.5"/>
  <rect x="217" y="95" width="26" height="90" fill="#ef4444" rx="2" filter="url(#glow)"/>

  <!-- Gauge 2 -->
  <g transform="translate(230,330)">
    <path d="M-45,0 A45,45 0 0,1 0,-45" fill="none" stroke="#ef4444" stroke-width="6" stroke-linecap="round" opacity="0.8"/>
    <path d="M0,-45 A45,45 0 0,1 45,0" fill="none" stroke="#22c55e" stroke-width="6" stroke-linecap="round" opacity="0.8"/>
    <path d="M-32,-32 A45,45 0 0,1 32,-32" fill="none" stroke="#eab308" stroke-width="3" stroke-linecap="round" opacity="0.5"/>
    <line x1="0" y1="0" x2="-37" y2="-25" stroke="#fff" stroke-width="2.5" filter="url(#glow)"/>
    <circle cx="0" cy="0" r="4" fill="#fff"/>
    <text x="0" y="20" text-anchor="middle" fill="#ef4444" font-family="Arial,sans-serif" font-size="11" font-weight="bold">-58</text>
    <text x="-48" y="12" text-anchor="middle" fill="#64748b" font-family="Arial,sans-serif" font-size="7">-100</text>
    <text x="48" y="12" text-anchor="middle" fill="#64748b" font-family="Arial,sans-serif" font-size="7">+100</text>
  </g>

  <!-- Candle 3: Bullish, score +35 -->
  <line x1="330" y1="95" x2="330" y2="205" stroke="#22c55e" stroke-width="1.5"/>
  <rect x="317" y="120" width="26" height="60" fill="#22c55e" rx="2" filter="url(#glow)"/>

  <!-- Gauge 3 -->
  <g transform="translate(330,330)">
    <path d="M-45,0 A45,45 0 0,1 0,-45" fill="none" stroke="#ef4444" stroke-width="6" stroke-linecap="round" opacity="0.8"/>
    <path d="M0,-45 A45,45 0 0,1 45,0" fill="none" stroke="#22c55e" stroke-width="6" stroke-linecap="round" opacity="0.8"/>
    <path d="M-32,-32 A45,45 0 0,1 32,-32" fill="none" stroke="#eab308" stroke-width="3" stroke-linecap="round" opacity="0.5"/>
    <line x1="0" y1="0" x2="16" y2="-42" stroke="#fff" stroke-width="2.5" filter="url(#glow)"/>
    <circle cx="0" cy="0" r="4" fill="#fff"/>
    <text x="0" y="20" text-anchor="middle" fill="#22c55e" font-family="Arial,sans-serif" font-size="11" font-weight="bold">+35</text>
    <text x="-48" y="12" text-anchor="middle" fill="#64748b" font-family="Arial,sans-serif" font-size="7">-100</text>
    <text x="48" y="12" text-anchor="middle" fill="#64748b" font-family="Arial,sans-serif" font-size="7">+100</text>
  </g>

  <!-- Candle 4: Bearish, score -81 -->
  <line x1="430" y1="70" x2="430" y2="230" stroke="#ef4444" stroke-width="1.5"/>
  <rect x="417" y="80" width="26" height="110" fill="#ef4444" rx="2" filter="url(#glow)"/>

  <!-- Gauge 4 -->
  <g transform="translate(430,330)">
    <path d="M-45,0 A45,45 0 0,1 0,-45" fill="none" stroke="#ef4444" stroke-width="6" stroke-linecap="round" opacity="0.8"/>
    <path d="M0,-45 A45,45 0 0,1 45,0" fill="none" stroke="#22c55e" stroke-width="6" stroke-linecap="round" opacity="0.8"/>
    <path d="M-32,-32 A45,45 0 0,1 32,-32" fill="none" stroke="#eab308" stroke-width="3" stroke-linecap="round" opacity="0.5"/>
    <line x1="0" y1="0" x2="-43" y2="-13" stroke="#fff" stroke-width="2.5" filter="url(#glow)"/>
    <circle cx="0" cy="0" r="4" fill="#fff"/>
    <text x="0" y="20" text-anchor="middle" fill="#ef4444" font-family="Arial,sans-serif" font-size="11" font-weight="bold">-81</text>
    <text x="-48" y="12" text-anchor="middle" fill="#64748b" font-family="Arial,sans-serif" font-size="7">-100</text>
    <text x="48" y="12" text-anchor="middle" fill="#64748b" font-family="Arial,sans-serif" font-size="7">+100</text>
  </g>

  <!-- Candle 5: Bullish, score +91 -->
  <line x1="530" y1="80" x2="530" y2="200" stroke="#22c55e" stroke-width="1.5"/>
  <rect x="517" y="130" width="26" height="50" fill="#22c55e" rx="2" filter="url(#glow)"/>

  <!-- Gauge 5 -->
  <g transform="translate(530,330)">
    <path d="M-45,0 A45,45 0 0,1 0,-45" fill="none" stroke="#ef4444" stroke-width="6" stroke-linecap="round" opacity="0.8"/>
    <path d="M0,-45 A45,45 0 0,1 45,0" fill="none" stroke="#22c55e" stroke-width="6" stroke-linecap="round" opacity="0.8"/>
    <path d="M-32,-32 A45,45 0 0,1 32,-32" fill="none" stroke="#eab308" stroke-width="3" stroke-linecap="round" opacity="0.5"/>
    <line x1="0" y1="0" x2="42" y2="-15" stroke="#fff" stroke-width="2.5" filter="url(#glow)"/>
    <circle cx="0" cy="0" r="4" fill="#fff"/>
    <text x="0" y="20" text-anchor="middle" fill="#22c55e" font-family="Arial,sans-serif" font-size="11" font-weight="bold">+91</text>
    <text x="-48" y="12" text-anchor="middle" fill="#64748b" font-family="Arial,sans-serif" font-size="7">-100</text>
    <text x="48" y="12" text-anchor="middle" fill="#64748b" font-family="Arial,sans-serif" font-size="7">+100</text>
  </g>

  <!-- Candle 6: Bearish, score -15 -->
  <line x1="630" y1="100" x2="630" y2="210" stroke="#ef4444" stroke-width="1.5"/>
  <rect x="617" y="110" width="26" height="70" fill="#ef4444" rx="2" filter="url(#glow)"/>

  <!-- Gauge 6 -->
  <g transform="translate(630,330)">
    <path d="M-45,0 A45,45 0 0,1 0,-45" fill="none" stroke="#ef4444" stroke-width="6" stroke-linecap="round" opacity="0.8"/>
    <path d="M0,-45 A45,45 0 0,1 45,0" fill="none" stroke="#22c55e" stroke-width="6" stroke-linecap="round" opacity="0.8"/>
    <path d="M-32,-32 A45,45 0 0,1 32,-32" fill="none" stroke="#eab308" stroke-width="3" stroke-linecap="round" opacity="0.5"/>
    <line x1="0" y1="0" x2="-10" y2="-44" stroke="#fff" stroke-width="2.5" filter="url(#glow)"/>
    <circle cx="0" cy="0" r="4" fill="#fff"/>
    <text x="0" y="20" text-anchor="middle" fill="#eab308" font-family="Arial,sans-serif" font-size="11" font-weight="bold">-15</text>
    <text x="-48" y="12" text-anchor="middle" fill="#64748b" font-family="Arial,sans-serif" font-size="7">-100</text>
    <text x="48" y="12" text-anchor="middle" fill="#64748b" font-family="Arial,sans-serif" font-size="7">+100</text>
  </g>

  <!-- Candle 7: Bullish, score +54 -->
  <line x1="730" y1="90" x2="730" y2="195" stroke="#22c55e" stroke-width="1.5"/>
  <rect x="717" y="115" width="26" height="55" fill="#22c55e" rx="2" filter="url(#glow)"/>

  <!-- Gauge 7 -->
  <g transform="translate(730,330)">
    <path d="M-45,0 A45,45 0 0,1 0,-45" fill="none" stroke="#ef4444" stroke-width="6" stroke-linecap="round" opacity="0.8"/>
    <path d="M0,-45 A45,45 0 0,1 45,0" fill="none" stroke="#22c55e" stroke-width="6" stroke-linecap="round" opacity="0.8"/>
    <path d="M-32,-32 A45,45 0 0,1 32,-32" fill="none" stroke="#eab308" stroke-width="3" stroke-linecap="round" opacity="0.5"/>
    <line x1="0" y1="0" x2="24" y2="-38" stroke="#fff" stroke-width="2.5" filter="url(#glow)"/>
    <circle cx="0" cy="0" r="4" fill="#fff"/>
    <text x="0" y="20" text-anchor="middle" fill="#22c55e" font-family="Arial,sans-serif" font-size="11" font-weight="bold">+54</text>
    <text x="-48" y="12" text-anchor="middle" fill="#64748b" font-family="Arial,sans-serif" font-size="7">-100</text>
    <text x="48" y="12" text-anchor="middle" fill="#64748b" font-family="Arial,sans-serif" font-size="7">+100</text>
  </g>

  <!-- Legend bar -->
  <g transform="translate(400,455)" font-family="Arial,sans-serif" font-size="11">
    <circle cx="-220" cy="0" r="5" fill="#22c55e"/>
    <text x="-210" y="4" fill="#94a3b8">Bullish (+50 to +100)</text>
    <circle cx="-60" cy="0" r="5" fill="#eab308"/>
    <text x="-50" y="4" fill="#94a3b8">Neutral (-50 to +50)</text>
    <circle cx="100" cy="0" r="5" fill="#ef4444"/>
    <text x="110" y="4" fill="#94a3b8">Bearish (-100 to -50)</text>
  </g>
</svg>
