<?xml version="1.0" encoding="UTF-8"?>
<svg xmlns="http://www.w3.org/2000/svg" viewBox="0 0 800 500">
  <defs>
    <linearGradient id="bg" x1="0" y1="0" x2="0" y2="1">
      <stop offset="0%" stop-color="#1a1a2e"/>
      <stop offset="100%" stop-color="#16213e"/>
    </linearGradient>
    <filter id="glow">
      <feGaussianBlur stdDeviation="3" in="SourceGraphic" result="blur"/>
      <feMerge><feMergeNode in="blur"/><feMergeNode in="SourceGraphic"/></feMerge>
    </filter>
  </defs>
  <rect width="800" height="500" rx="8" fill="url(#bg)"/>
  <g stroke="#fff" stroke-opacity="0.04" stroke-width="1">
    <line x1="80" y1="60" x2="80" y2="400"/><line x1="140" y1="60" x2="140" y2="400"/>
    <line x1="200" y1="60" x2="200" y2="400"/><line x1="260" y1="60" x2="260" y2="400"/>
    <line x1="320" y1="60" x2="320" y2="400"/><line x1="380" y1="60" x2="380" y2="400"/>
    <line x1="440" y1="60" x2="440" y2="400"/><line x1="500" y1="60" x2="500" y2="400"/>
    <line x1="560" y1="60" x2="560" y2="400"/><line x1="620" y1="60" x2="620" y2="400"/>
    <line x1="680" y1="60" x2="680" y2="400"/><line x1="740" y1="60" x2="740" y2="400"/>
    <line x1="60" y1="100" x2="760" y2="100"/><line x1="60" y1="150" x2="760" y2="150"/>
    <line x1="60" y1="200" x2="760" y2="200"/><line x1="60" y1="250" x2="760" y2="250"/>
    <line x1="60" y1="300" x2="760" y2="300"/><line x1="60" y1="350" x2="760" y2="350"/>
    <line x1="60" y1="400" x2="760" y2="400"/>
  </g>
  <text x="400" y="32" text-anchor="middle" font-family="Arial,sans-serif" font-size="17" fill="white" font-weight="bold">Seasonal Pattern Projection</text>
  <text x="400" y="50" text-anchor="middle" font-family="Arial,sans-serif" font-size="11" fill="#888">tradegrub.finance</text>
  <g font-family="Arial,sans-serif" font-size="10" fill="#666" text-anchor="middle">
    <text x="80" y="418">Jan</text><text x="140" y="418">Feb</text><text x="200" y="418">Mar</text>
    <text x="260" y="418">Apr</text><text x="320" y="418">May</text><text x="380" y="418">Jun</text>
    <text x="440" y="418">Jul</text><text x="500" y="418">Aug</text><text x="560" y="418">Sep</text>
    <text x="620" y="418">Oct</text><text x="680" y="418">Nov</text><text x="740" y="418">Dec</text>
  </g>
  <polygon points="80,170 140,155 200,140 260,135 320,150 380,165 440,175 500,185 560,220 620,235 680,175 740,145
                    740,210 680,240 620,305 560,290 500,250 440,240 380,230 320,215 260,195 200,200 140,215 80,230"
           fill="#2196f3" opacity="0.15"/>
  <polyline points="80,200 140,185 200,170 260,165 320,182 380,198 440,208 500,218 560,255 620,270 680,208 740,178"
            fill="none" stroke="#2196f3" stroke-width="1.5" opacity="0.5" stroke-dasharray="4,3"/>
  <text x="590" y="330" font-family="Arial,sans-serif" font-size="10" fill="#ef5350" opacity="0.8" text-anchor="middle">Seasonal Bearish Zone</text>
  <text x="180" y="125" font-family="Arial,sans-serif" font-size="10" fill="#4caf50" opacity="0.8" text-anchor="middle">Seasonal Bullish Zone</text>
  <text x="710" y="138" font-family="Arial,sans-serif" font-size="10" fill="#4caf50" opacity="0.8" text-anchor="middle">Bullish</text>
  <polyline points="80,195 140,178 200,162 260,155 320,175 380,190 440,200 500,225 560,265 620,280 680,215 740,170"
            fill="none" stroke="white" stroke-width="2" filter="url(#glow)"/>
  <line x1="380" y1="65" x2="380" y2="400" stroke="#ffd700" stroke-width="1.2" stroke-dasharray="6,4" opacity="0.6"/>
  <text x="380" y="78" text-anchor="middle" font-family="Arial,sans-serif" font-size="9" fill="#ffd700" opacity="0.8">Current</text>
  <circle cx="380" cy="190" r="4" fill="#ffd700" opacity="0.9"/>
  <rect x="0" y="440" width="800" height="60" rx="0" fill="#111827" opacity="0.7"/>
  <line x1="150" y1="468" x2="180" y2="468" stroke="white" stroke-width="2"/>
  <text x="185" y="472" font-family="Arial,sans-serif" font-size="11" fill="#ccc">Current Year</text>
  <line x1="310" y1="468" x2="340" y2="468" stroke="#2196f3" stroke-width="1.5" stroke-dasharray="4,3" opacity="0.5"/>
  <text x="345" y="472" font-family="Arial,sans-serif" font-size="11" fill="#ccc">Seasonal Average</text>
  <rect x="500" y="461" width="30" height="14" fill="#2196f3" opacity="0.15" stroke="#2196f3" stroke-width="0.5" stroke-opacity="0.3"/>
  <text x="535" y="472" font-family="Arial,sans-serif" font-size="11" fill="#ccc">+/- 1 Std Dev</text>
</svg>
