<svg xmlns="http://www.w3.org/2000/svg" viewBox="0 0 800 500">
  <defs>
    <linearGradient id="bg" x1="0" y1="0" x2="0" y2="1">
      <stop offset="0%" stop-color="#1a1a2e"/>
      <stop offset="100%" stop-color="#16213e"/>
    </linearGradient>
  </defs>
  <rect width="800" height="500" fill="url(#bg)" rx="8"/>
  <text x="400" y="35" text-anchor="middle" fill="#e0e0e0" font-family="Inter,sans-serif" font-size="18" font-weight="600">Time at Price Levels</text>
  <text x="400" y="55" text-anchor="middle" fill="#666" font-family="Inter,sans-serif" font-size="11">tradegrub.finance</text>

  <rect x="60" y="70" width="700" height="380" fill="rgba(255,255,255,0.02)" rx="4"/>
  <text x="70" y="88" fill="#888" font-family="Inter,sans-serif" font-size="10">Price</text>

  <!-- Candles meandering around levels -->
  <line x1="100" y1="250" x2="100" y2="280" stroke="#555" stroke-width="1"/><rect x="96" y="255" width="8" height="18" fill="#4CAF50" rx="1"/>
  <line x1="140" y1="245" x2="140" y2="275" stroke="#555" stroke-width="1"/><rect x="136" y="250" width="8" height="16" fill="#f44336" rx="1"/>
  <line x1="180" y1="248" x2="180" y2="278" stroke="#555" stroke-width="1"/><rect x="176" y="252" width="8" height="18" fill="#4CAF50" rx="1"/>
  <line x1="220" y1="240" x2="220" y2="270" stroke="#555" stroke-width="1"/><rect x="216" y="245" width="8" height="16" fill="#4CAF50" rx="1"/>
  <line x1="260" y1="200" x2="260" y2="235" stroke="#555" stroke-width="1"/><rect x="256" y="205" width="8" height="22" fill="#4CAF50" rx="1"/>
  <line x1="300" y1="190" x2="300" y2="220" stroke="#555" stroke-width="1"/><rect x="296" y="195" width="8" height="16" fill="#f44336" rx="1"/>
  <line x1="340" y1="195" x2="340" y2="225" stroke="#555" stroke-width="1"/><rect x="336" y="200" width="8" height="18" fill="#4CAF50" rx="1"/>
  <line x1="380" y1="192" x2="380" y2="222" stroke="#555" stroke-width="1"/><rect x="376" y="198" width="8" height="16" fill="#f44336" rx="1"/>
  <line x1="420" y1="150" x2="420" y2="185" stroke="#555" stroke-width="1"/><rect x="416" y="155" width="8" height="22" fill="#4CAF50" rx="1"/>
  <line x1="460" y1="145" x2="460" y2="175" stroke="#555" stroke-width="1"/><rect x="456" y="150" width="8" height="16" fill="#f44336" rx="1"/>
  <line x1="500" y1="148" x2="500" y2="178" stroke="#555" stroke-width="1"/><rect x="496" y="153" width="8" height="18" fill="#4CAF50" rx="1"/>
  <line x1="540" y1="195" x2="540" y2="225" stroke="#555" stroke-width="1"/><rect x="536" y="200" width="8" height="18" fill="#f44336" rx="1"/>
  <line x1="580" y1="198" x2="580" y2="228" stroke="#555" stroke-width="1"/><rect x="576" y="202" width="8" height="18" fill="#4CAF50" rx="1"/>
  <line x1="620" y1="192" x2="620" y2="222" stroke="#555" stroke-width="1"/><rect x="616" y="198" width="8" height="16" fill="#f44336" rx="1"/>
  <line x1="660" y1="250" x2="660" y2="280" stroke="#555" stroke-width="1"/><rect x="656" y="255" width="8" height="18" fill="#f44336" rx="1"/>
  <line x1="700" y1="248" x2="700" y2="278" stroke="#555" stroke-width="1"/><rect x="696" y="252" width="8" height="18" fill="#4CAF50" rx="1"/>

  <!-- Dwell levels -->
  <line x1="60" y1="260" x2="760" y2="260" stroke="#FF9800" stroke-width="2" opacity="0.8"/>
  <text x="765" y="264" fill="#FF9800" font-family="Inter,sans-serif" font-size="9">Dwell 1</text>
  <line x1="60" y1="210" x2="760" y2="210" stroke="#2196F3" stroke-width="2" opacity="0.7"/>
  <text x="765" y="214" fill="#2196F3" font-family="Inter,sans-serif" font-size="9">Dwell 2</text>
  <line x1="60" y1="160" x2="760" y2="160" stroke="#9C27B0" stroke-width="2" opacity="0.6"/>
  <text x="765" y="164" fill="#9C27B0" font-family="Inter,sans-serif" font-size="9">Dwell 3</text>

  <!-- Legend -->
  <rect x="60" y="460" width="700" height="30" fill="rgba(255,255,255,0.03)" rx="4"/>
  <line x1="80" y1="475" x2="110" y2="475" stroke="#FF9800" stroke-width="2"/>
  <text x="115" y="479" fill="#ccc" font-family="Inter,sans-serif" font-size="11">Dwell Level 1</text>
  <line x1="260" y1="475" x2="290" y2="475" stroke="#2196F3" stroke-width="2"/>
  <text x="295" y="479" fill="#ccc" font-family="Inter,sans-serif" font-size="11">Dwell Level 2</text>
  <line x1="440" y1="475" x2="470" y2="475" stroke="#9C27B0" stroke-width="2"/>
  <text x="475" y="479" fill="#ccc" font-family="Inter,sans-serif" font-size="11">Dwell Level 3</text>
</svg>
