<svg xmlns="http://www.w3.org/2000/svg" viewBox="0 0 800 500">
  <defs>
    <linearGradient id="bg" x1="0" y1="0" x2="0" y2="1">
      <stop offset="0%" stop-color="#1a1a2e"/>
      <stop offset="100%" stop-color="#16213e"/>
    </linearGradient>
  </defs>
  <rect width="800" height="500" fill="url(#bg)" rx="8"/>
  <text x="400" y="35" text-anchor="middle" fill="#e0e0e0" font-family="Inter,sans-serif" font-size="18" font-weight="600">Kill Zone Highlighter</text>
  <text x="400" y="55" text-anchor="middle" fill="#666" font-family="Inter,sans-serif" font-size="11">tradegrub.finance</text>

  <!-- Session zones -->
  <rect x="60" y="70" width="160" height="350" fill="rgba(156,39,176,0.08)" rx="2"/>
  <text x="140" y="90" text-anchor="middle" fill="rgba(156,39,176,0.6)" font-family="Inter,sans-serif" font-size="10">ASIAN</text>

  <rect x="220" y="70" width="160" height="350" fill="rgba(33,150,243,0.08)" rx="2"/>
  <text x="300" y="90" text-anchor="middle" fill="rgba(33,150,243,0.6)" font-family="Inter,sans-serif" font-size="10">LONDON</text>

  <rect x="380" y="70" width="160" height="350" fill="rgba(76,175,80,0.08)" rx="2"/>
  <text x="460" y="90" text-anchor="middle" fill="rgba(76,175,80,0.6)" font-family="Inter,sans-serif" font-size="10">NEW YORK</text>

  <!-- Overlap zone -->
  <rect x="320" y="70" width="100" height="350" fill="rgba(255,193,7,0.12)" rx="2"/>
  <text x="370" y="400" text-anchor="middle" fill="rgba(255,193,7,0.8)" font-family="Inter,sans-serif" font-size="9">OVERLAP</text>

  <rect x="540" y="70" width="160" height="350" fill="rgba(156,39,176,0.08)" rx="2"/>
  <text x="620" y="90" text-anchor="middle" fill="rgba(156,39,176,0.6)" font-family="Inter,sans-serif" font-size="10">ASIAN</text>

  <!-- Candlesticks -->
  <g stroke-width="1.5">
    <line x1="90" y1="220" x2="90" y2="300" stroke="#666"/><rect x="84" y="240" width="12" height="40" fill="#ff5252" rx="1"/>
    <line x1="120" y1="230" x2="120" y2="310" stroke="#666"/><rect x="114" y="250" width="12" height="35" fill="#4CAF50" rx="1"/>
    <line x1="150" y1="240" x2="150" y2="300" stroke="#666"/><rect x="144" y="250" width="12" height="30" fill="#ff5252" rx="1"/>
    <line x1="180" y1="235" x2="180" y2="295" stroke="#666"/><rect x="174" y="245" width="12" height="30" fill="#4CAF50" rx="1"/>
    <line x1="240" y1="200" x2="240" y2="280" stroke="#666"/><rect x="234" y="215" width="12" height="45" fill="#4CAF50" rx="1"/>
    <line x1="270" y1="180" x2="270" y2="260" stroke="#666"/><rect x="264" y="195" width="12" height="45" fill="#4CAF50" rx="1"/>
    <line x1="300" y1="170" x2="300" y2="240" stroke="#666"/><rect x="294" y="180" width="12" height="40" fill="#4CAF50" rx="1"/>
    <line x1="340" y1="155" x2="340" y2="230" stroke="#666"/><rect x="334" y="165" width="12" height="50" fill="#4CAF50" rx="1"/>
    <line x1="370" y1="145" x2="370" y2="210" stroke="#666"/><rect x="364" y="155" width="12" height="40" fill="#4CAF50" rx="1"/>
    <line x1="400" y1="150" x2="400" y2="220" stroke="#666"/><rect x="394" y="160" width="12" height="40" fill="#ff5252" rx="1"/>
    <line x1="430" y1="160" x2="430" y2="230" stroke="#666"/><rect x="424" y="170" width="12" height="40" fill="#ff5252" rx="1"/>
    <line x1="460" y1="175" x2="460" y2="240" stroke="#666"/><rect x="454" y="185" width="12" height="35" fill="#4CAF50" rx="1"/>
    <line x1="490" y1="180" x2="490" y2="250" stroke="#666"/><rect x="484" y="190" width="12" height="40" fill="#ff5252" rx="1"/>
    <line x1="560" y1="200" x2="560" y2="270" stroke="#666"/><rect x="554" y="210" width="12" height="40" fill="#ff5252" rx="1"/>
    <line x1="590" y1="210" x2="590" y2="280" stroke="#666"/><rect x="584" y="220" width="12" height="35" fill="#4CAF50" rx="1"/>
    <line x1="620" y1="215" x2="620" y2="280" stroke="#666"/><rect x="614" y="225" width="12" height="30" fill="#ff5252" rx="1"/>
    <line x1="650" y1="220" x2="650" y2="285" stroke="#666"/><rect x="644" y="230" width="12" height="30" fill="#4CAF50" rx="1"/>
  </g>

  <!-- High vol markers -->
  <polygon points="340,235 334,248 346,248" fill="#ffd740"/>
  <polygon points="370,215 364,228 376,228" fill="#ffd740"/>
  <polygon points="270,265 264,278 276,278" fill="#ffd740"/>

  <!-- Legend -->
  <g transform="translate(80, 440)">
    <rect x="0" y="0" width="640" height="40" fill="rgba(255,255,255,0.03)" rx="6"/>
    <rect x="15" y="12" width="16" height="16" fill="rgba(156,39,176,0.2)" rx="2"/>
    <text x="36" y="24" fill="#aaa" font-family="Inter,sans-serif" font-size="10">Asian</text>
    <rect x="90" y="12" width="16" height="16" fill="rgba(33,150,243,0.2)" rx="2"/>
    <text x="111" y="24" fill="#aaa" font-family="Inter,sans-serif" font-size="10">London</text>
    <rect x="175" y="12" width="16" height="16" fill="rgba(76,175,80,0.2)" rx="2"/>
    <text x="196" y="24" fill="#aaa" font-family="Inter,sans-serif" font-size="10">New York</text>
    <rect x="275" y="12" width="16" height="16" fill="rgba(255,193,7,0.2)" rx="2"/>
    <text x="296" y="24" fill="#aaa" font-family="Inter,sans-serif" font-size="10">Overlap</text>
    <polygon points="380,28 374,18 386,18" fill="#ffd740"/>
    <text x="392" y="24" fill="#aaa" font-family="Inter,sans-serif" font-size="10">High Vol Signal</text>
  </g>
</svg>