<svg xmlns="http://www.w3.org/2000/svg" viewBox="0 0 800 500" font-family="Inter, system-ui, sans-serif">
  <defs>
    <linearGradient id="bg" x1="0" y1="0" x2="0" y2="1">
      <stop offset="0%" stop-color="#1a1a2e"/>
      <stop offset="100%" stop-color="#16213e"/>
    </linearGradient>
    <linearGradient id="bandFill" x1="0" y1="0" x2="0" y2="1">
      <stop offset="0%" stop-color="#42a5f5" stop-opacity="0.08"/>
      <stop offset="100%" stop-color="#42a5f5" stop-opacity="0.03"/>
    </linearGradient>
    <filter id="glow">
      <feGaussianBlur stdDeviation="3" result="blur"/>
      <feMerge><feMergeNode in="blur"/><feMergeNode in="SourceGraphic"/></feMerge>
    </filter>
    <filter id="softGlow">
      <feGaussianBlur stdDeviation="2" result="blur"/>
      <feMerge><feMergeNode in="blur"/><feMergeNode in="SourceGraphic"/></feMerge>
    </filter>
  </defs>

  <rect width="800" height="500" fill="url(#bg)" rx="8"/>

  <g stroke="#ffffff" stroke-opacity="0.04" stroke-width="1">
    <line x1="80" y1="60" x2="80" y2="420"/><line x1="200" y1="60" x2="200" y2="420"/>
    <line x1="320" y1="60" x2="320" y2="420"/><line x1="440" y1="60" x2="440" y2="420"/>
    <line x1="560" y1="60" x2="560" y2="420"/><line x1="680" y1="60" x2="680" y2="420"/>
    <line x1="60" y1="100" x2="760" y2="100"/><line x1="60" y1="180" x2="760" y2="180"/>
    <line x1="60" y1="260" x2="760" y2="260"/><line x1="60" y1="340" x2="760" y2="340"/>
  </g>

  <text x="400" y="30" text-anchor="middle" fill="#e0e0e0" font-size="16" font-weight="600">Kalman Filter Trend</text>
  <text x="400" y="48" text-anchor="middle" fill="#888" font-size="11">tradegrub.finance</text>

  <!-- Confidence band fill -->
  <polygon points="90,250 120,238 150,222 180,205 210,190 240,178 270,170 300,165 330,170 360,182 390,198 420,215 450,218 480,208 510,192 540,175 570,162 600,152 630,148 660,150 690,155 720,162 740,168 740,208 720,202 690,198 660,195 630,192 600,195 570,202 540,215 510,232 480,248 450,258 420,255 390,238 360,222 330,210 300,205 270,210 240,218 210,230 180,245 150,262 120,278 90,290" fill="url(#bandFill)"/>

  <!-- Price candles (noisy, scattered around Kalman line) -->
  <line x1="90" y1="248" x2="90" y2="282" stroke="#ef5350" stroke-width="1"/><rect x="87" y="252" width="6" height="22" fill="#ef5350" rx="1"/>
  <line x1="110" y1="242" x2="110" y2="275" stroke="#26a69a" stroke-width="1"/><rect x="107" y="252" width="6" height="15" fill="#26a69a" rx="1"/>
  <line x1="130" y1="232" x2="130" y2="268" stroke="#ef5350" stroke-width="1"/><rect x="127" y="238" width="6" height="20" fill="#ef5350" rx="1"/>
  <line x1="150" y1="218" x2="150" y2="255" stroke="#26a69a" stroke-width="1"/><rect x="147" y="228" width="6" height="18" fill="#26a69a" rx="1"/>
  <line x1="170" y1="205" x2="170" y2="242" stroke="#26a69a" stroke-width="1"/><rect x="167" y="212" width="6" height="20" fill="#26a69a" rx="1"/>
  <line x1="190" y1="192" x2="190" y2="230" stroke="#26a69a" stroke-width="1"/><rect x="187" y="198" width="6" height="22" fill="#26a69a" rx="1"/>
  <line x1="210" y1="182" x2="210" y2="218" stroke="#26a69a" stroke-width="1"/><rect x="207" y="188" width="6" height="20" fill="#26a69a" rx="1"/>
  <line x1="230" y1="172" x2="230" y2="208" stroke="#26a69a" stroke-width="1"/><rect x="227" y="178" width="6" height="20" fill="#26a69a" rx="1"/>
  <line x1="250" y1="168" x2="250" y2="200" stroke="#ef5350" stroke-width="1"/><rect x="247" y="172" width="6" height="18" fill="#ef5350" rx="1"/>
  <line x1="270" y1="162" x2="270" y2="195" stroke="#26a69a" stroke-width="1"/><rect x="267" y="168" width="6" height="18" fill="#26a69a" rx="1"/>
  <line x1="290" y1="158" x2="290" y2="192" stroke="#26a69a" stroke-width="1"/><rect x="287" y="165" width="6" height="16" fill="#26a69a" rx="1"/>
  <!-- Reversal zone -->
  <line x1="310" y1="162" x2="310" y2="198" stroke="#ef5350" stroke-width="1"/><rect x="307" y="168" width="6" height="20" fill="#ef5350" rx="1"/>
  <line x1="330" y1="172" x2="330" y2="208" stroke="#ef5350" stroke-width="1"/><rect x="327" y="178" width="6" height="20" fill="#ef5350" rx="1"/>
  <line x1="350" y1="185" x2="350" y2="222" stroke="#ef5350" stroke-width="1"/><rect x="347" y="190" width="6" height="22" fill="#ef5350" rx="1"/>
  <line x1="370" y1="198" x2="370" y2="235" stroke="#ef5350" stroke-width="1"/><rect x="367" y="205" width="6" height="20" fill="#ef5350" rx="1"/>
  <line x1="390" y1="210" x2="390" y2="245" stroke="#ef5350" stroke-width="1"/><rect x="387" y="215" width="6" height="22" fill="#ef5350" rx="1"/>
  <line x1="410" y1="218" x2="410" y2="252" stroke="#ef5350" stroke-width="1"/><rect x="407" y="222" width="6" height="22" fill="#ef5350" rx="1"/>
  <line x1="430" y1="225" x2="430" y2="258" stroke="#26a69a" stroke-width="1"/><rect x="427" y="235" width="6" height="14" fill="#26a69a" rx="1"/>
  <line x1="450" y1="218" x2="450" y2="252" stroke="#26a69a" stroke-width="1"/><rect x="447" y="225" width="6" height="18" fill="#26a69a" rx="1"/>
  <!-- New uptrend -->
  <line x1="470" y1="205" x2="470" y2="242" stroke="#26a69a" stroke-width="1"/><rect x="467" y="212" width="6" height="20" fill="#26a69a" rx="1"/>
  <line x1="490" y1="192" x2="490" y2="228" stroke="#26a69a" stroke-width="1"/><rect x="487" y="198" width="6" height="20" fill="#26a69a" rx="1"/>
  <line x1="510" y1="178" x2="510" y2="218" stroke="#26a69a" stroke-width="1"/><rect x="507" y="185" width="6" height="22" fill="#26a69a" rx="1"/>
  <line x1="530" y1="168" x2="530" y2="205" stroke="#26a69a" stroke-width="1"/><rect x="527" y="175" width="6" height="18" fill="#26a69a" rx="1"/>
  <line x1="550" y1="155" x2="550" y2="192" stroke="#26a69a" stroke-width="1"/><rect x="547" y="162" width="6" height="20" fill="#26a69a" rx="1"/>
  <line x1="570" y1="148" x2="570" y2="182" stroke="#ef5350" stroke-width="1"/><rect x="567" y="152" width="6" height="18" fill="#ef5350" rx="1"/>
  <line x1="590" y1="142" x2="590" y2="178" stroke="#26a69a" stroke-width="1"/><rect x="587" y="148" width="6" height="20" fill="#26a69a" rx="1"/>
  <line x1="610" y1="138" x2="610" y2="172" stroke="#26a69a" stroke-width="1"/><rect x="607" y="142" width="6" height="20" fill="#26a69a" rx="1"/>
  <line x1="630" y1="140" x2="630" y2="175" stroke="#ef5350" stroke-width="1"/><rect x="627" y="145" width="6" height="18" fill="#ef5350" rx="1"/>
  <line x1="650" y1="142" x2="650" y2="178" stroke="#26a69a" stroke-width="1"/><rect x="647" y="148" width="6" height="20" fill="#26a69a" rx="1"/>
  <line x1="670" y1="148" x2="670" y2="182" stroke="#ef5350" stroke-width="1"/><rect x="667" y="152" width="6" height="20" fill="#ef5350" rx="1"/>
  <line x1="690" y1="152" x2="690" y2="185" stroke="#26a69a" stroke-width="1"/><rect x="687" y="158" width="6" height="16" fill="#26a69a" rx="1"/>
  <line x1="710" y1="155" x2="710" y2="188" stroke="#26a69a" stroke-width="1"/><rect x="707" y="160" width="6" height="18" fill="#26a69a" rx="1"/>

  <!-- Kalman filter line (smooth) -->
  <polyline fill="none" stroke="#42a5f5" stroke-width="2.5" opacity="0.95" filter="url(#softGlow)"
    points="90,270 120,258 150,242 180,225 210,210 240,198 270,190 300,185 330,190 360,202 390,218 420,235 450,238 480,228 510,212 540,195 570,182 600,172 630,168 660,170 690,175 720,182"/>

  <!-- Upper confidence band -->
  <polyline fill="none" stroke="#42a5f5" stroke-width="1" stroke-dasharray="4,3" opacity="0.35"
    points="90,250 120,238 150,222 180,205 210,190 240,178 270,170 300,165 330,170 360,182 390,198 420,215 450,218 480,208 510,192 540,175 570,162 600,152 630,148 660,150 690,155 720,162"/>

  <!-- Lower confidence band -->
  <polyline fill="none" stroke="#42a5f5" stroke-width="1" stroke-dasharray="4,3" opacity="0.35"
    points="90,290 120,278 150,262 180,245 210,230 240,218 270,210 300,205 330,210 360,222 390,238 420,255 450,258 480,248 510,232 540,215 570,202 600,195 630,192 660,195 690,198 720,202"/>

  <!-- Bearish reversal signal -->
  <g filter="url(#softGlow)">
    <polygon points="318,178 328,178 323,168" fill="#ef5350" transform="rotate(180, 323, 173)"/>
  </g>
  <rect x="330" y="155" width="100" height="20" rx="4" fill="#ef5350" fill-opacity="0.15" stroke="#ef5350" stroke-width="1" stroke-opacity="0.4"/>
  <text x="380" y="169" text-anchor="middle" fill="#ef5350" font-size="10" font-weight="600">Bear Reversal</text>

  <!-- Bullish reversal signal -->
  <g filter="url(#softGlow)">
    <polygon points="448,232 458,232 453,222" fill="#00e676"/>
  </g>
  <rect x="462" y="215" width="95" height="20" rx="4" fill="#00e676" fill-opacity="0.15" stroke="#00e676" stroke-width="1" stroke-opacity="0.4"/>
  <text x="509" y="229" text-anchor="middle" fill="#00e676" font-size="10" font-weight="600">Bull Reversal</text>

  <!-- Band width annotation (wider at reversal) -->
  <line x1="395" y1="198" x2="395" y2="238" stroke="#ff9800" stroke-width="1" opacity="0.5"/>
  <text x="400" y="248" fill="#ff9800" font-size="8">Wide = uncertain</text>

  <!-- Band width annotation (narrow during trend) -->
  <line x1="275" y1="170" x2="275" y2="210" stroke="#00e676" stroke-width="1" opacity="0.5"/>
  <text x="240" y="220" fill="#00e676" font-size="8">Narrow = confident</text>

  <!-- Predict-Update cycle annotation -->
  <rect x="90" y="310" width="150" height="38" rx="4" fill="#ffffff" fill-opacity="0.05"/>
  <text x="165" y="326" text-anchor="middle" fill="#bbb" font-size="9">Predict: x = F*x + noise</text>
  <text x="165" y="340" text-anchor="middle" fill="#bbb" font-size="9">Update: K = P / (P + R)</text>

  <!-- Volume bars -->
  <g opacity="0.35">
    <rect x="87" y="405" width="6" height="10" fill="#ef5350" rx="1"/>
    <rect x="127" y="403" width="6" height="12" fill="#ef5350" rx="1"/>
    <rect x="167" y="400" width="6" height="15" fill="#26a69a" rx="1"/>
    <rect x="207" y="402" width="6" height="13" fill="#26a69a" rx="1"/>
    <rect x="247" y="405" width="6" height="10" fill="#ef5350" rx="1"/>
    <rect x="287" y="403" width="6" height="12" fill="#26a69a" rx="1"/>
    <rect x="327" y="400" width="6" height="15" fill="#ef5350" rx="1"/>
    <rect x="367" y="398" width="6" height="17" fill="#ef5350" rx="1"/>
    <rect x="407" y="400" width="6" height="15" fill="#ef5350" rx="1"/>
    <rect x="447" y="402" width="6" height="13" fill="#26a69a" rx="1"/>
    <rect x="487" y="400" width="6" height="15" fill="#26a69a" rx="1"/>
    <rect x="527" y="398" width="6" height="17" fill="#26a69a" rx="1"/>
    <rect x="567" y="403" width="6" height="12" fill="#ef5350" rx="1"/>
    <rect x="607" y="400" width="6" height="15" fill="#26a69a" rx="1"/>
    <rect x="647" y="405" width="6" height="10" fill="#ef5350" rx="1"/>
    <rect x="687" y="403" width="6" height="12" fill="#26a69a" rx="1"/>
  </g>

  <!-- Legend -->
  <g transform="translate(60, 445)">
    <rect width="680" height="40" rx="4" fill="#ffffff" fill-opacity="0.03"/>
    <circle cx="20" cy="20" r="4" fill="#42a5f5"/>
    <text x="30" y="24" fill="#999" font-size="9">Kalman Filter</text>
    <line x1="120" y1="12" x2="150" y2="28" stroke="#42a5f5" stroke-width="1" stroke-dasharray="3,2"/>
    <text x="155" y="24" fill="#999" font-size="9">Confidence Bands</text>
    <rect x="270" y="12" width="20" height="16" fill="#42a5f5" opacity="0.2" rx="2"/>
    <text x="295" y="24" fill="#999" font-size="9">Uncertainty Fill</text>
    <circle cx="410" cy="20" r="4" fill="#00e676"/>
    <text x="420" y="24" fill="#999" font-size="9">Bull Signal</text>
    <circle cx="500" cy="20" r="4" fill="#ef5350"/>
    <text x="510" y="24" fill="#999" font-size="9">Bear Signal</text>
    <circle cx="590" cy="20" r="4" fill="#ff9800"/>
    <text x="600" y="24" fill="#999" font-size="9">Band Width</text>
  </g>
</svg>