<svg xmlns="http://www.w3.org/2000/svg" viewBox="0 0 800 500">
  <defs>
    <linearGradient id="bg" x1="0" y1="0" x2="0" y2="1">
      <stop offset="0%" stop-color="#1a1a2e"/><stop offset="100%" stop-color="#16213e"/>
    </linearGradient>
    <linearGradient id="vs" x1="0" y1="0" x2="1" y2="0">
      <stop offset="0%" stop-color="#3b82f6" stop-opacity=".08"/><stop offset="100%" stop-color="#3b82f6" stop-opacity=".18"/>
    </linearGradient>
    <linearGradient id="pg" x1="0" y1="0" x2="1" y2="0">
      <stop offset="0%" stop-color="#fbbf24" stop-opacity="0"/><stop offset="50%" stop-color="#fbbf24" stop-opacity=".3"/><stop offset="100%" stop-color="#fbbf24" stop-opacity="0"/>
    </linearGradient>
  </defs>
  <rect width="800" height="500" fill="url(#bg)"/>
  <g stroke="#fff" stroke-opacity=".06">
    <line x1="60" y1="60" x2="60" y2="440"/><line x1="60" y1="440" x2="700" y2="440"/>
    <line x1="60" y1="100" x2="700" y2="100" stroke-dasharray="2,6"/><line x1="60" y1="160" x2="700" y2="160" stroke-dasharray="2,6"/>
    <line x1="60" y1="220" x2="700" y2="220" stroke-dasharray="2,6"/><line x1="60" y1="280" x2="700" y2="280" stroke-dasharray="2,6"/>
    <line x1="60" y1="340" x2="700" y2="340" stroke-dasharray="2,6"/><line x1="60" y1="400" x2="700" y2="400" stroke-dasharray="2,6"/>
  </g>
  <text x="400" y="40" fill="#e2e8f0" font-family="system-ui" font-size="15" font-weight="bold" text-anchor="middle">Market Profile TPO</text>
  <g fill="#64748b" font-family="monospace" font-size="10" text-anchor="start">
    <text x="710" y="83">185.00</text><text x="710" y="123">180.00</text><text x="710" y="163">175.00</text>
    <text x="710" y="203">170.00</text><text x="710" y="243">165.00</text><text x="710" y="283">160.00</text>
    <text x="710" y="323">155.00</text><text x="710" y="363">150.00</text><text x="710" y="403">145.00</text>
    <text x="710" y="443">140.00</text>
  </g>
  <g stroke-width="1.5">
    <line x1="115" y1="330" x2="115" y2="380" stroke="#ef4444"/><rect x="111" y="340" width="8" height="30" fill="#ef4444" rx="1"/>
    <line x1="140" y1="300" x2="140" y2="360" stroke="#22c55e"/><rect x="136" y="310" width="8" height="35" fill="#22c55e" rx="1"/>
    <line x1="165" y1="270" x2="165" y2="340" stroke="#22c55e"/><rect x="161" y="280" width="8" height="40" fill="#22c55e" rx="1"/>
    <line x1="190" y1="240" x2="190" y2="310" stroke="#22c55e"/><rect x="186" y="250" width="8" height="35" fill="#22c55e" rx="1"/>
    <line x1="215" y1="220" x2="215" y2="290" stroke="#ef4444"/><rect x="211" y="240" width="8" height="35" fill="#ef4444" rx="1"/>
    <line x1="240" y1="200" x2="240" y2="280" stroke="#22c55e"/><rect x="236" y="210" width="8" height="45" fill="#22c55e" rx="1"/>
    <line x1="265" y1="190" x2="265" y2="270" stroke="#ef4444"/><rect x="261" y="210" width="8" height="40" fill="#ef4444" rx="1"/>
    <line x1="290" y1="210" x2="290" y2="280" stroke="#22c55e"/><rect x="286" y="220" width="8" height="40" fill="#22c55e" rx="1"/>
    <line x1="315" y1="200" x2="315" y2="270" stroke="#ef4444"/><rect x="311" y="220" width="8" height="35" fill="#ef4444" rx="1"/>
    <line x1="340" y1="230" x2="340" y2="300" stroke="#22c55e"/><rect x="336" y="240" width="8" height="40" fill="#22c55e" rx="1"/>
    <line x1="365" y1="210" x2="365" y2="290" stroke="#22c55e"/><rect x="361" y="220" width="8" height="45" fill="#22c55e" rx="1"/>
    <line x1="415" y1="220" x2="415" y2="290" stroke="#ef4444"/><rect x="411" y="240" width="8" height="35" fill="#ef4444" rx="1"/>
  </g>
  <rect x="470" y="195" width="220" height="150" fill="url(#vs)" rx="3"/>
  <g fill="#3b82f6" fill-opacity=".6" font-family="monospace" font-size="9">
    <rect x="470" y="80" width="20" height="14" rx="2"/><text x="493" y="91" fill="#94a3b8">A</text>
    <rect x="470" y="100" width="35" height="14" rx="2"/><text x="493" y="111" fill="#94a3b8">AB</text>
    <rect x="470" y="120" width="50" height="14" rx="2"/><text x="493" y="131" fill="#c4d0e0">ABC</text>
    <rect x="470" y="140" width="70" height="14" rx="2"/><text x="493" y="151" fill="#c4d0e0">ABCD</text>
    <rect x="470" y="160" width="95" height="14" rx="2"/><text x="493" y="171" fill="#c4d0e0">ABCDE</text>
    <rect x="470" y="180" width="120" height="14" rx="2"/><text x="493" y="191" fill="#c4d0e0">ABCDEF</text>
  </g>
  <g fill="#3b82f6" fill-opacity=".75" font-family="monospace" font-size="9">
    <rect x="470" y="200" width="150" height="14" rx="2"/><text x="493" y="211" fill="#e2e8f0">ABCDEFG</text>
    <rect x="470" y="220" width="170" height="14" rx="2"/><text x="493" y="231" fill="#e2e8f0">ABCDEFGH</text>
    <rect x="470" y="240" width="190" height="14" rx="2"/><text x="493" y="251" fill="#e2e8f0">ABCDEFGHI</text>
  </g>
  <rect x="470" y="258" width="220" height="18" fill="#fbbf24" fill-opacity=".25" rx="2"/>
  <rect x="470" y="260" width="220" height="14" fill="#fbbf24" fill-opacity=".7" rx="2"/>
  <text x="493" y="271" fill="#1a1a2e" font-family="monospace" font-size="9" font-weight="bold">ABCDEFGHIJK</text>
  <rect x="60" y="265" width="640" height="2" fill="url(#pg)"/>
  <g fill="#3b82f6" fill-opacity=".75" font-family="monospace" font-size="9">
    <rect x="470" y="280" width="180" height="14" rx="2"/><text x="493" y="291" fill="#e2e8f0">ABCDEFGHI</text>
    <rect x="470" y="300" width="155" height="14" rx="2"/><text x="493" y="311" fill="#e2e8f0">ABCDEFGH</text>
    <rect x="470" y="320" width="130" height="14" rx="2"/><text x="493" y="331" fill="#e2e8f0">ABCDEFG</text>
    <rect x="470" y="340" width="105" height="14" rx="2"/><text x="493" y="351" fill="#c4d0e0">ABCDEF</text>
  </g>
  <g fill="#3b82f6" fill-opacity=".6" font-family="monospace" font-size="9">
    <rect x="470" y="360" width="75" height="14" rx="2"/><text x="493" y="371" fill="#c4d0e0">ABCDE</text>
    <rect x="470" y="380" width="50" height="14" rx="2"/><text x="493" y="391" fill="#94a3b8">ABC</text>
    <rect x="470" y="400" width="30" height="14" rx="2"/><text x="493" y="411" fill="#94a3b8">AB</text>
    <rect x="470" y="420" width="15" height="14" rx="2"/><text x="488" y="431" fill="#94a3b8">A</text>
  </g>
  <line x1="60" y1="266" x2="468" y2="266" stroke="#fbbf24" stroke-width="1.5" stroke-dasharray="6,3"/>
  <line x1="60" y1="195" x2="700" y2="195" stroke="#22c55e" stroke-width="1.2" stroke-dasharray="5,4"/>
  <line x1="60" y1="345" x2="700" y2="345" stroke="#ef4444" stroke-width="1.2" stroke-dasharray="5,4"/>
  <g font-family="system-ui" font-size="11" font-weight="bold">
    <text x="65" y="263" fill="#fbbf24">POC</text><text x="65" y="192" fill="#22c55e">VAH</text><text x="65" y="358" fill="#ef4444">VAL</text>
  </g>
  <g font-family="system-ui" font-size="10" fill="#94a3b8">
    <text x="460" y="75" text-anchor="end">Single Prints</text>
    <text x="460" y="435" text-anchor="end">Single Prints</text>
    <text x="460" y="270" text-anchor="end" fill="#fbbf24">Point of Control</text>
  </g>
  <path d="M455,198Q450,270 455,342" stroke="#3b82f6" stroke-opacity=".5" fill="none" stroke-width="1.2"/>
  <text x="443" y="274" fill="#3b82f6" font-family="system-ui" font-size="9" text-anchor="end">Value</text>
  <text x="443" y="284" fill="#3b82f6" font-family="system-ui" font-size="9" text-anchor="end">Area</text>
  <g transform="translate(100,460)" font-family="system-ui" font-size="10" fill="#94a3b8">
    <rect width="10" height="10" fill="#fbbf24" rx="2"/><text x="15" y="9">POC (Most Time)</text>
    <rect x="150" width="10" height="10" fill="#22c55e" rx="2"/><text x="165" y="9">Value Area High</text>
    <rect x="300" width="10" height="10" fill="#ef4444" rx="2"/><text x="315" y="9">Value Area Low</text>
    <rect x="430" width="10" height="10" fill="#3b82f6" fill-opacity=".6" rx="2"/><text x="445" y="9">TPO Blocks</text>
  </g>
  <text x="780" y="490" fill="#475569" font-family="system-ui" font-size="10" text-anchor="end" font-weight="600">tradegrub.finance</text>
</svg>
