<svg xmlns="http://www.w3.org/2000/svg" viewBox="0 0 800 500" font-family="Inter, system-ui, sans-serif">
  <defs>
    <linearGradient id="bg" x1="0" y1="0" x2="0" y2="1">
      <stop offset="0%" stop-color="#1a1a2e"/>
      <stop offset="100%" stop-color="#16213e"/>
    </linearGradient>
    <linearGradient id="cyanglow" x1="0" y1="0" x2="1" y2="0">
      <stop offset="0%" stop-color="#4fc3f7" stop-opacity="0"/>
      <stop offset="50%" stop-color="#4fc3f7" stop-opacity="0.3"/>
      <stop offset="100%" stop-color="#4fc3f7" stop-opacity="0"/>
    </linearGradient>
    <filter id="glow">
      <feGaussianBlur stdDeviation="2.5" result="blur"/>
      <feMerge><feMergeNode in="blur"/><feMergeNode in="SourceGraphic"/></feMerge>
    </filter>
    <filter id="glowStrong">
      <feGaussianBlur stdDeviation="4" result="blur"/>
      <feMerge><feMergeNode in="blur"/><feMergeNode in="SourceGraphic"/></feMerge>
    </filter>
  </defs>

  <!-- Background -->
  <rect width="800" height="500" fill="url(#bg)" rx="8"/>

  <!-- Grid lines -->
  <g stroke="#ffffff" stroke-opacity="0.04" stroke-width="1">
    <line x1="60" y1="80" x2="60" y2="420"/><line x1="160" y1="80" x2="160" y2="420"/>
    <line x1="260" y1="80" x2="260" y2="420"/><line x1="360" y1="80" x2="360" y2="420"/>
    <line x1="460" y1="80" x2="460" y2="420"/><line x1="560" y1="80" x2="560" y2="420"/>
    <line x1="60" y1="120" x2="590" y2="120"/><line x1="60" y1="180" x2="590" y2="180"/>
    <line x1="60" y1="240" x2="590" y2="240"/><line x1="60" y1="300" x2="590" y2="300"/>
    <line x1="60" y1="360" x2="590" y2="360"/>
  </g>

  <!-- Y-axis labels -->
  <g fill="#556688" font-size="9" text-anchor="end">
    <text x="55" y="123">185</text><text x="55" y="183">175</text>
    <text x="55" y="243">165</text><text x="55" y="303">155</text>
    <text x="55" y="363">145</text><text x="55" y="423">135</text>
  </g>

  <!-- Title -->
  <text x="330" y="32" text-anchor="middle" fill="#e8e8f0" font-size="17" font-weight="600">Logarithmic Moving Average</text>
  <text x="330" y="48" text-anchor="middle" fill="#667799" font-size="11">tradegrub.finance</text>

  <!-- Price candles -->
  <g>
    <!-- Wicks -->
    <line x1="80" y1="310" x2="80" y2="370" stroke="#555" stroke-width="1"/>
    <line x1="100" y1="340" x2="100" y2="390" stroke="#555" stroke-width="1"/>
    <line x1="120" y1="300" x2="120" y2="365" stroke="#555" stroke-width="1"/>
    <line x1="140" y1="280" x2="140" y2="350" stroke="#555" stroke-width="1"/>
    <line x1="160" y1="260" x2="160" y2="330" stroke="#555" stroke-width="1"/>
    <line x1="180" y1="250" x2="180" y2="315" stroke="#555" stroke-width="1"/>
    <line x1="200" y1="270" x2="200" y2="330" stroke="#555" stroke-width="1"/>
    <line x1="220" y1="290" x2="220" y2="345" stroke="#555" stroke-width="1"/>
    <line x1="240" y1="260" x2="240" y2="325" stroke="#555" stroke-width="1"/>
    <line x1="260" y1="230" x2="260" y2="300" stroke="#555" stroke-width="1"/>
    <line x1="280" y1="210" x2="280" y2="275" stroke="#555" stroke-width="1"/>
    <line x1="300" y1="195" x2="300" y2="260" stroke="#555" stroke-width="1"/>
    <line x1="320" y1="210" x2="320" y2="280" stroke="#555" stroke-width="1"/>
    <line x1="340" y1="230" x2="340" y2="290" stroke="#555" stroke-width="1"/>
    <line x1="360" y1="250" x2="360" y2="310" stroke="#555" stroke-width="1"/>
    <line x1="380" y1="240" x2="380" y2="300" stroke="#555" stroke-width="1"/>
    <line x1="400" y1="210" x2="400" y2="275" stroke="#555" stroke-width="1"/>
    <line x1="420" y1="190" x2="420" y2="255" stroke="#555" stroke-width="1"/>
    <line x1="440" y1="170" x2="440" y2="240" stroke="#555" stroke-width="1"/>
    <line x1="460" y1="160" x2="460" y2="225" stroke="#555" stroke-width="1"/>
    <line x1="480" y1="150" x2="480" y2="215" stroke="#555" stroke-width="1"/>
    <line x1="500" y1="165" x2="500" y2="230" stroke="#555" stroke-width="1"/>
    <line x1="520" y1="140" x2="520" y2="200" stroke="#555" stroke-width="1"/>
    <line x1="540" y1="120" x2="540" y2="185" stroke="#555" stroke-width="1"/>
    <line x1="560" y1="130" x2="560" y2="195" stroke="#555" stroke-width="1"/>
    <line x1="580" y1="110" x2="580" y2="175" stroke="#555" stroke-width="1"/>

    <!-- Green candles (bullish) -->
    <rect x="74" y="330" width="12" height="30" fill="#26a69a" rx="1"/>
    <rect x="114" y="315" width="12" height="35" fill="#26a69a" rx="1"/>
    <rect x="134" y="295" width="12" height="40" fill="#26a69a" rx="1"/>
    <rect x="154" y="275" width="12" height="38" fill="#26a69a" rx="1"/>
    <rect x="174" y="262" width="12" height="35" fill="#26a69a" rx="1"/>
    <rect x="234" y="272" width="12" height="38" fill="#26a69a" rx="1"/>
    <rect x="254" y="245" width="12" height="40" fill="#26a69a" rx="1"/>
    <rect x="274" y="222" width="12" height="38" fill="#26a69a" rx="1"/>
    <rect x="294" y="208" width="12" height="36" fill="#26a69a" rx="1"/>
    <rect x="374" y="252" width="12" height="32" fill="#26a69a" rx="1"/>
    <rect x="394" y="225" width="12" height="35" fill="#26a69a" rx="1"/>
    <rect x="414" y="205" width="12" height="35" fill="#26a69a" rx="1"/>
    <rect x="434" y="185" width="12" height="38" fill="#26a69a" rx="1"/>
    <rect x="454" y="172" width="12" height="36" fill="#26a69a" rx="1"/>
    <rect x="474" y="162" width="12" height="36" fill="#26a69a" rx="1"/>
    <rect x="514" y="152" width="12" height="34" fill="#26a69a" rx="1"/>
    <rect x="534" y="132" width="12" height="36" fill="#26a69a" rx="1"/>
    <rect x="574" y="122" width="12" height="36" fill="#26a69a" rx="1"/>

    <!-- Red candles (bearish) -->
    <rect x="94" y="350" width="12" height="28" fill="#ef5350" rx="1"/>
    <rect x="194" y="285" width="12" height="30" fill="#ef5350" rx="1"/>
    <rect x="214" y="300" width="12" height="32" fill="#ef5350" rx="1"/>
    <rect x="314" y="228" width="12" height="35" fill="#ef5350" rx="1"/>
    <rect x="334" y="248" width="12" height="30" fill="#ef5350" rx="1"/>
    <rect x="354" y="265" width="12" height="30" fill="#ef5350" rx="1"/>
    <rect x="494" y="180" width="12" height="32" fill="#ef5350" rx="1"/>
    <rect x="554" y="148" width="12" height="30" fill="#ef5350" rx="1"/>
  </g>

  <!-- Log MA line (cyan, smooth) -->
  <polyline points="80,355 100,365 120,345 140,325 160,305 180,290 200,298 220,310 240,295 260,270 280,248 300,232 320,245 340,260 360,275 380,265 400,245 420,225 440,208 460,192 480,180 500,188 520,170 540,152 560,158 580,140" fill="none" stroke="#4fc3f7" stroke-width="2.5" stroke-linecap="round" stroke-linejoin="round" filter="url(#glow)"/>

  <!-- Signal line (orange, dashed) -->
  <polyline points="80,360 100,358 120,350 140,338 160,320 180,308 200,305 220,310 240,305 260,288 280,268 300,252 320,250 340,258 360,268 380,270 400,258 420,242 440,225 460,212 480,198 500,195 520,185 540,172 560,168 580,155" fill="none" stroke="#ff9800" stroke-width="1.8" stroke-dasharray="6,3" stroke-linecap="round" stroke-linejoin="round" filter="url(#glow)"/>

  <!-- Crossover: Buy signal (cyan crosses below orange = bullish) -->
  <polygon points="240,258 248,248 256,258 252,258 252,268 244,268 244,258" fill="#26a69a" filter="url(#glowStrong)"/>
  <text x="248" y="244" text-anchor="middle" fill="#26a69a" font-size="8" font-weight="bold">BUY</text>

  <polygon points="374,238 382,228 390,238 386,238 386,248 378,248 378,238" fill="#26a69a" filter="url(#glowStrong)"/>
  <text x="382" y="224" text-anchor="middle" fill="#26a69a" font-size="8" font-weight="bold">BUY</text>

  <!-- Crossover: Sell signal (cyan crosses above orange = bearish) -->
  <polygon points="196,318 204,328 212,318 208,318 208,308 200,308 200,318" fill="#ef5350" filter="url(#glowStrong)"/>
  <text x="204" y="340" text-anchor="middle" fill="#ef5350" font-size="8" font-weight="bold">SELL</text>

  <polygon points="496,200 504,210 512,200 508,200 508,190 500,190 500,200" fill="#ef5350" filter="url(#glowStrong)"/>
  <text x="504" y="222" text-anchor="middle" fill="#ef5350" font-size="8" font-weight="bold">SELL</text>

  <!-- Inset: Log weighting curve (top-right) -->
  <rect x="610" y="60" width="175" height="130" fill="#0d1525" fill-opacity="0.85" stroke="#334466" stroke-width="1" rx="6"/>
  <text x="697" y="80" text-anchor="middle" fill="#99aabb" font-size="10" font-weight="600">Log Weight Decay</text>
  <text x="625" y="96" fill="#556677" font-size="7">w(i) = ln(N - i + 1)</text>

  <!-- Inset axes -->
  <line x1="635" y1="100" x2="635" y2="175" stroke="#445566" stroke-width="0.8"/>
  <line x1="635" y1="175" x2="770" y2="175" stroke="#445566" stroke-width="0.8"/>
  <text x="632" y="108" text-anchor="end" fill="#445566" font-size="7">W</text>
  <text x="770" y="184" text-anchor="end" fill="#445566" font-size="7">Period (i)</text>

  <!-- Log curve (weight decay) -->
  <polyline points="640,108 650,118 660,126 672,134 686,142 702,150 720,157 740,163 758,168 770,172" fill="none" stroke="#4fc3f7" stroke-width="1.8" stroke-linecap="round" filter="url(#glow)"/>

  <!-- Shaded area under curve -->
  <polygon points="640,108 650,118 660,126 672,134 686,142 702,150 720,157 740,163 758,168 770,172 770,175 640,175" fill="#4fc3f7" fill-opacity="0.08"/>

  <!-- Inset annotations -->
  <text x="648" y="115" fill="#4fc3f7" font-size="7" fill-opacity="0.7">High</text>
  <text x="748" y="168" fill="#4fc3f7" font-size="7" fill-opacity="0.7">Low</text>

  <!-- Volume bars at bottom of chart area -->
  <g fill-opacity="0.25">
    <rect x="74" y="400" width="12" height="18" fill="#26a69a"/>
    <rect x="94" y="405" width="12" height="13" fill="#ef5350"/>
    <rect x="114" y="395" width="12" height="23" fill="#26a69a"/>
    <rect x="134" y="390" width="12" height="28" fill="#26a69a"/>
    <rect x="154" y="398" width="12" height="20" fill="#26a69a"/>
    <rect x="174" y="402" width="12" height="16" fill="#26a69a"/>
    <rect x="194" y="407" width="12" height="11" fill="#ef5350"/>
    <rect x="214" y="405" width="12" height="13" fill="#ef5350"/>
    <rect x="234" y="397" width="12" height="21" fill="#26a69a"/>
    <rect x="254" y="388" width="12" height="30" fill="#26a69a"/>
    <rect x="274" y="392" width="12" height="26" fill="#26a69a"/>
    <rect x="294" y="395" width="12" height="23" fill="#26a69a"/>
    <rect x="314" y="403" width="12" height="15" fill="#ef5350"/>
    <rect x="334" y="406" width="12" height="12" fill="#ef5350"/>
    <rect x="354" y="404" width="12" height="14" fill="#ef5350"/>
    <rect x="374" y="398" width="12" height="20" fill="#26a69a"/>
    <rect x="394" y="393" width="12" height="25" fill="#26a69a"/>
    <rect x="414" y="390" width="12" height="28" fill="#26a69a"/>
    <rect x="434" y="385" width="12" height="33" fill="#26a69a"/>
    <rect x="454" y="392" width="12" height="26" fill="#26a69a"/>
    <rect x="474" y="396" width="12" height="22" fill="#26a69a"/>
    <rect x="494" y="402" width="12" height="16" fill="#ef5350"/>
    <rect x="514" y="388" width="12" height="30" fill="#26a69a"/>
    <rect x="534" y="383" width="12" height="35" fill="#26a69a"/>
    <rect x="554" y="400" width="12" height="18" fill="#ef5350"/>
    <rect x="574" y="386" width="12" height="32" fill="#26a69a"/>
  </g>

  <!-- Legend bar -->
  <rect x="60" y="450" width="530" height="36" fill="#0d1525" fill-opacity="0.6" stroke="#334466" stroke-width="0.5" rx="5"/>
  <line x1="80" y1="468" x2="100" y2="468" stroke="#4fc3f7" stroke-width="2.5" stroke-linecap="round"/>
  <text x="106" y="472" fill="#99aabb" font-size="10">Log MA (21)</text>
  <line x1="190" y1="468" x2="210" y2="468" stroke="#ff9800" stroke-width="1.8" stroke-dasharray="5,3" stroke-linecap="round"/>
  <text x="216" y="472" fill="#99aabb" font-size="10">Signal (9)</text>
  <polygon points="290,464 296,458 302,464" fill="#26a69a"/>
  <text x="308" y="472" fill="#99aabb" font-size="10">Buy Signal</text>
  <polygon points="386,472 392,478 398,472" fill="#ef5350"/>
  <text x="404" y="472" fill="#99aabb" font-size="10">Sell Signal</text>
  <rect x="480" y="462" width="10" height="12" fill="#26a69a" fill-opacity="0.3" rx="1"/>
  <rect x="492" y="465" width="10" height="9" fill="#ef5350" fill-opacity="0.3" rx="1"/>
  <text x="508" y="472" fill="#99aabb" font-size="10">Volume</text>
</svg>