<svg xmlns="http://www.w3.org/2000/svg" viewBox="0 0 800 500" font-family="Inter, system-ui, sans-serif">
  <defs>
    <linearGradient id="bg" x1="0" y1="0" x2="0" y2="1">
      <stop offset="0%" stop-color="#1a1a2e"/>
      <stop offset="100%" stop-color="#16213e"/>
    </linearGradient>
    <filter id="glow">
      <feGaussianBlur stdDeviation="3" result="blur"/>
      <feMerge><feMergeNode in="blur"/><feMergeNode in="SourceGraphic"/></feMerge>
    </filter>
    <filter id="softGlow">
      <feGaussianBlur stdDeviation="2" result="blur"/>
      <feMerge><feMergeNode in="blur"/><feMergeNode in="SourceGraphic"/></feMerge>
    </filter>
  </defs>

  <rect width="800" height="500" fill="url(#bg)" rx="8"/>

  <!-- Grid -->
  <g stroke="#ffffff" stroke-opacity="0.04" stroke-width="1">
    <line x1="80" y1="60" x2="80" y2="280"/><line x1="200" y1="60" x2="200" y2="280"/>
    <line x1="320" y1="60" x2="320" y2="280"/><line x1="440" y1="60" x2="440" y2="280"/>
    <line x1="560" y1="60" x2="560" y2="280"/><line x1="680" y1="60" x2="680" y2="280"/>
    <line x1="60" y1="100" x2="760" y2="100"/><line x1="60" y1="170" x2="760" y2="170"/>
    <line x1="60" y1="240" x2="760" y2="240"/>
  </g>

  <!-- Title -->
  <text x="400" y="30" text-anchor="middle" fill="#e0e0e0" font-size="16" font-weight="600">Directional Vortex Strategy</text>
  <text x="400" y="48" text-anchor="middle" fill="#888" font-size="11">tradegrub.finance</text>

  <!-- Candlesticks: 28 candles - downtrend, reversal, uptrend, top, reversal down -->
  <line x1="85" y1="120" x2="85" y2="158" stroke="#ef5350" stroke-width="1"/>
  <rect x="81" y="128" width="8" height="20" fill="#ef5350" rx="1"/>
  <line x1="110" y1="130" x2="110" y2="168" stroke="#ef5350" stroke-width="1"/>
  <rect x="106" y="138" width="8" height="20" fill="#ef5350" rx="1"/>
  <line x1="135" y1="142" x2="135" y2="180" stroke="#ef5350" stroke-width="1"/>
  <rect x="131" y="150" width="8" height="20" fill="#ef5350" rx="1"/>
  <line x1="160" y1="155" x2="160" y2="192" stroke="#ef5350" stroke-width="1"/>
  <rect x="156" y="162" width="8" height="20" fill="#ef5350" rx="1"/>
  <line x1="185" y1="168" x2="185" y2="205" stroke="#ef5350" stroke-width="1"/>
  <rect x="181" y="175" width="8" height="20" fill="#ef5350" rx="1"/>
  <line x1="210" y1="178" x2="210" y2="215" stroke="#ef5350" stroke-width="1"/>
  <rect x="206" y="185" width="8" height="20" fill="#ef5350" rx="1"/>
  <line x1="235" y1="188" x2="235" y2="225" stroke="#ef5350" stroke-width="1"/>
  <rect x="231" y="195" width="8" height="20" fill="#ef5350" rx="1"/>
  <!-- Bottom / reversal -->
  <line x1="260" y1="195" x2="260" y2="232" stroke="#26a69a" stroke-width="1"/>
  <rect x="256" y="210" width="8" height="14" fill="#26a69a" rx="1"/>
  <line x1="285" y1="200" x2="285" y2="235" stroke="#ef5350" stroke-width="1"/>
  <rect x="281" y="205" width="8" height="18" fill="#ef5350" rx="1"/>
  <line x1="310" y1="192" x2="310" y2="228" stroke="#26a69a" stroke-width="1"/>
  <rect x="306" y="205" width="8" height="15" fill="#26a69a" rx="1"/>
  <!-- Uptrend -->
  <line x1="335" y1="182" x2="335" y2="218" stroke="#26a69a" stroke-width="1"/>
  <rect x="331" y="190" width="8" height="18" fill="#26a69a" rx="1"/>
  <line x1="360" y1="170" x2="360" y2="205" stroke="#26a69a" stroke-width="1"/>
  <rect x="356" y="178" width="8" height="18" fill="#26a69a" rx="1"/>
  <line x1="385" y1="158" x2="385" y2="192" stroke="#26a69a" stroke-width="1"/>
  <rect x="381" y="165" width="8" height="18" fill="#26a69a" rx="1"/>
  <line x1="410" y1="145" x2="410" y2="180" stroke="#26a69a" stroke-width="1"/>
  <rect x="406" y="152" width="8" height="18" fill="#26a69a" rx="1"/>
  <line x1="435" y1="132" x2="435" y2="168" stroke="#26a69a" stroke-width="1"/>
  <rect x="431" y="140" width="8" height="18" fill="#26a69a" rx="1"/>
  <line x1="460" y1="120" x2="460" y2="155" stroke="#26a69a" stroke-width="1"/>
  <rect x="456" y="128" width="8" height="18" fill="#26a69a" rx="1"/>
  <line x1="485" y1="110" x2="485" y2="145" stroke="#26a69a" stroke-width="1"/>
  <rect x="481" y="118" width="8" height="18" fill="#26a69a" rx="1"/>
  <line x1="510" y1="102" x2="510" y2="138" stroke="#26a69a" stroke-width="1"/>
  <rect x="506" y="110" width="8" height="18" fill="#26a69a" rx="1"/>
  <line x1="535" y1="98" x2="535" y2="132" stroke="#26a69a" stroke-width="1"/>
  <rect x="531" y="105" width="8" height="18" fill="#26a69a" rx="1"/>
  <!-- Top / reversal down -->
  <line x1="560" y1="95" x2="560" y2="130" stroke="#ef5350" stroke-width="1"/>
  <rect x="556" y="100" width="8" height="20" fill="#ef5350" rx="1"/>
  <line x1="585" y1="100" x2="585" y2="138" stroke="#ef5350" stroke-width="1"/>
  <rect x="581" y="108" width="8" height="20" fill="#ef5350" rx="1"/>
  <line x1="610" y1="112" x2="610" y2="150" stroke="#ef5350" stroke-width="1"/>
  <rect x="606" y="118" width="8" height="22" fill="#ef5350" rx="1"/>
  <line x1="635" y1="122" x2="635" y2="160" stroke="#ef5350" stroke-width="1"/>
  <rect x="631" y="128" width="8" height="22" fill="#ef5350" rx="1"/>
  <line x1="660" y1="135" x2="660" y2="172" stroke="#ef5350" stroke-width="1"/>
  <rect x="656" y="142" width="8" height="20" fill="#ef5350" rx="1"/>
  <line x1="685" y1="145" x2="685" y2="180" stroke="#ef5350" stroke-width="1"/>
  <rect x="681" y="152" width="8" height="18" fill="#ef5350" rx="1"/>
  <line x1="710" y1="155" x2="710" y2="190" stroke="#26a69a" stroke-width="1"/>
  <rect x="706" y="165" width="8" height="16" fill="#26a69a" rx="1"/>
  <line x1="735" y1="150" x2="735" y2="185" stroke="#26a69a" stroke-width="1"/>
  <rect x="731" y="160" width="8" height="16" fill="#26a69a" rx="1"/>

  <!-- Volume bars -->
  <g opacity="0.4">
    <rect x="81" y="398" width="8" height="20" fill="#ef5350" rx="1"/>
    <rect x="106" y="400" width="8" height="18" fill="#ef5350" rx="1"/>
    <rect x="131" y="396" width="8" height="22" fill="#ef5350" rx="1"/>
    <rect x="156" y="394" width="8" height="24" fill="#ef5350" rx="1"/>
    <rect x="181" y="398" width="8" height="20" fill="#ef5350" rx="1"/>
    <rect x="206" y="400" width="8" height="18" fill="#ef5350" rx="1"/>
    <rect x="231" y="402" width="8" height="16" fill="#ef5350" rx="1"/>
    <rect x="256" y="405" width="8" height="13" fill="#26a69a" rx="1"/>
    <rect x="281" y="406" width="8" height="12" fill="#ef5350" rx="1"/>
    <rect x="306" y="404" width="8" height="14" fill="#26a69a" rx="1"/>
    <rect x="331" y="398" width="8" height="20" fill="#26a69a" rx="1"/>
    <rect x="356" y="394" width="8" height="24" fill="#26a69a" rx="1"/>
    <rect x="381" y="392" width="8" height="26" fill="#26a69a" rx="1"/>
    <rect x="406" y="396" width="8" height="22" fill="#26a69a" rx="1"/>
    <rect x="431" y="398" width="8" height="20" fill="#26a69a" rx="1"/>
    <rect x="456" y="400" width="8" height="18" fill="#26a69a" rx="1"/>
    <rect x="481" y="402" width="8" height="16" fill="#26a69a" rx="1"/>
    <rect x="506" y="404" width="8" height="14" fill="#26a69a" rx="1"/>
    <rect x="531" y="405" width="8" height="13" fill="#26a69a" rx="1"/>
    <rect x="556" y="396" width="8" height="22" fill="#ef5350" rx="1"/>
    <rect x="581" y="394" width="8" height="24" fill="#ef5350" rx="1"/>
    <rect x="606" y="398" width="8" height="20" fill="#ef5350" rx="1"/>
    <rect x="631" y="400" width="8" height="18" fill="#ef5350" rx="1"/>
    <rect x="656" y="402" width="8" height="16" fill="#ef5350" rx="1"/>
    <rect x="681" y="404" width="8" height="14" fill="#ef5350" rx="1"/>
    <rect x="706" y="406" width="8" height="12" fill="#26a69a" rx="1"/>
    <rect x="731" y="404" width="8" height="14" fill="#26a69a" rx="1"/>
  </g>

  <!-- Separator -->
  <line x1="60" y1="290" x2="760" y2="290" stroke="#ffffff" stroke-opacity="0.08" stroke-width="1"/>
  <text x="65" y="305" fill="#888" font-size="9">Vortex</text>

  <!-- Vortex panel: 1.0 reference at y=355, range 0.7-1.3 mapped to y=380-320 -->
  <!-- Reference line at 1.0 -->
  <line x1="80" y1="355" x2="740" y2="355" stroke="#ffffff" stroke-opacity="0.15" stroke-width="1" stroke-dasharray="4,4"/>
  <text x="745" y="358" fill="#666" font-size="8">1.0</text>

  <!-- VI+ line (green) - low in downtrend, high in uptrend -->
  <path d="M85,372 L110,375 L135,378 L160,375 L185,372 L210,370 L235,365 L260,358 L285,362 L310,350 L335,340 L360,332 L385,325 L410,320 L435,318 L460,320 L485,322 L510,318 L535,320 L560,330 L585,340 L610,350 L635,358 L660,365 L685,370 L710,362 L735,355" fill="none" stroke="#26a69a" stroke-width="2"/>

  <!-- VI- line (red) - high in downtrend, low in uptrend -->
  <path d="M85,335 L110,332 L135,328 L160,330 L185,332 L210,335 L235,340 L260,348 L285,345 L310,355 L335,365 L360,372 L385,378 L410,380 L435,378 L460,375 L485,372 L510,378 L535,375 L560,365 L585,355 L610,348 L635,340 L660,335 L685,330 L710,338 L735,348" fill="none" stroke="#ef5350" stroke-width="2"/>

  <!-- BUY signal at crossover x=310 where VI+ crosses above VI- -->
  <circle cx="310" cy="352" r="8" fill="none" stroke="#00e676" stroke-width="2" filter="url(#glow)"/>
  <line x1="310" y1="280" x2="310" y2="345" stroke="#00e676" stroke-width="1" stroke-dasharray="3,3" opacity="0.3"/>
  <g filter="url(#softGlow)">
    <polygon points="308,198 318,198 313,185" fill="#00e676"/>
  </g>
  <rect x="263" y="180" width="50" height="18" rx="4" fill="#00e676" fill-opacity="0.15" stroke="#00e676" stroke-width="1" stroke-opacity="0.4"/>
  <text x="288" y="193" text-anchor="middle" fill="#00e676" font-size="10" font-weight="600">BUY</text>

  <!-- EXIT signal at x=610 where VI- crosses above VI+ -->
  <circle cx="610" cy="349" r="8" fill="none" stroke="#ef5350" stroke-width="2" filter="url(#glow)"/>
  <line x1="610" y1="280" x2="610" y2="342" stroke="#ef5350" stroke-width="1" stroke-dasharray="3,3" opacity="0.3"/>
  <g filter="url(#softGlow)">
    <polygon points="608,145 618,145 613,158" fill="#ef5350"/>
  </g>
  <rect x="565" y="130" width="50" height="18" rx="4" fill="#ef5350" fill-opacity="0.15" stroke="#ef5350" stroke-width="1" stroke-opacity="0.4"/>
  <text x="590" y="143" text-anchor="middle" fill="#ef5350" font-size="10" font-weight="600">EXIT</text>

  <!-- Legend -->
  <g transform="translate(60, 445)">
    <rect width="680" height="40" rx="4" fill="#ffffff" fill-opacity="0.03"/>
    <circle cx="20" cy="20" r="4" fill="#26a69a"/>
    <text x="30" y="24" fill="#999" font-size="9">VI+ (Positive)</text>
    <circle cx="140" cy="20" r="4" fill="#ef5350"/>
    <text x="150" y="24" fill="#999" font-size="9">VI- (Negative)</text>
    <line x1="260" y1="20" x2="290" y2="20" stroke="#ffffff" stroke-width="1" stroke-dasharray="4,4" opacity="0.3"/>
    <text x="298" y="24" fill="#999" font-size="9">Reference (1.0)</text>
    <circle cx="420" cy="20" r="4" fill="#00e676"/>
    <text x="430" y="24" fill="#999" font-size="9">Buy Signal</text>
    <circle cx="520" cy="20" r="4" fill="#ef5350"/>
    <text x="530" y="24" fill="#999" font-size="9">Exit Signal</text>
  </g>
</svg>