<svg xmlns="http://www.w3.org/2000/svg" viewBox="0 0 800 500">
  <defs>
    <linearGradient id="bg" x1="0" y1="0" x2="0" y2="1">
      <stop offset="0%" stop-color="#1a1a2e"/>
      <stop offset="100%" stop-color="#16213e"/>
    </linearGradient>
  </defs>
  <rect width="800" height="500" fill="url(#bg)" rx="8"/>
  <text x="400" y="35" text-anchor="middle" fill="#e0e0e0" font-family="Inter,sans-serif" font-size="18" font-weight="600">Institutional Candle Profile</text>
  <text x="400" y="55" text-anchor="middle" fill="#666" font-family="Inter,sans-serif" font-size="11">tradegrub.finance</text>

  <g stroke="#ffffff" stroke-opacity="0.04" stroke-width="1">
    <line x1="80" y1="70" x2="80" y2="400"/><line x1="200" y1="70" x2="200" y2="400"/>
    <line x1="320" y1="70" x2="320" y2="400"/><line x1="440" y1="70" x2="440" y2="400"/>
    <line x1="560" y1="70" x2="560" y2="400"/><line x1="680" y1="70" x2="680" y2="400"/>
  </g>

  <!-- Normal candles -->
  <line x1="100" y1="250" x2="100" y2="300" stroke="#26a69a" stroke-width="1"/>
  <rect x="96" y="260" width="8" height="25" fill="#26a69a" rx="1"/>
  <line x1="130" y1="240" x2="130" y2="290" stroke="#ef5350" stroke-width="1"/>
  <rect x="126" y="250" width="8" height="22" fill="#ef5350" rx="1"/>
  <line x1="160" y1="230" x2="160" y2="275" stroke="#26a69a" stroke-width="1"/>
  <rect x="156" y="238" width="8" height="22" fill="#26a69a" rx="1"/>

  <!-- INSTITUTIONAL BUY candle (large body, high volume) -->
  <rect x="183" y="140" width="24" height="150" fill="#00e676" fill-opacity="0.06" rx="4"/>
  <line x1="195" y1="155" x2="195" y2="280" stroke="#00e676" stroke-width="1.5"/>
  <rect x="189" y="160" width="12" height="105" fill="#00e676" rx="1"/>
  <polygon points="189,290 201,290 195,300" fill="#00e676"/>
  <rect x="210" y="152" width="70" height="18" rx="3" fill="rgba(0,230,118,0.15)" stroke="#00e676" stroke-width="0.5"/>
  <text x="245" y="164" text-anchor="middle" fill="#00e676" font-family="Inter,sans-serif" font-size="9" font-weight="600">Inst Buy</text>

  <!-- Normal candles -->
  <line x1="250" y1="150" x2="250" y2="210" stroke="#26a69a" stroke-width="1"/>
  <rect x="246" y="160" width="8" height="30" fill="#26a69a" rx="1"/>
  <line x1="280" y1="145" x2="280" y2="200" stroke="#26a69a" stroke-width="1"/>
  <rect x="276" y="155" width="8" height="28" fill="#26a69a" rx="1"/>
  <line x1="310" y1="140" x2="310" y2="195" stroke="#ef5350" stroke-width="1"/>
  <rect x="306" y="148" width="8" height="25" fill="#ef5350" rx="1"/>
  <line x1="340" y1="130" x2="340" y2="185" stroke="#26a69a" stroke-width="1"/>
  <rect x="336" y="138" width="8" height="28" fill="#26a69a" rx="1"/>

  <!-- ABSORPTION candle (small body, big wicks, high volume) -->
  <rect x="363" y="100" width="24" height="120" fill="#ffab00" fill-opacity="0.05" rx="4"/>
  <line x1="375" y1="105" x2="375" y2="210" stroke="#ffab00" stroke-width="1.5"/>
  <rect x="369" y="148" width="12" height="15" fill="#ffab00" rx="1"/>
  <polygon points="369,100 381,100 375,92" fill="#ffab00" fill-opacity="0.6"/>
  <rect x="390" y="102" width="55" height="18" rx="3" fill="rgba(255,171,0,0.15)" stroke="#ffab00" stroke-width="0.5"/>
  <text x="417" y="114" text-anchor="middle" fill="#ffab00" font-family="Inter,sans-serif" font-size="9" font-weight="600">Absorb</text>

  <!-- Normal candles -->
  <line x1="420" y1="135" x2="420" y2="190" stroke="#ef5350" stroke-width="1"/>
  <rect x="416" y="142" width="8" height="28" fill="#ef5350" rx="1"/>
  <line x1="450" y1="145" x2="450" y2="210" stroke="#ef5350" stroke-width="1"/>
  <rect x="446" y="155" width="8" height="30" fill="#ef5350" rx="1"/>
  <line x1="480" y1="160" x2="480" y2="230" stroke="#ef5350" stroke-width="1"/>
  <rect x="476" y="170" width="8" height="35" fill="#ef5350" rx="1"/>

  <!-- INSTITUTIONAL SELL candle -->
  <rect x="503" y="165" width="24" height="160" fill="#ff1744" fill-opacity="0.06" rx="4"/>
  <line x1="515" y1="170" x2="515" y2="320" stroke="#ff1744" stroke-width="1.5"/>
  <rect x="509" y="185" width="12" height="120" fill="#ef5350" rx="1"/>
  <polygon points="509,168 521,168 515,158" fill="#ff1744"/>
  <rect x="530" y="175" width="65" height="18" rx="3" fill="rgba(255,23,68,0.15)" stroke="#ff1744" stroke-width="0.5"/>
  <text x="562" y="187" text-anchor="middle" fill="#ff1744" font-family="Inter,sans-serif" font-size="9" font-weight="600">Inst Sell</text>

  <!-- Normal candles -->
  <line x1="570" y1="280" x2="570" y2="340" stroke="#ef5350" stroke-width="1"/>
  <rect x="566" y="290" width="8" height="30" fill="#ef5350" rx="1"/>
  <line x1="600" y1="300" x2="600" y2="355" stroke="#26a69a" stroke-width="1"/>
  <rect x="596" y="308" width="8" height="28" fill="#26a69a" rx="1"/>
  <line x1="630" y1="290" x2="630" y2="345" stroke="#26a69a" stroke-width="1"/>
  <rect x="626" y="298" width="8" height="28" fill="#26a69a" rx="1"/>
  <line x1="660" y1="285" x2="660" y2="335" stroke="#ef5350" stroke-width="1"/>
  <rect x="656" y="292" width="8" height="25" fill="#ef5350" rx="1"/>
  <line x1="690" y1="295" x2="690" y2="345" stroke="#26a69a" stroke-width="1"/>
  <rect x="686" y="302" width="8" height="25" fill="#26a69a" rx="1"/>

  <!-- Legend -->
  <g transform="translate(80, 440)">
    <rect width="640" height="40" rx="4" fill="#ffffff" fill-opacity="0.03"/>
    <circle cx="20" cy="20" r="4" fill="#00e676"/>
    <text x="30" y="24" fill="#999" font-family="Inter,sans-serif" font-size="9">Institutional Buy</text>
    <circle cx="160" cy="20" r="4" fill="#ff1744"/>
    <text x="170" y="24" fill="#999" font-family="Inter,sans-serif" font-size="9">Institutional Sell</text>
    <polygon points="296,16 304,16 300,24" fill="#ffab00"/>
    <text x="310" y="24" fill="#999" font-family="Inter,sans-serif" font-size="9">Absorption</text>
    <rect x="410" y="14" width="14" height="12" fill="#26a69a" rx="1"/>
    <text x="430" y="24" fill="#999" font-family="Inter,sans-serif" font-size="9">Normal Volume</text>
  </g>
</svg>
