<svg xmlns="http://www.w3.org/2000/svg" viewBox="0 0 800 500">
  <defs>
    <linearGradient id="bg" x1="0" y1="0" x2="0" y2="1">
      <stop offset="0%" stop-color="#1a1a2e"/>
      <stop offset="100%" stop-color="#16213e"/>
    </linearGradient>
  </defs>
  <rect width="800" height="500" fill="url(#bg)" rx="8"/>
  <text x="400" y="35" text-anchor="middle" fill="#e0e0e0" font-family="Inter,sans-serif" font-size="18" font-weight="600">Volume Climax Detector</text>
  <text x="400" y="55" text-anchor="middle" fill="#666" font-family="Inter,sans-serif" font-size="11">tradegrub.finance</text>

  <g stroke="#ffffff" stroke-opacity="0.04" stroke-width="1">
    <line x1="80" y1="70" x2="80" y2="400"/><line x1="200" y1="70" x2="200" y2="400"/>
    <line x1="320" y1="70" x2="320" y2="400"/><line x1="440" y1="70" x2="440" y2="400"/>
    <line x1="560" y1="70" x2="560" y2="400"/><line x1="680" y1="70" x2="680" y2="400"/>
  </g>

  <!-- Uptrend candles -->
  <line x1="100" y1="280" x2="100" y2="310" stroke="#26a69a" stroke-width="1"/>
  <rect x="97" y="285" width="6" height="18" fill="#26a69a" rx="1"/>
  <line x1="125" y1="265" x2="125" y2="295" stroke="#26a69a" stroke-width="1"/>
  <rect x="122" y="270" width="6" height="18" fill="#26a69a" rx="1"/>
  <line x1="150" y1="245" x2="150" y2="275" stroke="#26a69a" stroke-width="1"/>
  <rect x="147" y="250" width="6" height="18" fill="#26a69a" rx="1"/>
  <line x1="175" y1="220" x2="175" y2="252" stroke="#26a69a" stroke-width="1"/>
  <rect x="172" y="225" width="6" height="18" fill="#26a69a" rx="1"/>
  <line x1="200" y1="195" x2="200" y2="228" stroke="#26a69a" stroke-width="1"/>
  <rect x="197" y="200" width="6" height="20" fill="#26a69a" rx="1"/>
  <line x1="225" y1="170" x2="225" y2="205" stroke="#26a69a" stroke-width="1"/>
  <rect x="222" y="175" width="6" height="22" fill="#26a69a" rx="1"/>

  <!-- BEAR CLIMAX - exhaustion at top (large upper wick, climax volume) -->
  <rect x="244" y="85" width="22" height="160" fill="#ff1744" fill-opacity="0.06" rx="4"/>
  <line x1="255" y1="90" x2="255" y2="240" stroke="#ff1744" stroke-width="1.5"/>
  <rect x="250" y="160" width="10" height="70" fill="#ef5350" rx="1"/>
  <polygon points="250,85 260,85 255,75" fill="#ff1744"/>
  <rect x="270" y="82" width="58" height="18" rx="3" fill="rgba(255,23,68,0.2)" stroke="#ff1744" stroke-width="0.5"/>
  <text x="299" y="94" text-anchor="middle" fill="#ff1744" font-family="Inter,sans-serif" font-size="9" font-weight="600">Climax</text>

  <!-- Selloff -->
  <line x1="285" y1="210" x2="285" y2="260" stroke="#ef5350" stroke-width="1"/>
  <rect x="282" y="218" width="6" height="28" fill="#ef5350" rx="1"/>
  <line x1="310" y1="240" x2="310" y2="285" stroke="#ef5350" stroke-width="1"/>
  <rect x="307" y="248" width="6" height="25" fill="#ef5350" rx="1"/>
  <line x1="335" y1="265" x2="335" y2="305" stroke="#ef5350" stroke-width="1"/>
  <rect x="332" y="272" width="6" height="22" fill="#ef5350" rx="1"/>
  <line x1="360" y1="285" x2="360" y2="320" stroke="#ef5350" stroke-width="1"/>
  <rect x="357" y="292" width="6" height="18" fill="#ef5350" rx="1"/>

  <!-- CAPITULATION - large body sell candle with extreme volume -->
  <rect x="379" y="285" width="22" height="110" fill="#ff9800" fill-opacity="0.06" rx="4"/>
  <line x1="390" y1="290" x2="390" y2="390" stroke="#ff9800" stroke-width="1.5"/>
  <rect x="385" y="298" width="10" height="80" fill="#ef5350" rx="1"/>
  <polygon points="383,288 397,288 390,278" fill="#ff9800"/>
  <text x="390" y="270" text-anchor="middle" fill="#ff9800" font-family="Inter,sans-serif" font-size="8">Capit</text>

  <!-- BULL CLIMAX - exhaustion at bottom (large lower wick, climax volume) -->
  <rect x="409" y="280" width="22" height="120" fill="#00e676" fill-opacity="0.06" rx="4"/>
  <line x1="420" y1="285" x2="420" y2="395" stroke="#00e676" stroke-width="1.5"/>
  <rect x="415" y="290" width="10" height="50" fill="#26a69a" rx="1"/>
  <polygon points="415,400 425,400 420,412" fill="#00e676"/>
  <rect x="435" y="392" width="58" height="18" rx="3" fill="rgba(0,230,118,0.2)" stroke="#00e676" stroke-width="0.5"/>
  <text x="464" y="404" text-anchor="middle" fill="#00e676" font-family="Inter,sans-serif" font-size="9" font-weight="600">Climax</text>

  <!-- Recovery -->
  <line x1="450" y1="310" x2="450" y2="350" stroke="#26a69a" stroke-width="1"/>
  <rect x="447" y="318" width="6" height="22" fill="#26a69a" rx="1"/>
  <line x1="475" y1="290" x2="475" y2="330" stroke="#26a69a" stroke-width="1"/>
  <rect x="472" y="298" width="6" height="22" fill="#26a69a" rx="1"/>
  <line x1="500" y1="270" x2="500" y2="305" stroke="#26a69a" stroke-width="1"/>
  <rect x="497" y="278" width="6" height="18" fill="#26a69a" rx="1"/>
  <line x1="525" y1="255" x2="525" y2="288" stroke="#ef5350" stroke-width="1"/>
  <rect x="522" y="262" width="6" height="16" fill="#ef5350" rx="1"/>
  <line x1="550" y1="245" x2="550" y2="275" stroke="#26a69a" stroke-width="1"/>
  <rect x="547" y="252" width="6" height="16" fill="#26a69a" rx="1"/>
  <line x1="575" y1="235" x2="575" y2="265" stroke="#26a69a" stroke-width="1"/>
  <rect x="572" y="242" width="6" height="16" fill="#26a69a" rx="1"/>

  <!-- Volume bars at bottom -->
  <g opacity="0.35">
    <rect x="97" y="395" width="6" height="10" fill="#26a69a" rx="1"/>
    <rect x="122" y="393" width="6" height="12" fill="#26a69a" rx="1"/>
    <rect x="147" y="390" width="6" height="15" fill="#26a69a" rx="1"/>
    <rect x="172" y="388" width="6" height="17" fill="#26a69a" rx="1"/>
    <rect x="197" y="385" width="6" height="20" fill="#26a69a" rx="1"/>
    <rect x="222" y="382" width="6" height="23" fill="#26a69a" rx="1"/>
  </g>
  <rect x="250" y="360" width="10" height="45" fill="#ff1744" fill-opacity="0.7" rx="1"/>
  <g opacity="0.35">
    <rect x="282" y="388" width="6" height="17" fill="#ef5350" rx="1"/>
    <rect x="307" y="390" width="6" height="15" fill="#ef5350" rx="1"/>
    <rect x="332" y="392" width="6" height="13" fill="#ef5350" rx="1"/>
    <rect x="357" y="390" width="6" height="15" fill="#ef5350" rx="1"/>
  </g>
  <rect x="385" y="355" width="10" height="50" fill="#ff9800" fill-opacity="0.7" rx="1"/>
  <rect x="415" y="358" width="10" height="47" fill="#00e676" fill-opacity="0.7" rx="1"/>
  <g opacity="0.35">
    <rect x="447" y="388" width="6" height="17" fill="#26a69a" rx="1"/>
    <rect x="472" y="390" width="6" height="15" fill="#26a69a" rx="1"/>
    <rect x="497" y="393" width="6" height="12" fill="#26a69a" rx="1"/>
    <rect x="522" y="395" width="6" height="10" fill="#ef5350" rx="1"/>
    <rect x="547" y="393" width="6" height="12" fill="#26a69a" rx="1"/>
    <rect x="572" y="395" width="6" height="10" fill="#26a69a" rx="1"/>
  </g>

  <!-- Legend -->
  <g transform="translate(80, 440)">
    <rect width="640" height="40" rx="4" fill="#ffffff" fill-opacity="0.03"/>
    <polygon points="15,24 23,24 19,16" fill="#ff1744"/>
    <text x="28" y="24" fill="#999" font-family="Inter,sans-serif" font-size="9">Bear Climax</text>
    <polygon points="120,16 128,16 124,24" fill="#00e676"/>
    <text x="133" y="24" fill="#999" font-family="Inter,sans-serif" font-size="9">Bull Climax</text>
    <text x="233" y="24" fill="#ff9800" font-family="Inter,sans-serif" font-size="12">x</text>
    <text x="248" y="24" fill="#999" font-family="Inter,sans-serif" font-size="9">Capitulation</text>
    <rect x="350" y="14" width="14" height="12" fill="#ff1744" fill-opacity="0.5" rx="2"/>
    <text x="370" y="24" fill="#999" font-family="Inter,sans-serif" font-size="9">Climax Volume</text>
    <rect x="480" y="14" width="14" height="12" fill="#26a69a" fill-opacity="0.4" rx="2"/>
    <text x="500" y="24" fill="#999" font-family="Inter,sans-serif" font-size="9">Normal Volume</text>
  </g>
</svg>
