<svg xmlns="http://www.w3.org/2000/svg" viewBox="0 0 800 500">
  <defs>
    <linearGradient id="bg" x1="0" y1="0" x2="0" y2="1">
      <stop offset="0%" stop-color="#1a1a2e"/>
      <stop offset="100%" stop-color="#16213e"/>
    </linearGradient>
  </defs>
  <rect width="800" height="500" fill="url(#bg)" rx="8"/>
  <text x="400" y="35" text-anchor="middle" fill="#e0e0e0" font-family="Inter,sans-serif" font-size="18" font-weight="600">Polarized Fractal Efficiency</text>
  <text x="400" y="55" text-anchor="middle" fill="#666" font-family="Inter,sans-serif" font-size="11">tradegrub.finance</text>

  <!-- Price chart -->
  <rect x="60" y="70" width="700" height="150" fill="none" stroke="#333" stroke-width="0.5" rx="4"/>
  <line x1="100" y1="160" x2="100" y2="195" stroke="#26a69a" stroke-width="1"/><rect x="97" y="165" width="6" height="22" fill="#26a69a" rx="1"/>
  <line x1="140" y1="145" x2="140" y2="185" stroke="#26a69a" stroke-width="1"/><rect x="137" y="150" width="6" height="28" fill="#26a69a" rx="1"/>
  <line x1="180" y1="125" x2="180" y2="168" stroke="#26a69a" stroke-width="1"/><rect x="177" y="130" width="6" height="28" fill="#26a69a" rx="1"/>
  <line x1="220" y1="108" x2="220" y2="150" stroke="#26a69a" stroke-width="1"/><rect x="217" y="112" width="6" height="28" fill="#26a69a" rx="1"/>
  <line x1="260" y1="95" x2="260" y2="138" stroke="#26a69a" stroke-width="1"/><rect x="257" y="100" width="6" height="28" fill="#26a69a" rx="1"/>
  <line x1="300" y1="88" x2="300" y2="130" stroke="#ef5350" stroke-width="1"/><rect x="297" y="95" width="6" height="28" fill="#ef5350" rx="1"/>
  <line x1="340" y1="95" x2="340" y2="135" stroke="#26a69a" stroke-width="1"/><rect x="337" y="98" width="6" height="25" fill="#26a69a" rx="1"/>
  <line x1="380" y1="100" x2="380" y2="140" stroke="#ef5350" stroke-width="1"/><rect x="377" y="108" width="6" height="25" fill="#ef5350" rx="1"/>
  <line x1="420" y1="105" x2="420" y2="145" stroke="#26a69a" stroke-width="1"/><rect x="417" y="110" width="6" height="25" fill="#26a69a" rx="1"/>
  <line x1="460" y1="98" x2="460" y2="138" stroke="#ef5350" stroke-width="1"/><rect x="457" y="105" width="6" height="25" fill="#ef5350" rx="1"/>
  <line x1="500" y1="110" x2="500" y2="155" stroke="#ef5350" stroke-width="1"/><rect x="497" y="118" width="6" height="28" fill="#ef5350" rx="1"/>
  <line x1="540" y1="125" x2="540" y2="170" stroke="#ef5350" stroke-width="1"/><rect x="537" y="132" width="6" height="28" fill="#ef5350" rx="1"/>
  <line x1="580" y1="145" x2="580" y2="190" stroke="#ef5350" stroke-width="1"/><rect x="577" y="152" width="6" height="28" fill="#ef5350" rx="1"/>
  <line x1="620" y1="165" x2="620" y2="205" stroke="#ef5350" stroke-width="1"/><rect x="617" y="172" width="6" height="25" fill="#ef5350" rx="1"/>
  <line x1="660" y1="175" x2="660" y2="210" stroke="#26a69a" stroke-width="1"/><rect x="657" y="178" width="6" height="25" fill="#26a69a" rx="1"/>
  <line x1="700" y1="165" x2="700" y2="200" stroke="#26a69a" stroke-width="1"/><rect x="697" y="168" width="6" height="22" fill="#26a69a" rx="1"/>

  <!-- Annotations on price -->
  <text x="180" y="85" text-anchor="middle" fill="rgba(0,230,118,0.5)" font-size="10" font-family="Inter,sans-serif">Efficient Uptrend</text>
  <text x="400" y="85" text-anchor="middle" fill="rgba(255,255,255,0.3)" font-size="10" font-family="Inter,sans-serif">Choppy</text>
  <text x="600" y="85" text-anchor="middle" fill="rgba(255,23,68,0.5)" font-size="10" font-family="Inter,sans-serif">Efficient Downtrend</text>

  <!-- PFE Panel -->
  <rect x="60" y="240" width="700" height="200" fill="none" stroke="#333" stroke-width="0.5" rx="4"/>

  <!-- Strong zones -->
  <rect x="60" y="245" width="700" height="40" fill="rgba(0,230,118,0.04)"/>
  <rect x="60" y="395" width="700" height="45" fill="rgba(255,23,68,0.04)"/>

  <!-- Reference lines -->
  <line x1="60" y1="270" x2="760" y2="270" stroke="rgba(0,230,118,0.4)" stroke-width="0.7" stroke-dasharray="6,4"/>
  <line x1="60" y1="340" x2="760" y2="340" stroke="#555" stroke-width="0.5" stroke-dasharray="4,4"/>
  <line x1="60" y1="410" x2="760" y2="410" stroke="rgba(255,23,68,0.4)" stroke-width="0.7" stroke-dasharray="6,4"/>
  <text x="55" y="273" text-anchor="end" fill="rgba(0,230,118,0.6)" font-size="9" font-family="Inter,sans-serif">+50</text>
  <text x="55" y="343" text-anchor="end" fill="#555" font-size="9" font-family="Inter,sans-serif">0</text>
  <text x="55" y="413" text-anchor="end" fill="rgba(255,23,68,0.6)" font-size="9" font-family="Inter,sans-serif">-50</text>

  <!-- PFE line -->
  <polyline points="100,310 140,285 180,262 220,255 260,260 300,275 340,310 380,330 420,320 460,335 500,355 540,380 580,405 620,415 660,400 700,385" fill="none" stroke="#42A5F5" stroke-width="2"/>

  <!-- Legend -->
  <rect x="60" y="460" width="700" height="30" fill="rgba(255,255,255,0.03)" rx="4"/>
  <line x1="80" y1="475" x2="115" y2="475" stroke="#42A5F5" stroke-width="2"/>
  <text x="120" y="479" fill="#aaa" font-size="11" font-family="Inter,sans-serif">PFE</text>
  <rect x="180" y="470" width="20" height="10" fill="rgba(0,230,118,0.15)" rx="2"/>
  <text x="205" y="479" fill="#aaa" font-size="11" font-family="Inter,sans-serif">Strong Uptrend (+50)</text>
  <rect x="360" y="470" width="20" height="10" fill="rgba(255,23,68,0.15)" rx="2"/>
  <text x="385" y="479" fill="#aaa" font-size="11" font-family="Inter,sans-serif">Strong Downtrend (-50)</text>
</svg>
