<?xml version="1.0" encoding="UTF-8"?>
<svg xmlns="http://www.w3.org/2000/svg" viewBox="0 0 800 500">
  <defs>
    <linearGradient id="bg" x1="0" y1="0" x2="0" y2="1">
      <stop offset="0%" stop-color="#1a1a2e"/>
      <stop offset="100%" stop-color="#16213e"/>
    </linearGradient>
    <filter id="glow">
      <feGaussianBlur stdDeviation="2" result="blur"/>
      <feMerge><feMergeNode in="blur"/><feMergeNode in="SourceGraphic"/></feMerge>
    </filter>
    <filter id="glowBar">
      <feGaussianBlur stdDeviation="3" result="blur"/>
      <feMerge><feMergeNode in="blur"/><feMergeNode in="SourceGraphic"/></feMerge>
    </filter>
    <linearGradient id="entGrad" x1="0" y1="0" x2="0" y2="1">
      <stop offset="0%" stop-color="#f59e0b" stop-opacity="0.6"/>
      <stop offset="100%" stop-color="#f59e0b" stop-opacity="0.15"/>
    </linearGradient>
  </defs>

  <!-- Background -->
  <rect width="800" height="500" fill="url(#bg)"/>

  <!-- Grid -->
  <g stroke="#ffffff" stroke-opacity="0.04" stroke-width="1">
    <line x1="60" y1="60" x2="760" y2="60"/>
    <line x1="60" y1="110" x2="760" y2="110"/>
    <line x1="60" y1="160" x2="760" y2="160"/>
    <line x1="60" y1="210" x2="760" y2="210"/>
    <line x1="60" y1="260" x2="760" y2="260"/>
    <line x1="60" y1="310" x2="760" y2="310"/>
    <line x1="60" y1="370" x2="760" y2="370"/>
    <line x1="60" y1="410" x2="760" y2="410"/>
    <line x1="160" y1="50" x2="160" y2="435"/>
    <line x1="260" y1="50" x2="260" y2="435"/>
    <line x1="360" y1="50" x2="360" y2="435"/>
    <line x1="460" y1="50" x2="460" y2="435"/>
    <line x1="560" y1="50" x2="560" y2="435"/>
    <line x1="660" y1="50" x2="660" y2="435"/>
  </g>

  <!-- Divider -->
  <line x1="60" y1="335" x2="760" y2="335" stroke="#475569" stroke-width="0.5" stroke-dasharray="4,3"/>

  <!-- Title -->
  <text x="400" y="30" text-anchor="middle" fill="#e2e8f0" font-family="Arial,sans-serif" font-size="18" font-weight="bold">MA Entanglement</text>
  <text x="400" y="46" text-anchor="middle" fill="#94a3b8" font-family="Arial,sans-serif" font-size="11">tradegrub.finance</text>

  <!-- Y-axis labels: MA panel -->
  <text x="52" y="68" text-anchor="end" fill="#64748b" font-family="Arial,sans-serif" font-size="9">210</text>
  <text x="52" y="118" text-anchor="end" fill="#64748b" font-family="Arial,sans-serif" font-size="9">200</text>
  <text x="52" y="168" text-anchor="end" fill="#64748b" font-family="Arial,sans-serif" font-size="9">190</text>
  <text x="52" y="218" text-anchor="end" fill="#64748b" font-family="Arial,sans-serif" font-size="9">180</text>
  <text x="52" y="268" text-anchor="end" fill="#64748b" font-family="Arial,sans-serif" font-size="9">170</text>
  <text x="52" y="318" text-anchor="end" fill="#64748b" font-family="Arial,sans-serif" font-size="9">160</text>

  <!-- Y-axis labels: Entanglement panel -->
  <text x="52" y="348" text-anchor="end" fill="#64748b" font-family="Arial,sans-serif" font-size="9">100</text>
  <text x="52" y="393" text-anchor="end" fill="#64748b" font-family="Arial,sans-serif" font-size="9">50</text>
  <text x="52" y="438" text-anchor="end" fill="#64748b" font-family="Arial,sans-serif" font-size="9">0</text>

  <!-- 6 MA lines: fan out -> converge (tangled) -> fan out again -->
  <!-- MA1 (fastest) #ff6384 -->
  <polyline fill="none" stroke="#ff6384" stroke-width="1.3" filter="url(#glow)" points="
    60,280 80,270 100,255 120,240 140,222 160,210 180,200 200,192 220,188 240,186
    260,185 280,186 300,187 320,188 340,187 360,186 380,185 400,184
    420,182 440,178 460,170 480,158 500,142 520,125 540,110 560,98
    580,88 600,82 620,78 640,76 660,80 680,88 700,98 720,110 740,125 760,138
  "/>
  <!-- MA2 #36a2eb -->
  <polyline fill="none" stroke="#36a2eb" stroke-width="1.3" filter="url(#glow)" points="
    60,275 80,268 100,256 120,244 140,230 160,218 180,208 200,198 220,192 240,189
    260,187 280,187 300,188 320,189 340,188 360,187 380,186 400,186
    420,185 440,182 460,176 480,166 500,152 520,138 540,125 560,115
    580,108 600,104 620,102 640,104 660,110 680,120 700,132 720,146 740,160 760,172
  "/>
  <!-- MA3 #ffce56 -->
  <polyline fill="none" stroke="#ffce56" stroke-width="1.3" filter="url(#glow)" points="
    60,268 80,264 100,258 120,248 140,236 160,225 180,215 200,205 220,196 240,192
    260,189 280,188 300,189 320,190 340,189 360,188 380,187 400,187
    420,188 440,186 460,182 480,174 500,162 520,150 540,140 560,132
    580,128 600,126 620,128 640,132 660,140 680,152 700,165 720,180 740,195 760,208
  "/>
  <!-- MA4 #4bc0c0 -->
  <polyline fill="none" stroke="#4bc0c0" stroke-width="1.3" filter="url(#glow)" points="
    60,260 80,260 100,258 120,252 140,242 160,232 180,222 200,212 220,202 240,195
    260,191 280,190 300,190 320,191 340,190 360,189 380,188 400,188
    420,190 440,190 460,188 480,182 500,172 520,162 540,155 560,150
    580,148 600,148 620,152 640,160 660,170 680,182 700,198 720,214 740,228 760,240
  "/>
  <!-- MA5 #9966ff -->
  <polyline fill="none" stroke="#9966ff" stroke-width="1.3" filter="url(#glow)" points="
    60,252 80,256 100,258 120,254 140,248 160,238 180,228 200,218 220,208 240,198
    260,193 280,192 300,192 320,192 340,191 360,190 380,190 400,190
    420,192 440,194 460,194 480,190 500,182 520,175 540,170 560,168
    580,168 600,172 620,178 640,188 660,200 680,215 700,230 720,248 740,262 760,275
  "/>
  <!-- MA6 (slowest) #ff9f40 -->
  <polyline fill="none" stroke="#ff9f40" stroke-width="1.3" filter="url(#glow)" points="
    60,245 80,252 100,258 120,258 140,254 160,245 180,235 200,225 220,215 240,202
    260,196 280,194 300,193 320,193 340,193 360,192 380,191 400,192
    420,194 440,198 460,200 480,198 500,192 520,188 540,185 560,185
    580,188 600,195 620,205 640,218 660,232 680,248 700,265 720,280 740,295 760,308
  "/>

  <!-- Callout: Tangled -->
  <text x="310" y="175" text-anchor="middle" fill="#f59e0b" font-family="Arial,sans-serif" font-size="10" font-weight="bold">Tangled (Consolidation)</text>
  <line x1="310" y1="178" x2="310" y2="184" stroke="#f59e0b" stroke-width="0.8" opacity="0.5"/>

  <!-- Callout: Expansion left -->
  <text x="130" y="215" text-anchor="middle" fill="#34d399" font-family="Arial,sans-serif" font-size="9" font-weight="bold">Expansion (Trend)</text>

  <!-- Callout: Expansion right -->
  <text x="620" y="68" text-anchor="middle" fill="#34d399" font-family="Arial,sans-serif" font-size="9" font-weight="bold">Expansion (Trend)</text>

  <!-- Entanglement Index bar chart (lower panel: y 340=100, y 435=0) -->
  <!-- Higher bars when MAs are tangled (around x 260-420), lower when fanned -->
  <g fill="url(#entGrad)" filter="url(#glowBar)">
    <rect x="68" y="410" width="8" height="25" rx="1"/>
    <rect x="82" y="415" width="8" height="20" rx="1"/>
    <rect x="96" y="418" width="8" height="17" rx="1"/>
    <rect x="110" y="420" width="8" height="15" rx="1"/>
    <rect x="124" y="418" width="8" height="17" rx="1"/>
    <rect x="138" y="415" width="8" height="20" rx="1"/>
    <rect x="152" y="410" width="8" height="25" rx="1"/>
    <rect x="166" y="404" width="8" height="31" rx="1"/>
    <rect x="180" y="396" width="8" height="39" rx="1"/>
    <rect x="194" y="385" width="8" height="50" rx="1"/>
    <rect x="208" y="375" width="8" height="60" rx="1"/>
    <rect x="222" y="365" width="8" height="70" rx="1"/>
    <rect x="236" y="358" width="8" height="77" rx="1"/>
    <rect x="250" y="352" width="8" height="83" rx="1"/>
    <rect x="264" y="348" width="8" height="87" rx="1"/>
    <rect x="278" y="345" width="8" height="90" rx="1"/>
    <rect x="292" y="343" width="8" height="92" rx="1"/>
    <rect x="306" y="342" width="8" height="93" rx="1"/>
    <rect x="320" y="343" width="8" height="92" rx="1"/>
    <rect x="334" y="344" width="8" height="91" rx="1"/>
    <rect x="348" y="345" width="8" height="90" rx="1"/>
    <rect x="362" y="347" width="8" height="88" rx="1"/>
    <rect x="376" y="350" width="8" height="85" rx="1"/>
    <rect x="390" y="355" width="8" height="80" rx="1"/>
    <rect x="404" y="362" width="8" height="73" rx="1"/>
    <rect x="418" y="370" width="8" height="65" rx="1"/>
    <rect x="432" y="380" width="8" height="55" rx="1"/>
    <rect x="446" y="390" width="8" height="45" rx="1"/>
    <rect x="460" y="398" width="8" height="37" rx="1"/>
    <rect x="474" y="405" width="8" height="30" rx="1"/>
    <rect x="488" y="410" width="8" height="25" rx="1"/>
    <rect x="502" y="414" width="8" height="21" rx="1"/>
    <rect x="516" y="418" width="8" height="17" rx="1"/>
    <rect x="530" y="420" width="8" height="15" rx="1"/>
    <rect x="544" y="422" width="8" height="13" rx="1"/>
    <rect x="558" y="420" width="8" height="15" rx="1"/>
    <rect x="572" y="418" width="8" height="17" rx="1"/>
    <rect x="586" y="415" width="8" height="20" rx="1"/>
    <rect x="600" y="412" width="8" height="23" rx="1"/>
    <rect x="614" y="410" width="8" height="25" rx="1"/>
    <rect x="628" y="408" width="8" height="27" rx="1"/>
    <rect x="642" y="406" width="8" height="29" rx="1"/>
    <rect x="656" y="408" width="8" height="27" rx="1"/>
    <rect x="670" y="410" width="8" height="25" rx="1"/>
    <rect x="684" y="412" width="8" height="23" rx="1"/>
    <rect x="698" y="415" width="8" height="20" rx="1"/>
    <rect x="712" y="418" width="8" height="17" rx="1"/>
    <rect x="726" y="420" width="8" height="15" rx="1"/>
    <rect x="740" y="422" width="8" height="13" rx="1"/>
    <rect x="754" y="424" width="8" height="11" rx="1"/>
  </g>

  <!-- Legend bar -->
  <rect x="60" y="455" width="680" height="36" rx="4" fill="#0f172a" fill-opacity="0.7"/>
  <line x1="85" y1="468" x2="100" y2="468" stroke="#ff6384" stroke-width="2"/>
  <text x="104" y="472" fill="#94a3b8" font-family="Arial,sans-serif" font-size="9">MA1</text>
  <line x1="140" y1="468" x2="155" y2="468" stroke="#36a2eb" stroke-width="2"/>
  <text x="159" y="472" fill="#94a3b8" font-family="Arial,sans-serif" font-size="9">MA2</text>
  <line x1="195" y1="468" x2="210" y2="468" stroke="#ffce56" stroke-width="2"/>
  <text x="214" y="472" fill="#94a3b8" font-family="Arial,sans-serif" font-size="9">MA3</text>
  <line x1="250" y1="468" x2="265" y2="468" stroke="#4bc0c0" stroke-width="2"/>
  <text x="269" y="472" fill="#94a3b8" font-family="Arial,sans-serif" font-size="9">MA4</text>
  <line x1="305" y1="468" x2="320" y2="468" stroke="#9966ff" stroke-width="2"/>
  <text x="324" y="472" fill="#94a3b8" font-family="Arial,sans-serif" font-size="9">MA5</text>
  <line x1="360" y1="468" x2="375" y2="468" stroke="#ff9f40" stroke-width="2"/>
  <text x="379" y="472" fill="#94a3b8" font-family="Arial,sans-serif" font-size="9">MA6</text>

  <line x1="85" y1="482" x2="100" y2="482" stroke="#f59e0b" stroke-width="2"/>
  <rect x="85" y="479" width="15" height="6" rx="1" fill="#f59e0b" opacity="0.3"/>
  <text x="104" y="486" fill="#94a3b8" font-family="Arial,sans-serif" font-size="9">Entanglement Index</text>
</svg>