<svg xmlns="http://www.w3.org/2000/svg" viewBox="0 0 800 500">
  <defs>
    <linearGradient id="bg" x1="0" y1="0" x2="0" y2="1">
      <stop offset="0%" stop-color="#1a1a2e"/>
      <stop offset="100%" stop-color="#16213e"/>
    </linearGradient>
  </defs>
  <rect width="800" height="500" fill="url(#bg)" rx="8"/>
  <text x="400" y="35" text-anchor="middle" fill="#e0e0e0" font-family="Inter,sans-serif" font-size="18" font-weight="600">Jurik Moving Average</text>
  <text x="400" y="55" text-anchor="middle" fill="#666" font-family="Inter,sans-serif" font-size="11">tradegrub.finance</text>

  <rect x="60" y="70" width="700" height="370" fill="none" stroke="#333" stroke-width="0.5" rx="4"/>

  <!-- Background shading -->
  <rect x="60" y="70" width="320" height="370" fill="rgba(0,230,118,0.03)"/>
  <rect x="380" y="70" width="200" height="370" fill="rgba(255,23,68,0.03)"/>
  <rect x="580" y="70" width="180" height="370" fill="rgba(0,230,118,0.03)"/>

  <!-- Candlesticks -->
  <line x1="100" y1="340" x2="100" y2="385" stroke="#26a69a" stroke-width="1"/><rect x="97" y="345" width="6" height="30" fill="#26a69a" rx="1"/>
  <line x1="140" y1="305" x2="140" y2="355" stroke="#26a69a" stroke-width="1"/><rect x="137" y="310" width="6" height="35" fill="#26a69a" rx="1"/>
  <line x1="180" y1="265" x2="180" y2="320" stroke="#26a69a" stroke-width="1"/><rect x="177" y="270" width="6" height="38" fill="#26a69a" rx="1"/>
  <line x1="220" y1="220" x2="220" y2="280" stroke="#26a69a" stroke-width="1"/><rect x="217" y="225" width="6" height="40" fill="#26a69a" rx="1"/>
  <line x1="260" y1="180" x2="260" y2="240" stroke="#26a69a" stroke-width="1"/><rect x="257" y="185" width="6" height="38" fill="#26a69a" rx="1"/>
  <line x1="300" y1="145" x2="300" y2="205" stroke="#26a69a" stroke-width="1"/><rect x="297" y="150" width="6" height="38" fill="#26a69a" rx="1"/>
  <line x1="340" y1="120" x2="340" y2="180" stroke="#26a69a" stroke-width="1"/><rect x="337" y="125" width="6" height="38" fill="#26a69a" rx="1"/>
  <line x1="380" y1="115" x2="380" y2="175" stroke="#ef5350" stroke-width="1"/><rect x="377" y="125" width="6" height="38" fill="#ef5350" rx="1"/>
  <line x1="420" y1="135" x2="420" y2="195" stroke="#ef5350" stroke-width="1"/><rect x="417" y="145" width="6" height="38" fill="#ef5350" rx="1"/>
  <line x1="460" y1="165" x2="460" y2="225" stroke="#ef5350" stroke-width="1"/><rect x="457" y="175" width="6" height="38" fill="#ef5350" rx="1"/>
  <line x1="500" y1="195" x2="500" y2="260" stroke="#ef5350" stroke-width="1"/><rect x="497" y="205" width="6" height="42" fill="#ef5350" rx="1"/>
  <line x1="540" y1="225" x2="540" y2="290" stroke="#ef5350" stroke-width="1"/><rect x="537" y="235" width="6" height="42" fill="#ef5350" rx="1"/>
  <line x1="580" y1="240" x2="580" y2="300" stroke="#26a69a" stroke-width="1"/><rect x="577" y="245" width="6" height="38" fill="#26a69a" rx="1"/>
  <line x1="620" y1="215" x2="620" y2="275" stroke="#26a69a" stroke-width="1"/><rect x="617" y="220" width="6" height="38" fill="#26a69a" rx="1"/>
  <line x1="660" y1="190" x2="660" y2="250" stroke="#26a69a" stroke-width="1"/><rect x="657" y="195" width="6" height="38" fill="#26a69a" rx="1"/>
  <line x1="700" y1="170" x2="700" y2="230" stroke="#26a69a" stroke-width="1"/><rect x="697" y="175" width="6" height="38" fill="#26a69a" rx="1"/>

  <!-- EMA reference (faint, laggier) -->
  <polyline points="100,365 140,340 180,300 220,260 260,225 300,195 340,170 380,158 420,165 460,185 500,215 540,250 580,270 620,255 660,235 700,215" fill="none" stroke="rgba(255,255,255,0.2)" stroke-width="1.5"/>

  <!-- JMA (gold, smooth and fast) -->
  <polyline points="100,358 140,328 180,285 220,242 260,202 300,168 340,145 380,140 420,155 460,182 500,218 540,255 580,262 620,242 660,218 700,198" fill="none" stroke="#FFD54F" stroke-width="2.5"/>

  <!-- Annotation -->
  <text x="340" y="105" text-anchor="middle" fill="rgba(255,213,79,0.5)" font-size="10" font-family="Inter,sans-serif">Ultra-smooth, minimal lag</text>

  <!-- Legend -->
  <rect x="60" y="460" width="700" height="30" fill="rgba(255,255,255,0.03)" rx="4"/>
  <line x1="80" y1="475" x2="115" y2="475" stroke="#FFD54F" stroke-width="2.5"/>
  <text x="120" y="479" fill="#aaa" font-size="11" font-family="Inter,sans-serif">JMA</text>
  <line x1="180" y1="475" x2="215" y2="475" stroke="rgba(255,255,255,0.25)" stroke-width="1.5"/>
  <text x="220" y="479" fill="#aaa" font-size="11" font-family="Inter,sans-serif">EMA Reference</text>
  <rect x="330" y="470" width="20" height="10" fill="rgba(0,230,118,0.15)" rx="2"/>
  <text x="355" y="479" fill="#aaa" font-size="11" font-family="Inter,sans-serif">Rising</text>
  <rect x="410" y="470" width="20" height="10" fill="rgba(255,23,68,0.15)" rx="2"/>
  <text x="435" y="479" fill="#aaa" font-size="11" font-family="Inter,sans-serif">Falling</text>
</svg>
