<svg xmlns="http://www.w3.org/2000/svg" viewBox="0 0 800 500" font-family="Inter, system-ui, sans-serif">
  <defs>
    <linearGradient id="bg" x1="0" y1="0" x2="0" y2="1">
      <stop offset="0%" stop-color="#1a1a2e"/>
      <stop offset="100%" stop-color="#16213e"/>
    </linearGradient>
    <filter id="glow">
      <feGaussianBlur stdDeviation="3" result="blur"/>
      <feMerge><feMergeNode in="blur"/><feMergeNode in="SourceGraphic"/></feMerge>
    </filter>
    <filter id="softGlow">
      <feGaussianBlur stdDeviation="2" result="blur"/>
      <feMerge><feMergeNode in="blur"/><feMergeNode in="SourceGraphic"/></feMerge>
    </filter>
  </defs>

  <rect width="800" height="500" fill="url(#bg)" rx="8"/>

  <!-- Grid -->
  <g stroke="#ffffff" stroke-opacity="0.04" stroke-width="1">
    <line x1="80" y1="60" x2="80" y2="380"/><line x1="200" y1="60" x2="200" y2="380"/>
    <line x1="320" y1="60" x2="320" y2="380"/><line x1="440" y1="60" x2="440" y2="380"/>
    <line x1="560" y1="60" x2="560" y2="380"/><line x1="680" y1="60" x2="680" y2="380"/>
    <line x1="60" y1="100" x2="760" y2="100"/><line x1="60" y1="180" x2="760" y2="180"/>
    <line x1="60" y1="260" x2="760" y2="260"/><line x1="60" y1="340" x2="760" y2="340"/>
  </g>

  <!-- Title -->
  <text x="400" y="30" text-anchor="middle" fill="#e0e0e0" font-size="16" font-weight="600">Trend Follower Strategy</text>
  <text x="400" y="48" text-anchor="middle" fill="#888" font-size="11">tradegrub.finance</text>

  <!-- Candlesticks: 28 candles - downtrend with supertrend above, flip, uptrend with supertrend below, flip again -->
  <!-- Downtrend phase (candles 1-9) -->
  <line x1="85" y1="135" x2="85" y2="172" stroke="#ef5350" stroke-width="1"/>
  <rect x="81" y="142" width="8" height="20" fill="#ef5350" rx="1"/>
  <line x1="110" y1="148" x2="110" y2="185" stroke="#ef5350" stroke-width="1"/>
  <rect x="106" y="155" width="8" height="20" fill="#ef5350" rx="1"/>
  <line x1="135" y1="160" x2="135" y2="198" stroke="#ef5350" stroke-width="1"/>
  <rect x="131" y="168" width="8" height="20" fill="#ef5350" rx="1"/>
  <line x1="160" y1="172" x2="160" y2="210" stroke="#ef5350" stroke-width="1"/>
  <rect x="156" y="180" width="8" height="20" fill="#ef5350" rx="1"/>
  <line x1="185" y1="185" x2="185" y2="222" stroke="#ef5350" stroke-width="1"/>
  <rect x="181" y="192" width="8" height="20" fill="#ef5350" rx="1"/>
  <line x1="210" y1="198" x2="210" y2="235" stroke="#ef5350" stroke-width="1"/>
  <rect x="206" y="205" width="8" height="20" fill="#ef5350" rx="1"/>
  <line x1="235" y1="210" x2="235" y2="248" stroke="#ef5350" stroke-width="1"/>
  <rect x="231" y="218" width="8" height="20" fill="#ef5350" rx="1"/>
  <line x1="260" y1="222" x2="260" y2="258" stroke="#26a69a" stroke-width="1"/>
  <rect x="256" y="235" width="8" height="15" fill="#26a69a" rx="1"/>
  <line x1="285" y1="228" x2="285" y2="262" stroke="#ef5350" stroke-width="1"/>
  <rect x="281" y="232" width="8" height="18" fill="#ef5350" rx="1"/>

  <!-- Flip point / uptrend (candles 10-21) -->
  <line x1="310" y1="218" x2="310" y2="252" stroke="#26a69a" stroke-width="1"/>
  <rect x="306" y="228" width="8" height="15" fill="#26a69a" rx="1"/>
  <line x1="335" y1="205" x2="335" y2="242" stroke="#26a69a" stroke-width="1"/>
  <rect x="331" y="212" width="8" height="20" fill="#26a69a" rx="1"/>
  <line x1="360" y1="190" x2="360" y2="228" stroke="#26a69a" stroke-width="1"/>
  <rect x="356" y="198" width="8" height="20" fill="#26a69a" rx="1"/>
  <line x1="385" y1="175" x2="385" y2="212" stroke="#26a69a" stroke-width="1"/>
  <rect x="381" y="182" width="8" height="20" fill="#26a69a" rx="1"/>
  <line x1="410" y1="160" x2="410" y2="198" stroke="#26a69a" stroke-width="1"/>
  <rect x="406" y="168" width="8" height="20" fill="#26a69a" rx="1"/>
  <line x1="435" y1="148" x2="435" y2="185" stroke="#26a69a" stroke-width="1"/>
  <rect x="431" y="155" width="8" height="20" fill="#26a69a" rx="1"/>
  <line x1="460" y1="135" x2="460" y2="172" stroke="#26a69a" stroke-width="1"/>
  <rect x="456" y="142" width="8" height="20" fill="#26a69a" rx="1"/>
  <line x1="485" y1="122" x2="485" y2="158" stroke="#26a69a" stroke-width="1"/>
  <rect x="481" y="128" width="8" height="20" fill="#26a69a" rx="1"/>
  <line x1="510" y1="112" x2="510" y2="148" stroke="#26a69a" stroke-width="1"/>
  <rect x="506" y="118" width="8" height="20" fill="#26a69a" rx="1"/>
  <line x1="535" y1="102" x2="535" y2="138" stroke="#26a69a" stroke-width="1"/>
  <rect x="531" y="108" width="8" height="20" fill="#26a69a" rx="1"/>
  <line x1="560" y1="95" x2="560" y2="130" stroke="#26a69a" stroke-width="1"/>
  <rect x="556" y="102" width="8" height="18" fill="#26a69a" rx="1"/>
  <line x1="585" y1="90" x2="585" y2="125" stroke="#26a69a" stroke-width="1"/>
  <rect x="581" y="98" width="8" height="18" fill="#26a69a" rx="1"/>

  <!-- Top / flip to downtrend (candles 22-28) -->
  <line x1="610" y1="88" x2="610" y2="125" stroke="#ef5350" stroke-width="1"/>
  <rect x="606" y="92" width="8" height="22" fill="#ef5350" rx="1"/>
  <line x1="635" y1="95" x2="635" y2="132" stroke="#ef5350" stroke-width="1"/>
  <rect x="631" y="100" width="8" height="22" fill="#ef5350" rx="1"/>
  <line x1="660" y1="105" x2="660" y2="142" stroke="#ef5350" stroke-width="1"/>
  <rect x="656" y="110" width="8" height="22" fill="#ef5350" rx="1"/>
  <line x1="685" y1="118" x2="685" y2="155" stroke="#ef5350" stroke-width="1"/>
  <rect x="681" y="122" width="8" height="22" fill="#ef5350" rx="1"/>
  <line x1="710" y1="130" x2="710" y2="168" stroke="#ef5350" stroke-width="1"/>
  <rect x="706" y="135" width="8" height="22" fill="#ef5350" rx="1"/>
  <line x1="735" y1="142" x2="735" y2="178" stroke="#ef5350" stroke-width="1"/>
  <rect x="731" y="148" width="8" height="20" fill="#ef5350" rx="1"/>

  <!-- Supertrend line - BEARISH (red, above price) for candles 1-9 -->
  <path d="M85,118 L110,128 L135,140 L160,152 L185,165 L210,178 L235,190 L260,200 L285,208" fill="none" stroke="#ef5350" stroke-width="2.5"/>

  <!-- Supertrend line - BULLISH (green, below price) for candles 10-22 -->
  <path d="M310,260 L335,252 L360,238 L385,225 L410,210 L435,198 L460,185 L485,172 L510,160 L535,148 L560,138 L585,130 L610,125" fill="none" stroke="#26a69a" stroke-width="2.5"/>

  <!-- Supertrend line - BEARISH (red, above price) for candles 23-28 -->
  <path d="M610,78 L635,78 L660,78 L685,78 L710,78 L735,78" fill="none" stroke="#ef5350" stroke-width="2.5"/>

  <!-- BUY signal at flip point x=310 -->
  <circle cx="310" cy="260" r="8" fill="none" stroke="#00e676" stroke-width="2" filter="url(#glow)"/>
  <line x1="310" y1="260" x2="310" y2="275" stroke="#00e676" stroke-width="1" stroke-dasharray="3,3" opacity="0.3"/>
  <g filter="url(#softGlow)">
    <polygon points="308,272 318,272 313,259" fill="#00e676"/>
  </g>
  <rect x="263" y="270" width="50" height="18" rx="4" fill="#00e676" fill-opacity="0.15" stroke="#00e676" stroke-width="1" stroke-opacity="0.4"/>
  <text x="288" y="283" text-anchor="middle" fill="#00e676" font-size="10" font-weight="600">BUY</text>

  <!-- EXIT signal at flip point x=610 -->
  <circle cx="610" cy="78" r="8" fill="none" stroke="#ef5350" stroke-width="2" filter="url(#glow)"/>
  <g filter="url(#softGlow)">
    <polygon points="608,68 618,68 613,81" fill="#ef5350"/>
  </g>
  <rect x="620" y="62" width="50" height="18" rx="4" fill="#ef5350" fill-opacity="0.15" stroke="#ef5350" stroke-width="1" stroke-opacity="0.4"/>
  <text x="645" y="75" text-anchor="middle" fill="#ef5350" font-size="10" font-weight="600">EXIT</text>

  <!-- Volume bars -->
  <g opacity="0.4">
    <rect x="81" y="398" width="8" height="20" fill="#ef5350" rx="1"/>
    <rect x="106" y="396" width="8" height="22" fill="#ef5350" rx="1"/>
    <rect x="131" y="394" width="8" height="24" fill="#ef5350" rx="1"/>
    <rect x="156" y="396" width="8" height="22" fill="#ef5350" rx="1"/>
    <rect x="181" y="398" width="8" height="20" fill="#ef5350" rx="1"/>
    <rect x="206" y="400" width="8" height="18" fill="#ef5350" rx="1"/>
    <rect x="231" y="402" width="8" height="16" fill="#ef5350" rx="1"/>
    <rect x="256" y="405" width="8" height="13" fill="#26a69a" rx="1"/>
    <rect x="281" y="406" width="8" height="12" fill="#ef5350" rx="1"/>
    <rect x="306" y="390" width="8" height="28" fill="#26a69a" rx="1"/>
    <rect x="331" y="392" width="8" height="26" fill="#26a69a" rx="1"/>
    <rect x="356" y="394" width="8" height="24" fill="#26a69a" rx="1"/>
    <rect x="381" y="396" width="8" height="22" fill="#26a69a" rx="1"/>
    <rect x="406" y="398" width="8" height="20" fill="#26a69a" rx="1"/>
    <rect x="431" y="400" width="8" height="18" fill="#26a69a" rx="1"/>
    <rect x="456" y="402" width="8" height="16" fill="#26a69a" rx="1"/>
    <rect x="481" y="404" width="8" height="14" fill="#26a69a" rx="1"/>
    <rect x="506" y="405" width="8" height="13" fill="#26a69a" rx="1"/>
    <rect x="531" y="406" width="8" height="12" fill="#26a69a" rx="1"/>
    <rect x="556" y="404" width="8" height="14" fill="#26a69a" rx="1"/>
    <rect x="581" y="405" width="8" height="13" fill="#26a69a" rx="1"/>
    <rect x="606" y="392" width="8" height="26" fill="#ef5350" rx="1"/>
    <rect x="631" y="394" width="8" height="24" fill="#ef5350" rx="1"/>
    <rect x="656" y="396" width="8" height="22" fill="#ef5350" rx="1"/>
    <rect x="681" y="398" width="8" height="20" fill="#ef5350" rx="1"/>
    <rect x="706" y="400" width="8" height="18" fill="#ef5350" rx="1"/>
    <rect x="731" y="402" width="8" height="16" fill="#ef5350" rx="1"/>
  </g>

  <!-- Legend -->
  <g transform="translate(60, 445)">
    <rect width="680" height="40" rx="4" fill="#ffffff" fill-opacity="0.03"/>
    <line x1="10" y1="20" x2="40" y2="20" stroke="#26a69a" stroke-width="2.5"/>
    <text x="48" y="24" fill="#999" font-size="9">Supertrend (Bullish)</text>
    <line x1="190" y1="20" x2="220" y2="20" stroke="#ef5350" stroke-width="2.5"/>
    <text x="228" y="24" fill="#999" font-size="9">Supertrend (Bearish)</text>
    <circle cx="400" cy="20" r="4" fill="#00e676"/>
    <text x="410" y="24" fill="#999" font-size="9">Buy Signal</text>
    <circle cx="500" cy="20" r="4" fill="#ef5350"/>
    <text x="510" y="24" fill="#999" font-size="9">Exit Signal</text>
  </g>
</svg>